<svg width="64" height="32" viewBox="0 0 64 32" fill="none" xmlns="http://www.w3.org/2000/svg">
<path d="M16.1671 8.20742C15.5812 8.91675 14.6437 9.47621 13.7062 9.39629C13.589 8.4372 14.048 7.41817 14.5851 6.78877C15.171 6.05947 16.1964 5.53996 17.0265 5.5C17.1242 6.49905 16.7433 7.47812 16.1671 8.20742ZM17.0167 9.58611C15.6593 9.50619 14.4972 10.3754 13.8527 10.3754C13.1984 10.3754 12.212 9.62607 11.1378 9.64605C9.74134 9.66603 8.44251 10.4753 7.72962 11.764C6.26478 14.3416 7.34876 18.1579 8.76478 20.2559C9.45814 21.295 10.2882 22.4339 11.382 22.3939C12.4171 22.354 12.8273 21.7046 14.0773 21.7046C15.337 21.7046 15.6984 22.3939 16.7921 22.3739C17.9249 22.3539 18.6378 21.3349 19.3312 20.2959C20.1222 19.117 20.4445 17.9681 20.464 17.9082C20.4445 17.8882 18.2765 17.039 18.257 14.4814C18.2374 12.3435 19.966 11.3245 20.0441 11.2645C19.0675 9.78592 17.5441 9.62607 17.0167 9.58611ZM24.8585 6.68887V22.264H27.2218V16.9391H30.4933C33.4816 16.9391 35.5812 14.8411 35.5812 11.804C35.5812 8.76689 33.5206 6.68887 30.5714 6.68887H24.8585ZM27.2218 8.72693H29.9464C31.9972 8.72693 33.1691 9.84586 33.1691 11.814C33.1691 13.7821 31.9972 14.911 29.9367 14.911H27.2218V8.72693ZM39.8976 22.3839C41.382 22.3839 42.7589 21.6147 43.3839 20.3958H43.4327V22.264H45.6203V14.5114C45.6203 12.2636 43.8624 10.8149 41.1574 10.8149C38.6476 10.8149 36.7921 12.2835 36.7238 14.3016H38.8527C39.0285 13.3425 39.8976 12.7131 41.089 12.7131C42.5343 12.7131 43.3449 13.4025 43.3449 14.6713V15.5304L40.3956 15.7103C37.6515 15.8801 36.1671 17.029 36.1671 19.0271C36.1671 21.0452 37.7003 22.3839 39.8976 22.3839ZM40.5324 20.5357C39.2726 20.5357 38.4718 19.9163 38.4718 18.9672C38.4718 17.9881 39.2433 17.4186 40.7179 17.3287L43.3449 17.1589V18.0381C43.3449 19.4967 42.1339 20.5357 40.5324 20.5357ZM48.5402 26.5C50.8449 26.5 51.9288 25.6009 52.8761 22.8735L57.0265 10.9648H54.6242L51.841 20.166H51.7921L49.0089 10.9648H46.5382L50.5421 22.304L50.3273 22.9933C49.966 24.1622 49.38 24.6118 48.3351 24.6118C48.1495 24.6118 47.7882 24.5918 47.6417 24.5718V26.4401C47.7785 26.48 48.3644 26.5 48.5402 26.5Z" fill="white"/>
</svg>
