<svg width="28" height="16" viewBox="0 0 28 16" fill="none" xmlns="http://www.w3.org/2000/svg">
<path fill-rule="evenodd" clip-rule="evenodd" d="M21.4651 10.8521L24.5517 7.98886L23.0897 5.02679L21.4651 10.8521Z" fill="#097939"/>
<path fill-rule="evenodd" clip-rule="evenodd" d="M20.4252 10.8521L23.5117 7.98886L22.0497 5.02679L20.4252 10.8521Z" fill="#ED752E"/>
<path fill-rule="evenodd" clip-rule="evenodd" d="M5.67425 5.05942L4.37472 9.76574L8.98817 9.79861L10.2554 5.05942H11.425L9.9056 10.5689C9.84741 10.7793 9.62586 10.9503 9.411 10.9503H3.49759C3.13898 10.9503 2.92648 10.6654 3.02346 10.3147L4.47256 5.05942H5.67425ZM19.9372 5.02655H21.1068L19.4823 10.9503H18.2797L19.9372 5.02655ZM11.5551 7.49466L17.4032 7.46178L17.7933 6.21107H11.8474L12.2047 5.0592L18.5407 5.00003C18.9351 4.99631 19.17 5.30685 19.0661 5.69409L18.4691 7.9128C18.3651 8.29982 17.9605 8.61343 17.5662 8.61343H12.3348L11.718 11.0489H10.5801L11.5551 7.49466Z" fill="white"/>
</svg>
