<svg width="97" height="40" viewBox="0 0 97 40" fill="none" xmlns="http://www.w3.org/2000/svg">
<path d="M14.7804 9.00746L11 17.7341H13.4602L14.1578 15.9858H18.2157L18.9133 17.7341H21.4335L17.6532 9.00746H14.7804ZM16.183 11.031L17.4206 14.0812H14.9454L16.183 11.031Z" fill="#016FD0"/>
<path d="M21.6886 17.7266V9L25.1914 9.01488L27.2241 14.6392L29.2118 9H32.6847V17.7266H30.487V11.2988L28.1542 17.7266H26.2265L23.8863 11.2988V17.7266H21.6886Z" fill="#016FD0"/>
<path d="M34.1923 17.7266V9H41.3705V10.9492H36.42V12.4445H41.2505V14.2821H36.4125V15.8295H41.363V17.7266H34.1923Z" fill="#016FD0"/>
<path d="M42.6382 9.00746V17.7341H44.8359V14.6318H45.7585L48.3987 17.7341H51.084L48.1887 14.5202C49.3738 14.4235 50.604 13.4117 50.604 11.8419C50.604 10.0044 49.1488 9.0149 47.5287 9.0149L42.6382 9.00746ZM44.8359 10.9566H47.3486C47.9487 10.9566 48.3912 11.4253 48.3912 11.8717C48.3912 12.452 47.8212 12.7868 47.3786 12.7868H44.8359V10.9566Z" fill="#016FD0"/>
<path d="M53.7468 17.7266H51.504V9H53.7468V17.7266Z" fill="#016FD0"/>
<path d="M59.0723 17.7266H58.5848C56.237 17.7266 54.8194 15.8965 54.8194 13.4042C54.8194 10.8525 56.2295 9.00746 59.1848 9.00746H61.6151V11.0757H59.1023C57.9022 11.0757 57.0471 12.0056 57.0471 13.4266C57.0471 15.1153 58.0222 15.8221 59.4173 15.8221H59.9949L59.0723 17.7266Z" fill="#016FD0"/>
<path d="M63.8578 9.00744L60.0774 17.7266H62.5376L63.2352 15.9783H67.2931L67.9907 17.7266H70.5034L66.723 9L63.8578 9.00744ZM65.2529 11.031L66.4905 14.0812H64.0153L65.2529 11.031Z" fill="#016FD0"/>
<path d="M70.7584 17.7266V9H73.5562L77.1266 14.483V9H79.3243V17.7266H76.6165L72.9562 12.1023V17.7266H70.7584Z" fill="#016FD0"/>
<path d="M27.0141 32.9926V24.266H34.1923V26.2152H29.2418V27.7105H34.0798V29.5481H29.2418V31.0955H34.1923V32.9926H27.0141Z" fill="#016FD0"/>
<path d="M62.1701 32.9926V24.266H69.3483V26.2152H64.3978V27.7105H69.2133V29.5481H64.3978V31.0955H69.3483V32.9926H62.1701Z" fill="#016FD0"/>
<path d="M34.4699 32.9926L37.9652 28.6851L34.3873 24.266H37.1551L39.2853 26.9963L41.423 24.266H44.0858L40.553 28.6256L44.0558 32.9852H41.288L39.2178 30.2995L37.2001 32.9852L34.4699 32.9926Z" fill="#016FD0"/>
<path d="M44.3183 24.2734V33H46.5761V30.2474H48.8938C50.8515 30.2474 52.3366 29.2133 52.3366 27.212C52.3366 25.553 51.174 24.2808 49.1788 24.2808H44.3183V24.2734ZM46.5761 26.2449H49.0138C49.6439 26.2449 50.1014 26.6317 50.1014 27.2492C50.1014 27.8295 49.6514 28.2536 49.0063 28.2536H46.5761V26.2449Z" fill="#016FD0"/>
<path d="M53.2817 24.266V32.9926H55.4794V29.8903H56.402L59.0423 32.9926H61.7275L58.8323 29.7787C60.0174 29.682 61.2475 28.6702 61.2475 27.1005C61.2475 25.2629 59.7924 24.2734 58.1722 24.2734L53.2817 24.266ZM55.4869 26.2226H57.9997C58.5997 26.2226 59.0423 26.6913 59.0423 27.1377C59.0423 27.7179 58.4722 28.0527 58.0297 28.0527H55.4869V26.2226Z" fill="#016FD0"/>
<path d="M70.3684 31.0955H74.7714C75.4239 31.0955 75.7015 30.7458 75.7015 30.3664C75.7015 30.0019 75.4239 29.6299 74.7714 29.6299H72.7837C71.0585 29.6299 70.0909 28.5884 70.0909 27.0186C70.0909 25.62 70.976 24.2734 73.5412 24.2734H77.8242L76.9016 26.2374H73.1962C72.4912 26.2374 72.2736 26.6094 72.2736 26.9591C72.2736 27.3236 72.5436 27.7179 73.0837 27.7179H75.1689C77.0966 27.7179 77.9292 28.8041 77.9292 30.2251C77.9292 31.7502 76.9991 33 75.0639 33H70.3684V31.0955Z" fill="#016FD0"/>
<path d="M78.4393 31.0955H82.8422C83.4948 31.0955 83.7723 30.7458 83.7723 30.3664C83.7723 30.0019 83.4948 29.6299 82.8422 29.6299H80.8545C79.1293 29.6299 78.1617 28.5884 78.1617 27.0186C78.1617 25.62 79.0468 24.2734 81.6121 24.2734H85.895L84.9724 26.2374H81.267C80.562 26.2374 80.3444 26.6094 80.3444 26.9591C80.3444 27.3236 80.6145 27.7179 81.1545 27.7179H83.2397C85.1674 27.7179 86 28.8041 86 30.2251C86 31.7502 85.0699 33 83.1347 33H78.4393V31.0955Z" fill="#016FD0"/>
</svg>
