<svg width="97" height="40" viewBox="0 0 97 40" fill="none" xmlns="http://www.w3.org/2000/svg">
<g clip-path="url(#clip0_11332_28190)">
<path d="M46.5948 22.7657C44.7917 29.9979 37.4667 34.3994 30.2336 32.5959C23.0035 30.7928 18.6021 23.4673 20.4061 16.2355C22.2083 9.00249 29.5333 4.60065 36.7643 6.40374C43.9969 8.20684 48.3979 15.5331 46.5948 22.7657Z" fill="#F7931A"/>
<path d="M39.4523 17.5766C39.7211 15.7803 38.3533 14.8146 36.4832 14.1704L37.0898 11.737L35.6086 11.3679L35.018 13.7371C34.6286 13.6401 34.2287 13.5486 33.8313 13.4579L34.4261 11.073L32.9458 10.7039L32.3387 13.1364C32.0164 13.063 31.7 12.9904 31.3928 12.9141L31.3945 12.9065L29.3518 12.3964L28.9578 13.9785C28.9578 13.9785 30.0568 14.2303 30.0336 14.2459C30.6335 14.3957 30.7419 14.7927 30.7237 15.1074L30.0327 17.8795C30.0741 17.8901 30.1276 17.9053 30.1867 17.9289C30.1373 17.9167 30.0846 17.9032 30.0302 17.8901L29.0616 21.7734C28.9881 21.9557 28.8021 22.2291 28.3828 22.1253C28.3975 22.1468 27.3061 21.8565 27.3061 21.8565L26.5708 23.5521L28.4983 24.0326C28.8569 24.1224 29.2084 24.2165 29.5543 24.3051L28.9413 26.7663L30.4208 27.1355L31.0279 24.7004C31.4321 24.8101 31.8244 24.9113 32.2083 25.0067L31.6033 27.4304L33.0846 27.7995L33.6975 25.3429C36.2233 25.8209 38.1226 25.6281 38.922 23.3437C39.5662 21.5043 38.89 20.4433 37.5611 19.7514C38.5288 19.5282 39.2578 18.8916 39.4523 17.5766ZM36.0681 22.3223C35.6103 24.1617 32.5133 23.1673 31.5093 22.918L32.3226 19.6573C33.3267 19.9079 36.5465 20.404 36.0681 22.3223ZM36.5262 17.55C36.1086 19.2232 33.5309 18.3731 32.6947 18.1647L33.4322 15.2074C34.2683 15.4158 36.9612 15.8047 36.5262 17.55Z" fill="white"/>
</g>
<g clip-path="url(#clip1_11332_28190)">
<path d="M67.4974 6L67.3118 6.61511V24.4641L67.4974 24.6448L75.9948 19.7473L67.4974 6Z" fill="#343434"/>
<path d="M67.4975 6L59 19.7473L67.4975 24.6448V15.9815V6Z" fill="#8C8C8C"/>
<path d="M67.4974 26.2136L67.3928 26.3379V32.6961L67.4974 32.994L75.9999 21.3186L67.4974 26.2136Z" fill="#3C3C3B"/>
<path d="M67.4975 32.9938V26.2133L59 21.3184L67.4975 32.9938Z" fill="#8C8C8C"/>
<path d="M67.4973 24.6447L75.9947 19.7473L67.4973 15.9814V24.6447Z" fill="#141414"/>
<path d="M59 19.7473L67.4973 24.6447V15.9814L59 19.7473Z" fill="#393939"/>
</g>
<defs>
<clipPath id="clip0_11332_28190">
<rect width="27" height="27" fill="white" transform="translate(20 6)"/>
</clipPath>
<clipPath id="clip1_11332_28190">
<rect width="17" height="27" fill="white" transform="translate(59 6)"/>
</clipPath>
</defs>
</svg>
