<svg width="97" height="40" viewBox="0 0 97 40" fill="none" xmlns="http://www.w3.org/2000/svg">
<path d="M46.5603 20.7078V27.484H44.3744V10.7256H50.0577C51.4421 10.7256 52.7537 11.2356 53.7738 12.1828C54.7939 13.0572 55.3039 14.3687 55.3039 15.7531C55.3039 17.1375 54.7939 18.3761 53.7738 19.3234C52.7537 20.2706 51.515 20.7806 50.0577 20.7806L46.5603 20.7078ZM46.5603 12.7657V18.5947H50.2035C51.005 18.5947 51.8065 18.3033 52.3166 17.7204C53.4824 16.6274 53.4823 14.8059 52.3893 13.7129L52.3166 13.6401C51.7337 13.0572 51.005 12.6929 50.2035 12.7657H46.5603Z" fill="black"/>
<path d="M60.3314 15.6802C61.9344 15.6802 63.1731 16.1174 64.1203 16.9917C65.0675 17.8661 65.5046 19.0319 65.5046 20.4891V27.484H63.4644V25.881H63.3917C62.5173 27.1925 61.2786 27.8483 59.8213 27.8483C58.5826 27.8483 57.4897 27.484 56.6154 26.7553C55.8139 26.0267 55.3038 25.0066 55.3038 23.9137C55.3038 22.7479 55.741 21.8007 56.6154 21.0721C57.4897 20.3434 58.7284 20.052 60.1856 20.052C61.4972 20.052 62.5172 20.2706 63.3187 20.7806V20.2706C63.3187 19.5419 63.0273 18.8133 62.4444 18.3761C61.8615 17.8661 61.1329 17.5746 60.3314 17.5746C59.0928 17.5746 58.1455 18.0847 57.4897 19.1048L55.5953 17.939C56.7612 16.4088 58.2913 15.6802 60.3314 15.6802ZM57.5626 23.9866C57.5626 24.5695 57.8541 25.0795 58.2913 25.3709C58.8013 25.7353 59.3842 25.9539 59.9671 25.9539C60.8415 25.9539 61.7157 25.5895 62.3715 24.9338C63.1001 24.278 63.4644 23.4765 63.4644 22.6022C62.8087 22.0921 61.8615 21.8007 60.6228 21.8007C59.7485 21.8007 59.0198 22.0193 58.4369 22.4564C57.854 22.8208 57.5626 23.3308 57.5626 23.9866Z" fill="black"/>
<path d="M77.3084 16.0442L70.095 32.5841H67.9091L70.605 26.8279L65.869 16.1171H68.2006L71.6251 24.3506H71.698L75.0497 16.1171H77.3084V16.0442Z" fill="black"/>
<path d="M37.8896 19.2505C37.8896 18.5947 37.8168 17.939 37.7439 17.2832H28.6361V20.9992H33.8093C33.5907 22.165 32.935 23.2579 31.9149 23.9137V26.3182H35.048C36.8696 24.6423 37.8896 22.165 37.8896 19.2505Z" fill="#4285F4"/>
<path d="M28.636 28.6498C31.2591 28.6498 33.445 27.7754 35.048 26.3182L31.9149 23.9137C31.0405 24.4966 29.9476 24.8609 28.636 24.8609C26.1587 24.8609 23.9728 23.1851 23.2442 20.8535H20.0382V23.3308C21.7141 26.6096 24.9929 28.6498 28.636 28.6498Z" fill="#34A853"/>
<path d="M23.2442 20.8535C22.807 19.6876 22.8071 18.3761 23.2443 17.1375V14.6601H20.0384C18.654 17.3561 18.6538 20.562 20.0382 23.3308L23.2442 20.8535Z" fill="#FBBC04"/>
<path d="M28.6361 13.2029C30.0205 13.2029 31.332 13.713 32.3521 14.6602L35.1209 11.8914C33.3722 10.2884 31.0406 9.34121 28.709 9.41408C25.0658 9.41408 21.7141 11.4542 20.1112 14.7331L23.3171 17.2104C23.9729 14.8788 26.1588 13.2029 28.6361 13.2029Z" fill="#EA4335"/>
</svg>
