<svg width="97" height="40" viewBox="0 0 97 40" fill="none" xmlns="http://www.w3.org/2000/svg">
<path fill-rule="evenodd" clip-rule="evenodd" d="M66.175 26.4172L73.246 19.9749L69.8966 13.3103L66.175 26.4172Z" fill="#097939"/>
<path fill-rule="evenodd" clip-rule="evenodd" d="M63.7926 26.4172L70.8636 19.9749L67.5142 13.3103L63.7926 26.4172Z" fill="#ED752E"/>
<path fill-rule="evenodd" clip-rule="evenodd" d="M29.9995 13.3837L27.0224 23.9729L37.5914 24.0469L40.4944 13.3837H43.1738L39.6931 25.7801C39.5598 26.2535 39.0523 26.6381 38.5601 26.6381H25.013C24.1914 26.6381 23.7046 25.9971 23.9268 25.2081L27.2466 13.3837H29.9995ZM62.6747 13.3097H65.3541L61.6324 26.6381H58.8775L62.6747 13.3097ZM43.472 18.863L56.8695 18.789L57.7632 15.9749H44.1415L44.9601 13.3832L59.4754 13.2501C60.3789 13.2417 60.917 13.9404 60.6791 14.8117L59.3115 19.8038C59.073 20.6746 58.1463 21.3802 57.2428 21.3802H45.2583L43.8453 26.86H41.2385L43.472 18.863Z" fill="black"/>
</svg>
