<svg width="97" height="40" viewBox="0 0 97 40" fill="none" xmlns="http://www.w3.org/2000/svg">
<rect width="97" height="40" rx="6" fill="#F4F4F4"/>
<path d="M76.8156 12.4023H67.417V27.4762H76.8156V12.4023Z" fill="#FF5F00"/>
<path d="M68.3654 19.9392C68.3654 16.8765 69.828 14.16 72.0761 12.4022C70.4239 11.1239 68.3383 10.3516 66.0632 10.3516C60.6732 10.3516 56.3125 14.6394 56.3125 19.9392C56.3125 25.239 60.6732 29.5268 66.0632 29.5268C68.3383 29.5268 70.4239 28.7545 72.0761 27.4761C69.828 25.7184 68.3654 23.0019 68.3654 19.9392Z" fill="#EB001B"/>
<path d="M87.8671 19.9392C87.8671 25.239 83.5064 29.5268 78.1164 29.5268C75.8413 29.5268 73.7557 28.7545 72.1035 27.4761C74.3787 25.7184 75.8142 23.0019 75.8142 19.9392C75.8142 16.8765 74.3516 14.16 72.1035 12.4022C73.7557 11.1239 75.8413 10.3516 78.1164 10.3516C83.5064 10.3516 87.8671 14.6394 87.8671 19.9392Z" fill="#F79E1B"/>
<path d="M30.503 17.6395C30.4791 19.4628 32.17 20.4801 33.4436 21.0861C34.7528 21.7069 35.1921 22.1043 35.1873 22.6597C35.1777 23.5097 34.1438 23.8847 33.1732 23.8996C31.971 23.9258 30.7821 23.6506 29.7204 23.1002L29.1104 25.8744C30.3025 26.3267 31.5718 26.5545 32.8509 26.5458C36.3795 26.5458 38.688 24.8478 38.7014 22.2147C38.7149 18.8728 33.9606 18.6886 33.9932 17.1944C34.0038 16.7418 34.4478 16.2593 35.4184 16.135C36.5548 16.0286 37.6995 16.2241 38.7312 16.7007L39.322 14.0171C38.3167 13.6488 37.2519 13.4588 36.178 13.4561C32.8567 13.4561 30.5193 15.1775 30.5021 17.6404M44.997 13.687C44.3709 13.6833 43.8054 14.0508 43.5679 14.6155L38.5269 26.3485H42.0535L42.7556 24.4578H47.0648L47.4715 26.3485H50.5789L47.8676 13.687H44.9989M45.4919 17.1074L46.5095 21.8622H43.7223L45.4928 17.1074M26.2293 13.687L23.4479 26.3485H26.8047L29.5861 13.687H26.2293ZM21.2583 13.687L17.7614 22.3054L16.3467 14.9783C16.2271 14.2345 15.5691 13.6867 14.7968 13.6879H9.07961L9 14.0554C10.147 14.2779 11.2609 14.6398 12.3156 15.1326C12.7624 15.3425 13.0648 15.7641 13.1136 16.2453L15.7933 26.3495H19.342L24.7858 13.6879H21.2573" fill="#1A1F71"/>
</svg>
