<svg xmlns="http://www.w3.org/2000/svg"
    xmlns:xlink="http://www.w3.org/1999/xlink" viewBox="0 0 300 300" width="300" height="300" preserveAspectRatio="xMidYMid meet" style="width: 100%; height: 100%; transform: translate3d(0px, 0px, 0px); content-visibility: visible;">
    <defs>
        <clipPath id="__lottie_element_170">
            <rect width="300" height="300" x="0" y="0"></rect>
        </clipPath>
    </defs>
    <g clip-path="url(#__lottie_element_170)">
        <g transform="matrix(0.8836671710014343,0,0,0.8836671710014343,112.96177673339844,107.62322998046875)" opacity="1" style="display: block;">
            <g opacity="1" transform="matrix(1,0,0,1,0,0)">
                <path stroke-linecap="round" stroke-linejoin="miter" fill-opacity="0" stroke-miterlimit="4" stroke="rgb(255,255,255)" stroke-opacity="1" stroke-width="10" d=" M-24.04400062561035,24.04400062561035 C-24.04400062561035,24.04400062561035 24.16900062561035,-24.16900062561035 24.16900062561035,-24.16900062561035 M-24.04400062561035,-24.04400062561035 C-24.04400062561035,-24.04400062561035 24.54400062561035,23.91900062561035 24.54400062561035,23.91900062561035"></path>
            </g>
        </g>
        <g transform="matrix(0.8836671710014343,0,0,0.8836671710014343,107.46337890625,187.1503143310547)" opacity="1" style="display: block;">
            <g opacity="1" transform="matrix(1,0,0,1,0,0)">
                <path fill="rgb(255,255,255)" fill-opacity="1" d=" M0,-30 C16.55699920654297,-30 30,-16.55699920654297 30,0 C30,16.55699920654297 16.55699920654297,30 0,30 C-16.55699920654297,30 -30,16.55699920654297 -30,0 C-30,-16.55699920654297 -16.55699920654297,-30 0,-30z"></path>
            </g>
        </g>
        <g transform="matrix(0.8836671710014343,0,0,0.8836671710014343,186.9876708984375,192.30474853515625)" opacity="1" style="display: block;">
            <g opacity="1" transform="matrix(1,0,0,1,0,0)">
                <path fill="rgb(255,255,255)" fill-opacity="1" d=" M0,-29 C0,-29 -29,29 -29,29 C-29,29 29,29 29,29 C29,29 0,-29 0,-29z"></path>
            </g>
        </g>
        <g transform="matrix(0.8836671710014343,0,0,0.8836671710014343,192.23809814453125,113.05167388916016)" opacity="1" style="display: block;">
            <g opacity="1" transform="matrix(1,0,0,1,0,0)">
                <path fill="rgb(255,255,255)" fill-opacity="1" d=" M30,-24 C30,-24 30,24 30,24 C30,27.311399459838867 27.311399459838867,30 24,30 C24,30 -24,30 -24,30 C-27.311399459838867,30 -30,27.311399459838867 -30,24 C-30,24 -30,-24 -30,-24 C-30,-27.311399459838867 -27.311399459838867,-30 -24,-30 C-24,-30 24,-30 24,-30 C27.311399459838867,-30 30,-27.311399459838867 30,-24z"></path>
            </g>
        </g>
    </g>
</svg>