<svg xmlns="http://www.w3.org/2000/svg" version="1.1" width="599" height="548">
    <path d="M0 0 C2.56799841 0.63991389 5.13586324 1.28035563 7.70365429 1.92110062 C8.78874852 2.19140632 8.78874852 2.19140632 9.89576384 2.46717274 C14.82837941 3.69859421 19.74384164 4.97645699 24.63989258 6.34667969 C25.73414047 6.65014816 25.73414047 6.65014816 26.85049438 6.95974731 C29.19909367 7.61169988 31.5468435 8.2666483 33.89453125 8.921875 C35.57814794 9.39035709 37.26179844 9.85871767 38.94548035 10.32696533 C42.45614507 11.30383909 45.9663838 12.28222484 49.47631836 13.26171875 C53.88783835 14.49267644 58.30043402 15.7197263 62.71333313 16.94572926 C78.61159436 21.3640864 94.50508946 25.79630531 110.33203125 30.46484375 C111.37422318 30.77117737 112.4164151 31.07751099 113.4901886 31.39312744 C150.9731105 42.55868973 187.51031214 61.73102221 207.04589844 97.17529297 C223.88863173 129.3868049 223.66670303 169.1098316 213.79785156 203.48828125 C208.91493127 218.86021638 200.51727527 233.07166663 186 241 C182.39376873 242.56813514 178.76856041 243.88026799 175 245 C174.10474609 245.28810547 174.10474609 245.28810547 173.19140625 245.58203125 C157.82965654 248.51199064 142.38225937 244.63834762 128.21557617 238.90869141 C127.52067833 238.62911087 126.82578049 238.34953033 126.10982513 238.06147766 C124.4059812 237.37573024 122.70291219 236.68805794 121 236 C120.99761165 235.25069749 120.99522329 234.50139498 120.99276257 233.72938633 C120.93355921 215.47518138 120.85797501 197.22111102 120.76428509 178.9670496 C120.71936953 170.13942218 120.67994512 161.31183473 120.65356445 152.48413086 C120.63054999 144.78755832 120.59711355 137.09111268 120.55129844 129.39464086 C120.52741261 125.32153198 120.5086535 121.24854843 120.50238609 117.17537117 C120.49631414 113.33642809 120.47623877 109.49780549 120.44572449 105.65898132 C120.43697792 104.25502185 120.43321463 102.85102043 120.43499184 101.44703484 C120.44270622 92.53544152 120.30585551 84.05829409 114.75 76.6875 C109.87936576 71.92756199 105.00531312 69.12509488 98 69 C94.18634818 69.82486957 94.18634818 69.82486957 91 72 C87.98484678 77.48050259 87.5595285 82.06217169 87.57655334 88.2386322 C87.56725408 89.14928167 87.55795482 90.05993113 87.54837376 90.99817604 C87.52089915 94.04174367 87.51449246 97.08498275 87.50805664 100.12866211 C87.492703 102.31667288 87.47606493 104.50467496 87.45824242 106.69266701 C87.41345122 112.65573936 87.38710301 118.61876929 87.36402774 124.58195996 C87.33638895 130.92612026 87.29199937 137.27016569 87.24977112 143.61424255 C87.17221476 155.68721576 87.11054304 167.76019853 87.05600387 179.83329266 C87.01426439 189.06249187 86.96785387 198.29165494 86.91766357 207.52081299 C86.74681941 239.05762333 86.60585716 270.59448887 86.48258841 302.13151872 C86.43157379 315.15904265 86.37730981 328.18655261 86.32291877 341.21406281 C86.21194641 367.80936213 86.1045961 394.40467489 86 421 C81.12366751 419.37550227 76.24741549 417.75076328 71.37123203 416.12581825 C69.71875299 415.57517964 68.06625347 415.02460247 66.41373158 414.47409248 C53.38867559 410.13494449 40.3686363 405.78176412 27.3684082 401.36865234 C25.35603313 400.68640607 23.34297419 400.00617464 21.3293457 399.32763672 C18.32098639 398.31377368 15.31458491 397.29429703 12.30859375 396.2734375 C11.40894394 395.97142426 10.50929413 395.66941101 9.5823822 395.35824585 C8.75783035 395.07679718 7.9332785 394.79534851 7.08374023 394.50537109 C6.36403549 394.26176849 5.64433075 394.01816589 4.90281677 393.7671814 C3 393 3 393 0 391 C-0.37259549 388.24449956 -0.37259549 388.24449956 -0.36914349 384.64751244 C-0.37260502 383.98505064 -0.37606655 383.32258884 -0.37963298 382.64005244 C-0.3876359 380.39835259 -0.37406444 378.1572865 -0.36076355 375.9156189 C-0.36207058 374.3010943 -0.36469511 372.68657031 -0.36853105 371.07204974 C-0.37526814 366.61847239 -0.36319931 362.16510974 -0.34819686 357.71155977 C-0.33528698 352.9153673 -0.33962237 348.11918774 -0.34190369 343.32298279 C-0.34347963 335.00760383 -0.33403697 326.69229529 -0.31719017 318.37693405 C-0.29284811 306.35420784 -0.28499982 294.33151581 -0.2812262 282.30876763 C-0.27465417 262.80445858 -0.25467266 243.30018709 -0.22631836 223.79589844 C-0.19879721 204.845054 -0.17755412 185.89421975 -0.16479492 166.94335938 C-0.16400675 165.77596955 -0.16321858 164.60857973 -0.16240653 163.40581445 C-0.15849152 157.54958393 -0.15470037 151.69335333 -0.15097082 145.83712268 C-0.11985153 97.22472249 -0.06699532 48.61236307 0 0 Z " fill="#FFFFFF" transform="translate(216,0)"/>
    <path d="M0 0 C0.97066406 0.43699219 1.94132813 0.87398438 2.94140625 1.32421875 C14.913064 7.26747416 24.61526551 16.17741509 29 29 C29.9882937 34.92976222 28.34061002 39.16789047 25 44 C16.18178758 54.83430473 4.51191861 61.29936504 -8.1796875 66.61328125 C-9.38876518 67.11999611 -9.38876518 67.11999611 -10.62226868 67.63694763 C-22.30473962 72.44946727 -34.23939225 76.60395805 -46.14144135 80.83441544 C-49.64475324 82.08105971 -53.14577469 83.33410363 -56.64697266 84.58666992 C-61.7635595 86.41664441 -66.88073077 88.24496551 -71.99869919 90.07107258 C-84.62155735 94.57523794 -97.23404787 99.10812399 -109.84547806 103.64416885 C-114.51263144 105.32281892 -119.18025839 107.0001465 -123.84814453 108.67675781 C-136.53134949 113.23269709 -149.21178593 117.79608616 -161.88671875 122.375 C-165.34984466 123.6251928 -168.81301356 124.87526647 -172.27618408 126.12533569 C-175.47299438 127.28016657 -178.66888642 128.43751225 -181.86474609 129.5949707 C-183.78608945 130.28869433 -185.70747366 130.98230482 -187.62890625 131.67578125 C-188.91011604 132.14123352 -188.91011604 132.14123352 -190.21720886 132.61608887 C-191.0137941 132.90302612 -191.81037933 133.18996338 -192.63110352 133.4855957 C-193.65059837 133.8545269 -193.65059837 133.8545269 -194.69068909 134.23091125 C-197.76229814 135.2538744 -200.88709153 136.11059758 -204 137 C-204 119.84 -204 102.68 -204 85 C-190.50106055 79.37544189 -190.50106055 79.37544189 -185.63208008 77.60668945 C-184.52809875 77.20404877 -183.42411743 76.80140808 -182.28668213 76.38656616 C-181.12602234 75.96638214 -179.96536255 75.54619812 -178.76953125 75.11328125 C-177.50729084 74.65395606 -176.2451475 74.19436405 -174.98309326 73.73452759 C-172.3108301 72.76140721 -169.63798207 71.78991895 -166.96463013 70.8197937 C-162.76108944 69.2943004 -158.5589784 67.76489766 -154.35717773 66.23461914 C-153.65276582 65.97808658 -152.9483539 65.72155401 -152.22259617 65.45724773 C-150.79561006 64.93756568 -149.3686275 64.41787389 -147.94164848 63.89817238 C-145.7940434 63.11615642 -143.64631233 62.33448735 -141.49855042 61.55290222 C-128.17782657 56.70478397 -114.8681426 51.8268621 -101.5625 46.9375 C-99.5863445 46.21199516 -97.61018891 45.4864906 -95.6340332 44.76098633 C-90.42070491 42.84601464 -85.20977005 40.92462801 -80 39 C-79.21281586 38.70983002 -78.42563171 38.41966003 -77.61459351 38.12069702 C-75.40344234 37.30469395 -73.19368526 36.48503466 -70.984375 35.6640625 C-69.75557617 35.20854004 -68.52677734 34.75301758 -67.26074219 34.28369141 C-61.71227999 32.09936869 -56.67474312 30.06880033 -52.875 25.375 C-51.68439886 22.90564502 -51.68439886 22.90564502 -53 20 C-60.76493011 16.11753494 -67.56500455 15.81797166 -76.0625 15.8125 C-77.52333008 15.79413086 -77.52333008 15.79413086 -79.01367188 15.77539062 C-94.445341 15.74483286 -108.15052883 20.29747665 -122.6875 25 C-123.76405853 25.34515656 -124.84061707 25.69031311 -125.94979858 26.04592896 C-145.38392054 32.2866303 -164.56533029 39.14790991 -183.67260742 46.32226562 C-184.66690765 46.69485001 -185.66120789 47.06743439 -186.68563843 47.4513092 C-188.53849905 48.14717051 -190.38994443 48.84681702 -192.23965454 49.55101013 C-193.060737 49.86022903 -193.88181946 50.16944794 -194.7277832 50.48803711 C-195.43634964 50.75732529 -196.14491608 51.02661346 -196.87495422 51.30406189 C-199 52 -199 52 -204 53 C-204 35.18 -204 17.36 -204 -1 C-181.84021739 -9.16413043 -181.84021739 -9.16413043 -173.3125 -11.1875 C-172.31831055 -11.42887695 -171.32412109 -11.67025391 -170.29980469 -11.91894531 C-114.85055587 -25.00169299 -52.59057792 -23.70015343 0 0 Z " fill="#FFFFFF" transform="translate(522,278)"/>
    <path d="M0 0 C0 17.16 0 34.32 0 52 C-4.67929688 53.76085937 -9.35859375 55.52171875 -14.1796875 57.3359375 C-17.20576757 58.47515864 -20.23182638 59.61443566 -23.2578125 60.75390625 C-28.02454099 62.54886801 -32.79133249 64.34366065 -37.55859375 66.13720703 C-53.01076213 71.95095579 -68.46152673 77.76878087 -83.8828125 83.6640625 C-85.45879715 84.26303848 -85.45879715 84.26303848 -87.06661987 84.87411499 C-94.22646096 87.5294526 -94.22646096 87.5294526 -101 91 C-101.97474816 94.08961458 -101.97474816 94.08961458 -102 97 C-90.41964423 105.15888702 -72.70785801 103.8728334 -59 102 C-47.27694826 99.62376239 -36.00869798 95.05886025 -24.89477539 90.73138428 C-21.23106152 89.31718884 -17.53492882 87.99156695 -13.84326172 86.65258789 C-11.58221809 85.825775 -9.33388589 84.97097036 -7.0859375 84.109375 C-4 83 -4 83 -2 83 C-2 98.51 -2 114.02 -2 130 C-9.88645979 131.81995226 -17.46847847 133.542494 -25.4375 134.625 C-26.34000488 134.74979736 -27.24250977 134.87459473 -28.17236328 135.00317383 C-71.88337026 140.87730327 -135.56110929 134.50410033 -172.80078125 108.78125 C-179.05805666 103.71319034 -184.11279138 97.89146399 -185.34765625 89.69140625 C-185.76879741 82.76957327 -183.85567318 77.68589431 -180 72 C-174.23985784 65.8509812 -167.65504216 61.76219425 -160.1875 58 C-159.29869141 57.53078125 -158.40988281 57.0615625 -157.49414062 56.578125 C-140.30255463 47.73877463 -121.73739159 41.64376832 -103.5625 35.1875 C-101.26450728 34.3679901 -98.96665869 33.54807598 -96.66894531 32.7277832 C-91.88481392 31.02013764 -87.10006838 29.31422859 -82.31494141 27.609375 C-74.99179743 24.99882056 -67.67304777 22.37610741 -60.35546875 19.75 C-59.16607193 19.32318436 -57.97667511 18.89636871 -56.75123596 18.45661926 C-53.25078557 17.20035316 -49.75038941 15.94393603 -46.25 14.6875 C-40.00073931 12.44449021 -33.75111654 10.20258642 -27.49804688 7.97021484 C-23.95687042 6.70518896 -20.42222357 5.42427296 -16.89257812 4.12744141 C-16.11025818 3.84310745 -15.32793823 3.5587735 -14.52191162 3.26582336 C-13.09497204 2.7471364 -11.67014611 2.22257505 -10.24810791 1.69059753 C-6.48288768 0.33150777 -4.13493915 0 0 0 Z " fill="#FFFFFF" transform="translate(200,238)"/>
    <path d="M0 0 C42 0 42 0 49 4 C55.5573393 10.70636974 57.87499583 18.0080501 58.25 27.1875 C58.11114395 35.43554966 55.85542977 42.59863132 50.98828125 49.24609375 C44.70894505 54.78523315 38.64528757 55.5578161 30.5 55.25 C29.5821875 55.23195313 28.664375 55.21390625 27.71875 55.1953125 C25.47803908 55.14863102 23.23960201 55.08318522 21 55 C20.97311849 53.35425434 20.95365877 51.70838587 20.9375 50.0625 C20.92589844 49.14597656 20.91429688 48.22945313 20.90234375 47.28515625 C21 45 21 45 22 44 C25.55905069 43.79519529 29.11638814 43.68031288 32.6796875 43.57421875 C36.02029021 43.31344576 36.02029021 43.31344576 37.8828125 41.20703125 C40.20909159 36.61140998 40.21265276 32.21356151 40.25 27.125 C40.270625 26.43019531 40.29125 25.73539062 40.3125 25.01953125 C40.34835893 20.25925891 39.70641205 16.94194799 37 13 C30.57633574 10.07152331 30.57633574 10.07152331 17 11 C16.67 36.08 16.34 61.16 16 87 C10.72 87 5.44 87 0 87 C0 58.29 0 29.58 0 0 Z " fill="#FFFFFF" transform="translate(0,429)"/>
    <path d="M0 0 C1.28132813 -0.00128906 2.56265625 -0.00257813 3.8828125 -0.00390625 C4.86701172 -0.00076416 4.86701172 -0.00076416 5.87109375 0.00244141 C7.89851163 0.00785442 9.9257134 0.00244468 11.953125 -0.00390625 C13.22671875 -0.00261719 14.5003125 -0.00132812 15.8125 0 C16.97765137 0.00112793 18.14280273 0.00225586 19.34326172 0.00341797 C22.0078125 0.1328125 22.0078125 0.1328125 23.0078125 1.1328125 C23.10194937 3.18837911 23.12524248 5.24721431 23.12133789 7.30493164 C23.12148392 7.94881332 23.12162994 8.59269501 23.1217804 9.25608826 C23.12108135 11.39341553 23.11328941 13.53065663 23.10546875 15.66796875 C23.10360454 17.14627535 23.10218065 18.62458257 23.10118103 20.10289001 C23.09735609 24.00080052 23.08752602 27.89867399 23.07647705 31.79656982 C23.06626242 35.77127583 23.0616833 39.74598779 23.05664062 43.72070312 C23.04590372 51.52475846 23.02830712 59.32877558 23.0078125 67.1328125 C17.3978125 67.1328125 11.7878125 67.1328125 6.0078125 67.1328125 C6.0078125 48.6528125 6.0078125 30.1728125 6.0078125 11.1328125 C-7.92603718 10.40815757 -7.92603718 10.40815757 -11.9921875 15.1328125 C-14.3403997 19.45803012 -14.25256215 23.69549086 -14.1875 28.49609375 C-14.18325516 29.68406807 -14.18325516 29.68406807 -14.17892456 30.89604187 C-14.16777613 33.41262249 -14.14268172 35.92884039 -14.1171875 38.4453125 C-14.10715079 40.15689588 -14.09802614 41.86848487 -14.08984375 43.58007812 C-14.06785431 47.76446156 -14.03336158 51.94857564 -13.9921875 56.1328125 C-9.0421875 56.4628125 -4.0921875 56.7928125 1.0078125 57.1328125 C1.0078125 60.4328125 1.0078125 63.7328125 1.0078125 67.1328125 C-2.18061455 67.24140604 -5.36529477 67.32040649 -8.5546875 67.3828125 C-9.44994141 67.41632813 -10.34519531 67.44984375 -11.26757812 67.484375 C-17.4388597 67.57479671 -20.94127201 66.72647953 -25.9921875 63.1328125 C-32.0948736 57.0301264 -32.26165915 50.00996378 -32.31445312 41.8125 C-32.31123047 40.68070312 -32.30800781 39.54890625 -32.3046875 38.3828125 C-32.32080078 37.26648438 -32.33691406 36.15015625 -32.35351562 35 C-32.35912217 25.37917291 -31.35512951 15.76834291 -24.9921875 8.1328125 C-17.69261095 0.91389425 -9.97124182 0.00959696 0 0 Z " fill="#FFFFFF" transform="translate(351.9921875,448.8671875)"/>
    <path d="M0 0 C1.28132813 -0.00128906 2.56265625 -0.00257813 3.8828125 -0.00390625 C4.86701172 -0.00076416 4.86701172 -0.00076416 5.87109375 0.00244141 C7.89851163 0.00785442 9.9257134 0.00244468 11.953125 -0.00390625 C13.22671875 -0.00261719 14.5003125 -0.00132812 15.8125 0 C16.97765137 0.00112793 18.14280273 0.00225586 19.34326172 0.00341797 C22.0078125 0.1328125 22.0078125 0.1328125 23.0078125 1.1328125 C23.10194937 3.18837911 23.12524248 5.24721431 23.12133789 7.30493164 C23.12148392 7.94881332 23.12162994 8.59269501 23.1217804 9.25608826 C23.12108135 11.39341553 23.11328941 13.53065663 23.10546875 15.66796875 C23.10360454 17.14627535 23.10218065 18.62458257 23.10118103 20.10289001 C23.09735609 24.00080052 23.08752602 27.89867399 23.07647705 31.79656982 C23.06626242 35.77127583 23.0616833 39.74598779 23.05664062 43.72070312 C23.04590372 51.52475846 23.02830712 59.32877558 23.0078125 67.1328125 C17.3978125 67.1328125 11.7878125 67.1328125 6.0078125 67.1328125 C6.0078125 48.6528125 6.0078125 30.1728125 6.0078125 11.1328125 C-8.1612174 10.42383626 -8.1612174 10.42383626 -12.9921875 16.1328125 C-16.660582 28.47038458 -15.78979075 43.54958973 -13.9921875 56.1328125 C-9.0421875 56.4628125 -4.0921875 56.7928125 1.0078125 57.1328125 C1.0078125 60.4328125 1.0078125 63.7328125 1.0078125 67.1328125 C-2.20103534 67.21408726 -5.40780511 67.27344391 -8.6171875 67.3203125 C-9.52082031 67.34544922 -10.42445312 67.37058594 -11.35546875 67.39648438 C-16.66549182 67.45462331 -20.45216038 67.21032706 -24.9921875 64.1328125 C-26.85546875 62.23046875 -26.85546875 62.23046875 -28.3046875 60.1953125 C-29.04138672 59.19177734 -29.04138672 59.19177734 -29.79296875 58.16796875 C-33.24054481 52.31719635 -32.21529848 45.0620101 -32.2421875 38.5078125 C-32.2628125 37.27417969 -32.2834375 36.04054688 -32.3046875 34.76953125 C-32.34665971 24.89556863 -31.41369931 16.02209844 -24.9921875 8.1328125 C-17.70587667 0.90688547 -9.9609121 0.00958702 0 0 Z " fill="#FFFFFF" transform="translate(123.9921875,448.8671875)"/>
    <path d="M0 0 C5.28 0 10.56 0 16 0 C19.76975269 7.94372128 22.47868405 16.15482787 25.1875 24.5 C25.8614974 26.5698429 26.53687573 28.63919683 27.21589661 30.70739746 C27.8246334 32.56229102 28.42844029 34.41880033 29.03198242 36.27539062 C29.73814743 38.88133887 29.73814743 38.88133887 31 40 C31.4439209 38.85934082 31.8878418 37.71868164 32.34521484 36.54345703 C33.99111877 32.31839307 35.64391648 28.09605469 37.29882812 23.87451172 C38.01458541 22.0458233 38.72846231 20.21639775 39.44042969 18.38623047 C40.46317862 15.75813607 41.49262532 13.13275296 42.5234375 10.5078125 C42.84122162 9.68693146 43.15900574 8.86605042 43.48641968 8.02029419 C43.7865799 7.25965668 44.08674011 6.49901917 44.39599609 5.71533203 C44.65802826 5.04470734 44.92006042 4.37408264 45.19003296 3.68313599 C46 2 46 2 48 0 C51.2578125 -0.1953125 51.2578125 -0.1953125 55.125 -0.125 C57.04699219 -0.09792969 57.04699219 -0.09792969 59.0078125 -0.0703125 C60.48894531 -0.03550781 60.48894531 -0.03550781 62 0 C61.3661603 5.47471243 59.53553574 10.15164452 57.48999023 15.21826172 C57.1289621 16.12621994 56.76793396 17.03417816 56.39596558 17.96965027 C55.20584051 20.95862429 54.00727726 23.94413661 52.80859375 26.9296875 C51.97995121 29.00598657 51.15183856 31.08249718 50.32423401 33.15921021 C48.1479586 38.61601644 45.9645048 44.06992234 43.77954102 49.52325439 C41.54985455 55.09189329 39.32697265 60.66324658 37.10351562 66.234375 C32.74233052 77.15891655 28.37355667 88.080406 24 99 C19.05 99 14.1 99 9 99 C10.54005115 94.20439769 12.16314077 89.50295933 14.078125 84.84375 C14.61179688 83.52697266 14.61179688 83.52697266 15.15625 82.18359375 C15.88766283 80.38902012 16.63257829 78.59989285 17.390625 76.81640625 C17.9165625 75.49962891 17.9165625 75.49962891 18.453125 74.15625 C18.93507324 72.99319336 18.93507324 72.99319336 19.42675781 71.80664062 C21.17499052 63.24715034 17.5508857 54.97924659 14.74609375 47.01171875 C14.10398715 45.14677029 13.46188692 43.28181961 12.8201685 41.41673756 C11.92694844 38.82776075 11.02542902 36.24170893 10.12365723 33.65570068 C8.53873275 29.10944028 6.95997285 24.56107493 5.39186096 20.00898743 C4.557848 17.59064928 3.71782112 15.17437508 2.87120056 12.76042175 C2.49403397 11.66861099 2.11686737 10.57680023 1.72827148 9.4519043 C1.39375473 8.4930986 1.05923798 7.53429291 0.71458435 6.5464325 C0 4 0 4 0 0 Z " fill="#FFFFFF" transform="translate(154,449)"/>
    <path d="M0 0 C39.5755102 0 39.5755102 0 48 8 C51.83379027 13.78719769 54.13306284 19.62962758 54.11352539 26.58496094 C54.11344986 27.48559265 54.11337433 28.38622437 54.11329651 29.31414795 C54.10813522 30.27782288 54.10297394 31.2414978 54.09765625 32.234375 C54.0962413 33.22753723 54.09482635 34.22069946 54.09336853 35.24395752 C54.08777588 38.41266912 54.0752247 41.58130979 54.0625 44.75 C54.05748405 46.89973856 54.05292131 49.04947823 54.04882812 51.19921875 C54.03780885 56.46617312 54.02054923 61.73307454 54 67 C48.72 67 43.44 67 38 67 C37.970271 65.16223999 37.970271 65.16223999 37.93994141 63.28735352 C37.86342237 58.7080556 37.77477902 54.12905641 37.68261719 49.55004883 C37.64451765 47.57452323 37.60963287 45.59893274 37.578125 43.62329102 C37.53205841 40.77076142 37.47413583 37.91867125 37.4140625 35.06640625 C37.40251129 34.19415909 37.39096008 33.32191193 37.37905884 32.42323303 C37.18371405 24.16305937 37.01912055 18.01912055 31 12 C26.05 11.67 21.1 11.34 16 11 C16 29.48 16 47.96 16 67 C10.72 67 5.44 67 0 67 C0 44.89 0 22.78 0 0 Z " fill="#FFFFFF" transform="translate(518,449)"/>
    <path d="M0 0 C6.1358417 5.96684606 9.02936579 13.63644728 9.3984375 22.12109375 C9.40628459 23.89322901 9.39833283 25.66550097 9.375 27.4375 C9.38660156 28.31470703 9.39820313 29.19191406 9.41015625 30.09570312 C9.36955933 39.27737316 7.44750949 48.15066272 1 55 C-7.25936308 61.64340074 -16.81056309 61.8730761 -27 61 C-32.61065962 59.59189138 -38.0412474 57.29807425 -42 53 C-47.05916636 44.51040175 -48.19513141 37.5448153 -48.25 27.8125 C-48.270625 26.91724609 -48.29125 26.02199219 -48.3125 25.09960938 C-48.36681962 15.69552451 -46.64333895 7.61512216 -40.02734375 0.69140625 C-29.0389069 -8.47621062 -11.37168072 -8.30215096 0 0 Z M-29 9 C-31.89812124 14.90077116 -31.32958269 20.93824092 -31.3125 27.375 C-31.32861328 28.5815625 -31.34472656 29.788125 -31.36132812 31.03125 C-31.36483311 37.41032274 -31.29894862 42.44963621 -28 48 C-24.64689195 50.49533622 -22.0374827 51.24754613 -17.9375 51 C-13.72205351 50.26512331 -11.61610288 48.40886132 -9 45 C-7.11209685 39.52328572 -7.77400003 33.33700742 -7.75 27.625 C-7.729375 26.40554688 -7.70875 25.18609375 -7.6875 23.9296875 C-7.68234375 22.74890625 -7.6771875 21.568125 -7.671875 20.3515625 C-7.6625293 19.27729004 -7.65318359 18.20301758 -7.64355469 17.09619141 C-8.1451793 12.73892885 -9.75963162 9.43119429 -12.625 6.125 C-18.55584735 3.31565126 -24.58414058 4.04888489 -29 9 Z " fill="#FFFFFF" transform="translate(500,455)"/>
    <path d="M0 0 C1.40427127 0.02010503 2.80857048 0.0383487 4.21289062 0.0546875 C7.62181781 0.10154561 11.02928957 0.16714495 14.4375 0.25 C14.46438151 1.89574566 14.48384123 3.54161413 14.5 5.1875 C14.51160156 6.10402344 14.52320313 7.02054687 14.53515625 7.96484375 C14.4375 10.25 14.4375 10.25 13.4375 11.25 C11.95659023 11.30057496 10.47332435 11.28560658 8.9921875 11.2421875 C8.07953125 11.22542969 7.166875 11.20867187 6.2265625 11.19140625 C4.30708343 11.14766477 2.38776991 11.09578463 0.46875 11.03515625 C-5.35824817 10.94538457 -9.44025057 11.38291542 -14.5625 14.25 C-17.13855809 18.1700884 -17.09813379 22.68818555 -16.5625 27.25 C-15.83676861 30.70204093 -15.83676861 30.70204093 -13.5625 33.25 C-9.75269765 34.83741764 -5.66005672 35.13621131 -1.5859375 35.55859375 C4.79145335 36.34164047 9.20500151 37.43223069 13.8125 42.078125 C19.40073162 49.5470115 20.41986775 58.17825833 19.4375 67.25 C18.27116697 73.99738119 15.97138332 79.93951651 10.4375 84.25 C5.34040887 86.81746499 1.26791102 87.67241955 -4.46484375 87.54296875 C-5.1874086 87.53872391 -5.90997345 87.53447906 -6.6544342 87.53010559 C-8.93668693 87.51346418 -11.21801933 87.47584248 -13.5 87.4375 C-15.05792985 87.42243423 -16.6158737 87.40874916 -18.17382812 87.39648438 C-21.97040057 87.36360882 -25.76629487 87.3119309 -29.5625 87.25 C-29.5625 83.95 -29.5625 80.65 -29.5625 77.25 C-28.86165283 77.23541748 -28.16080566 77.22083496 -27.4387207 77.20581055 C-24.25026991 77.13114513 -21.06284487 77.03454525 -17.875 76.9375 C-16.77220703 76.91494141 -15.66941406 76.89238281 -14.53320312 76.86914062 C-13.46650391 76.83369141 -12.39980469 76.79824219 -11.30078125 76.76171875 C-10.32149658 76.73553467 -9.34221191 76.70935059 -8.33325195 76.68237305 C-5.09386561 76.17687008 -3.19963577 75.17636192 -0.5625 73.25 C1.88253999 69.58244001 1.70581152 67.67521863 1.6875 63.3125 C1.69265625 62.08660156 1.6978125 60.86070312 1.703125 59.59765625 C1.40217538 55.58882412 1.40217538 55.58882412 -0.5625 52.25 C-4.38567386 50.16463244 -8.21313348 49.83114866 -12.5 49.375 C-20.05817017 48.34936104 -24.65940192 46.20011691 -29.4609375 40.08203125 C-33.32966445 33.64787189 -34.51757594 26.15272315 -33.09375 18.84375 C-31.37679281 12.05768111 -28.71943536 7.03056265 -22.8112793 3.07861328 C-15.48048432 -0.64127654 -7.99973085 -0.20039501 0 0 Z " fill="#FFFFFF" transform="translate(253.5625,428.75)"/>
    <path d="M0 0 C0.70253906 0.00386719 1.40507812 0.00773437 2.12890625 0.01171875 C2.83144531 0.00785156 3.53398437 0.00398438 4.2578125 0 C9.50229247 0.01010497 9.50229247 0.01010497 10.62890625 1.13671875 C10.77147814 4.47290106 10.67118782 7.79647481 10.62890625 11.13671875 C15.90890625 11.13671875 21.18890625 11.13671875 26.62890625 11.13671875 C26.62890625 14.76671875 26.62890625 18.39671875 26.62890625 22.13671875 C21.34890625 22.13671875 16.06890625 22.13671875 10.62890625 22.13671875 C10.72228006 28.22423563 10.82833718 34.31134715 10.94628906 40.3984375 C10.9846331 42.47031556 11.0194763 44.54226144 11.05078125 46.61425781 C11.09631434 49.58813762 11.15432743 52.56154837 11.21484375 55.53515625 C11.22639496 56.46540619 11.23794617 57.39565613 11.24984741 58.35409546 C11.2697171 59.21483673 11.28958679 60.075578 11.31005859 60.96240234 C11.32338226 61.7218515 11.33670593 62.48130066 11.35043335 63.26376343 C11.47507677 65.37984135 11.47507677 65.37984135 13.62890625 67.13671875 C15.83141617 67.59678221 15.83141617 67.59678221 18.25390625 67.76171875 C19.69765625 67.88546875 21.14140625 68.00921875 22.62890625 68.13671875 C22.62890625 71.43671875 22.62890625 74.73671875 22.62890625 78.13671875 C20.25320082 78.21832695 17.88034784 78.27749097 15.50390625 78.32421875 C14.83875 78.34935547 14.17359375 78.37449219 13.48828125 78.40039062 C7.89002557 78.48271791 4.04203728 77.21984896 -0.19921875 73.55859375 C-0.6684375 73.006875 -1.13765625 72.45515625 -1.62109375 71.88671875 C-2.100625 71.3453125 -2.58015625 70.80390625 -3.07421875 70.24609375 C-7.38081004 63.24139707 -6.64634095 55.29731907 -6.6015625 47.36328125 C-6.60110428 46.04379486 -6.60064606 44.72430847 -6.60017395 43.36483765 C-6.59861725 40.58610694 -6.59038514 37.80750655 -6.5769043 35.02880859 C-6.55981593 31.46092083 -6.55609321 27.89317454 -6.55684948 24.32525063 C-6.55651323 20.92124172 -6.54768659 17.51727968 -6.5390625 14.11328125 C-6.53794968 12.82797516 -6.53683685 11.54266907 -6.53569031 10.21841431 C-6.52931046 9.03983856 -6.5229306 7.86126282 -6.51635742 6.64697266 C-6.51254562 5.60441315 -6.50873383 4.56185364 -6.50480652 3.48770142 C-6.25226569 -0.95255602 -3.89417404 0.00750323 0 0 Z " fill="#FFFFFF" transform="translate(288.37109375,437.86328125)"/>
    <path d="M0 0 C1.39456452 0.00667256 2.78911118 0.01863093 4.18359375 0.03515625 C4.89451172 0.03966797 5.60542969 0.04417969 6.33789062 0.04882812 C8.09899388 0.06064761 9.86005411 0.07858362 11.62109375 0.09765625 C11.62109375 3.72765625 11.62109375 7.35765625 11.62109375 11.09765625 C12.76449219 11.08605469 13.90789062 11.07445312 15.0859375 11.0625 C16.57682129 11.05312337 18.06770684 11.04402304 19.55859375 11.03515625 C20.69071289 11.02258789 20.69071289 11.02258789 21.84570312 11.00976562 C23.77103688 11.00113184 25.69644956 11.04541292 27.62109375 11.09765625 C28.62109375 12.09765625 28.62109375 12.09765625 28.71875 14.3828125 C28.68619792 16.95442708 28.65364583 19.52604167 28.62109375 22.09765625 C23.01109375 22.09765625 17.40109375 22.09765625 11.62109375 22.09765625 C11.73927906 27.88189621 11.86352315 33.66596208 11.9934082 39.44995117 C12.03674616 41.41801404 12.07842207 43.38611423 12.1184082 45.35424805 C12.1761382 48.18159235 12.23982491 51.00874896 12.3046875 53.8359375 C12.32139999 54.71727859 12.33811249 55.59861969 12.35533142 56.50666809 C12.37527664 57.32729233 12.39522186 58.14791656 12.41577148 58.9934082 C12.43908791 60.07595634 12.43908791 60.07595634 12.46287537 61.18037415 C12.56304632 63.31873769 12.56304632 63.31873769 13.62109375 66.09765625 C15.91739369 67.24580622 17.69807461 67.40535434 20.24609375 67.66015625 C21.68984375 67.80453125 23.13359375 67.94890625 24.62109375 68.09765625 C24.62109375 71.39765625 24.62109375 74.69765625 24.62109375 78.09765625 C7.26960478 78.84754053 7.26960478 78.84754053 1.62109375 74.09765625 C-3.13803651 69.08127571 -4.63065827 64.61178332 -4.62182617 57.76269531 C-4.6249028 56.50499329 -4.62797943 55.24729126 -4.63114929 53.95147705 C-4.62425368 52.58874323 -4.61698687 51.22601125 -4.609375 49.86328125 C-4.60818218 48.46034792 -4.60773025 47.05741379 -4.60798645 45.65447998 C-4.60642607 42.7225643 -4.59816733 39.79077151 -4.5847168 36.85888672 C-4.56766473 33.09364674 -4.56390448 29.32854083 -4.56466198 25.56326675 C-4.56439074 22.6706005 -4.55891795 19.77796377 -4.55166054 16.88530731 C-4.54847145 15.49617486 -4.5465059 14.10703905 -4.54576683 12.71790314 C-4.54360938 10.78360292 -4.53408114 8.84931509 -4.52416992 6.91503906 C-4.52035812 5.81315247 -4.51654633 4.71126587 -4.51261902 3.57598877 C-4.30587997 -0.25586754 -3.96006015 0.11445261 0 0 Z " fill="#FFFFFF" transform="translate(390.37890625,437.90234375)"/>
    <path d="M0 0 C5.28 0 10.56 0 16 0 C16 28.71 16 57.42 16 87 C10.72 87 5.44 87 0 87 C0 58.29 0 29.58 0 0 Z " fill="#FFFFFF" transform="translate(66,429)"/>
    <path d="M0 0 C5.28 0 10.56 0 16 0 C16 22.11 16 44.22 16 67 C10.72 67 5.44 67 0 67 C0 44.89 0 22.78 0 0 Z " fill="#FFFFFF" transform="translate(427,449)"/>
    <path d="M0 0 C5.28 0 10.56 0 16 0 C16 4.62 16 9.24 16 14 C10.72 14 5.44 14 0 14 C0 9.38 0 4.76 0 0 Z " fill="#FFFFFF" transform="translate(427,429)"/>
    <path d="M0 0 C2.91963173 1.98783437 4.61102978 3.4314697 5.48046875 6.9375 C5.75815509 10.90015906 5.23092162 12.66411401 2.9375 16 C-0.76272533 18.51930235 -2.6031656 18.7066341 -7 18 C-9.875 16.4375 -9.875 16.4375 -12 14 C-13.14888518 10.05070721 -13.43129396 7.97041141 -11.75 4.1875 C-8.25986481 -0.17516899 -5.39027785 -0.65055077 0 0 Z M-8 4 C-5.36 4 -2.72 4 0 4 C-0.33 3.34 -0.66 2.68 -1 2 C-4.95457848 1.65176193 -4.95457848 1.65176193 -8 4 Z M-9 4 C-10.36952673 6.73905345 -10.12621361 8.97087332 -10 12 C-9.67 12.66 -9.34 13.32 -9 14 C-8.34 13.67 -7.68 13.34 -7 13 C-7.33 10.03 -7.66 7.06 -8 4 C-8.33 4 -8.66 4 -9 4 Z M0 4 C0.33 6.97 0.66 9.94 1 13 C1.66 12.67 2.32 12.34 3 12 C3.20970559 7.85906302 3.20970559 7.85906302 2 4 C1.34 4 0.68 4 0 4 Z M-5 6 C-5 6.66 -5 7.32 -5 8 C-4.01 8 -3.02 8 -2 8 C-2 7.34 -2 6.68 -2 6 C-2.99 6 -3.98 6 -5 6 Z M-5 10 C-5 11.32 -5 12.64 -5 14 C-5.99 14.495 -5.99 14.495 -7 15 C-4.60280568 15.67958603 -4.60280568 15.67958603 -2 16 C-1.34 15.34 -0.68 14.68 0 14 C-0.66 14 -1.32 14 -2 14 C-2 12.68 -2 11.36 -2 10 C-2.99 10 -3.98 10 -5 10 Z " fill="#FFFFFF" transform="translate(594,498)"/>
</svg>