<svg xmlns="http://www.w3.org/2000/svg" viewBox="0 0 100 100">

    <g clip-path="url(#clip0_22_125)">
      <path fill-rule="evenodd" clip-rule="evenodd" d="M38.7298 4.08333V25.605H42.9745V17.7648H48.2036C52.4171 17.7648 55.5544 14.8445 55.5544 10.8783C55.5544 6.9426 52.5401 4.08333 48.3573 4.08333H38.7298ZM47.8962 14.1374H42.9745V7.86521H47.8962C49.9259 7.86521 51.3409 9.15648 51.3409 11.0014C51.3409 12.8459 49.9259 14.1374 47.8962 14.1374ZM61.4597 2.85395L57.5538 4.08333V25.605H61.4597V2.85395ZM70.9634 25.8205C72.8708 25.8205 74.5934 25.1134 75.8852 23.9139V25.605H79.7911V10.2636H75.8852V11.954C74.6546 10.7245 72.9626 10.0174 71.1178 10.0174C67.1194 10.0174 63.4895 13.3377 63.4895 17.9186C63.4895 22.4995 67.0575 25.8205 70.9634 25.8205ZM71.6404 22.3152C69.2724 22.3152 67.3649 20.5011 67.3649 17.9186C67.3649 15.3361 69.2724 13.522 71.6404 13.522C74.0395 13.522 75.9157 15.3361 75.9157 17.9186C75.9157 20.5011 74.0395 22.3152 71.6404 22.3152ZM98 10.2636H93.9091L89.5411 19.3023L85.0815 10.2636H80.7141L87.2963 23.6678L82.8979 32.3999H87.1426L98 10.2636ZM22.4182 19.2259L21.1641 17.2247H17.5026L18.7587 15.22H19.9154L18.5173 12.9885L14.6169 19.2259H4.21106L6.71643 15.22H4.87681L6.12745 13.2154H14.171L12.9197 15.22H9.08329L7.82922 17.2247H13.5042L18.5173 9.20513L24.7822 19.2259H22.4182ZM8.6338 9.20513H16.8846L15.6305 11.2107H7.38054L8.6338 9.20513ZM14.3521 0.503906C6.42602 0.503906 0 6.92758 0 14.8508C0 22.7759 6.42602 29.1968 14.3521 29.1968C22.278 29.1968 28.705 22.7759 28.705 14.8508C28.705 6.92758 22.278 0.503906 14.3521 0.503906Z" fill="currentColor"/>
    </g>
    <defs>
      <clipPath id="clip0_22_125">
        <rect width="98" height="32" fill="currentColor" transform="translate(0 0.503906)"/>
      </clipPath>
    </defs>
  
</svg>