<svg xmlns="http://www.w3.org/2000/svg" viewBox="0 0 41 49" width="200" height="200">

    <g clip-path="url(#clip0_22_194)">
      <mask id="mask0_22_194" maskUnits="userSpaceOnUse" x="-18" y="-10" width="77" height="69">
        <path d="M-17.6172 -9.91106H58.4065V58.8945H-17.6172V-9.91106Z" fill="#000"/>
      </mask>
      <g mask="url(#mask0_22_194)">
        <path fill-rule="evenodd" clip-rule="evenodd" d="M37.2767 0.00387955H3.7233C1.00368 0.00387955 0 1.03759 0 3.83987V37.6538C0 37.9709 0.0124167 38.2655 0.0396163 38.5384C0.101533 39.1501 0.113191 39.7428 0.665545 40.4177C0.719521 40.4838 1.28345 40.916 1.28345 40.916C1.58678 41.0692 1.7939 41.182 2.13601 41.3238L18.6581 48.4531C19.5159 48.8581 19.8745 49.0159 20.4975 49.0032V49.0033C20.4983 49.0033 20.4991 49.0033 20.4999 49.0033C20.5008 49.0033 20.5016 49.0033 20.5024 49.0033V49.0032C21.1254 49.0159 21.484 48.8581 22.3418 48.4531L38.8639 41.3238C39.2061 41.182 39.4131 41.0692 39.7165 40.916C39.7165 40.916 40.2805 40.4838 40.3344 40.4177C40.8867 39.7428 40.8984 39.1501 40.9603 38.5384C40.9875 38.2655 41 37.9709 41 37.6538V3.83987C41 1.03759 39.9962 0.00387955 37.2767 0.00387955Z" fill="#000"/>
        <path d="M35.031 33.9994L35.0234 34.0774L35.0158 34.1631L35.0006 34.2411L34.978 34.3191L34.9633 34.3893L34.9405 34.4673L34.9103 34.5375L34.8799 34.6L34.8501 34.6701L34.8123 34.7325L34.7744 34.7949L34.7294 34.8573L34.6915 34.9197L34.6465 34.9742L34.5935 35.0289L34.5485 35.0757L34.488 35.1303L34.4354 35.1771L34.3748 35.2239L34.3147 35.2624L34.2545 35.3092L34.1863 35.3482L34.1186 35.3794L34.0509 35.4184L33.9752 35.4496L33.8999 35.4808L33.8246 35.5042L33.7494 35.5276L33.6812 35.551L33.6059 35.5666L33.5382 35.5822L33.4705 35.5978L33.3948 35.6134L33.3194 35.6212L33.2518 35.629L33.176 35.6368L33.0932 35.6447L33.0179 35.6524H32.9426H32.8597H32.7764H32.7012L32.6258 35.6447H32.543L32.4677 35.6368L32.392 35.629L32.3091 35.6212L32.2339 35.6056L32.1586 35.5978L32.0829 35.5822L32.0075 35.5666L31.9322 35.551L31.857 35.5354L31.7813 35.5121L31.7135 35.4964L31.6383 35.473L31.5629 35.4496L31.4949 35.4184L31.4196 35.395L31.3518 35.3717L31.2765 35.3404L31.2084 35.3092L31.1407 35.278L31.0729 35.2395L31.0048 35.2083L30.9371 35.1692L30.8769 35.1303L30.8088 35.0913L30.7486 35.0523L30.6881 35.0133L30.6279 34.9665L30.5678 34.9197L30.5072 34.8729L30.447 34.8261L30.394 34.7793L30.3339 34.7247L30.3793 34.6624L30.4319 34.6077L30.4773 34.5453L30.5299 34.4829L30.5754 34.4283L30.6203 34.366L30.6734 34.3035L30.7183 34.2489L30.7714 34.1866L30.8164 34.1319L30.8693 34.0696L30.9144 34.0071L30.9598 33.9525L31.0124 33.8902L31.0578 33.8277L31.1103 33.7732L31.1558 33.7108L31.2159 33.7576L31.2837 33.8044L31.3442 33.8512L31.412 33.898L31.4725 33.937L31.5403 33.9837L31.6004 34.0228L31.6686 34.0539L31.7287 34.093L31.7964 34.1242L31.8646 34.1553L31.9322 34.1866L32.0001 34.21L32.0682 34.2411L32.1434 34.2645L32.2188 34.2879L32.2864 34.3113L32.3622 34.327L32.4375 34.3426L32.5127 34.3581L32.5956 34.366L32.6713 34.3815H32.7466L32.8294 34.3893H32.9048H32.9951L33.078 34.3815L33.1538 34.366L33.2214 34.3503L33.2892 34.3347L33.3497 34.3113L33.4024 34.2802L33.4629 34.2334L33.5079 34.1787L33.5382 34.1163L33.561 34.0462L33.5684 33.9681V33.9525L33.561 33.8589L33.5307 33.7809L33.4928 33.7264L33.4402 33.6795L33.3796 33.6327L33.3194 33.6016L33.2518 33.5704L33.176 33.5391L33.0856 33.5002L33.033 33.4846L32.9729 33.469L32.9048 33.4455L32.837 33.43L32.7617 33.4065L32.686 33.391L32.6032 33.3676L32.5278 33.352L32.445 33.3286L32.3697 33.313L32.2939 33.2896L32.2188 33.274L32.1434 33.2506L32.0752 33.2272L32.0001 33.2116L31.9322 33.1882L31.8646 33.1648L31.7964 33.1414L31.7135 33.1101L31.6383 33.0789L31.5629 33.0478L31.4872 33.0165L31.4196 32.9776L31.3442 32.9386L31.2837 32.8996L31.2159 32.8606L31.1558 32.8138L31.0952 32.7749L31.0427 32.728L30.9897 32.6734L30.9371 32.6188L30.8916 32.5641L30.8467 32.5096L30.8088 32.4551L30.7714 32.3926L30.7335 32.3225L30.7032 32.2684L30.6805 32.2059L30.6583 32.1357L30.6355 32.0733L30.6203 31.9953L30.6052 31.9251L30.5976 31.8471L30.5901 31.7691L30.5825 31.6834V31.5975V31.5819V31.5039L30.5901 31.426L30.5976 31.3557L30.6052 31.2777L30.6203 31.2076L30.6355 31.1374L30.6583 31.0671L30.6734 30.997L30.7032 30.9268L30.7335 30.8566L30.7638 30.7864L30.8013 30.7161L30.839 30.646L30.884 30.5836L30.9296 30.5212L30.9821 30.4588L31.0351 30.4043L31.0877 30.3418L31.1483 30.2872L31.2008 30.2482L31.2614 30.2014L31.3216 30.1546L31.3817 30.1156L31.4498 30.0766L31.5176 30.0454L31.5852 30.0064L31.6534 29.9753L31.7287 29.9518L31.8039 29.9206L31.8721 29.8972L31.9322 29.8816L32.0001 29.866L32.0682 29.8504L32.1434 29.8349L32.2112 29.8192L32.2864 29.8115L32.3622 29.8036L32.4375 29.7958L32.5127 29.788H32.588H32.6713H32.7542H32.837L32.9199 29.7958L33.0027 29.8036H33.078L33.1613 29.8115L33.2366 29.827L33.3194 29.8349L33.3948 29.8504L33.4629 29.866L33.5382 29.8816L33.6135 29.8972L33.6812 29.9128L33.7569 29.9362L33.8246 29.9596L33.8924 29.9753L33.9681 30.0064L34.0358 30.0298L34.1035 30.061L34.1712 30.0922L34.2469 30.1234L34.3147 30.1624L34.3748 30.1936L34.443 30.2326L34.5107 30.2716L34.5709 30.3106L34.6389 30.3575L34.6992 30.3963L34.7597 30.4432L34.8199 30.49L34.8799 30.5368L34.835 30.5992L34.7971 30.6616L34.7521 30.724L34.7067 30.7864L34.6617 30.8566L34.6238 30.9189L34.5784 30.9814L34.5333 31.0438L34.4956 31.1062L34.4505 31.1686L34.4051 31.231L34.3672 31.2934L34.3223 31.3636L34.2767 31.426L34.2318 31.4883L34.1939 31.5507L34.1489 31.6131L34.0884 31.5664L34.0207 31.5273L33.9605 31.4883L33.8999 31.4415L33.8322 31.4104L33.7716 31.3713L33.7039 31.3401L33.6438 31.3089L33.5756 31.2777L33.5155 31.2466L33.4478 31.2232L33.3872 31.1919L33.3043 31.1686L33.229 31.1451L33.1538 31.1218L33.078 31.1062L33.0027 31.0906L32.9275 31.0749L32.8522 31.0671L32.7764 31.0593L32.7088 31.0515H32.6334H32.543L32.4602 31.0671L32.3844 31.0828L32.3168 31.0983L32.2566 31.1296L32.2036 31.1607L32.1358 31.2232L32.0904 31.2934L32.0606 31.3636L32.0529 31.4415V31.4572L32.0606 31.5585L32.098 31.6443L32.1283 31.6911L32.1808 31.7458L32.249 31.7847L32.3091 31.8237L32.3844 31.8549L32.4677 31.8862L32.5582 31.9173L32.6183 31.9329L32.6785 31.9563L32.7466 31.9719L32.8143 31.9953L32.8895 32.0109L32.9729 32.0343L33.0558 32.0576L33.1386 32.0811L33.2214 32.0967L33.2967 32.1201L33.3796 32.1435L33.4553 32.1591L33.5307 32.1825L33.6059 32.2059L33.6736 32.2293L33.7494 32.2527L33.8171 32.2761L33.8848 32.2995L33.9681 32.3302L34.0433 32.3693L34.1186 32.4004L34.1939 32.4394L34.2621 32.4785L34.3299 32.5174L34.3899 32.5564L34.4505 32.6032L34.5107 32.6422L34.5709 32.6968L34.6314 32.7514L34.684 32.8138L34.7369 32.8684L34.7819 32.9308L34.8274 33.001L34.8648 33.0633L34.9027 33.1336L34.933 33.196L34.9557 33.2661L34.978 33.3363L34.9931 33.4065L35.0082 33.4846L35.0234 33.5626L35.031 33.6406L35.0386 33.7264V33.8121V33.8277V33.9136L35.031 33.9994ZM29.7436 35.5589H29.6679H29.5927H29.5174H29.4421H29.3664H29.291H29.2158H29.1405H29.0572H28.9819H28.9067H28.8314H28.7555H28.6804H28.605H28.5298H28.454H28.3787H28.3035H28.2282H28.1529H28.0772H28.0019H27.9266H27.8513H27.7755H27.7003H27.625H27.5421H27.4664H27.3911H27.3158H27.2406H27.1649H27.0895H27.0143H26.9389H26.8632H26.788H26.7127H26.6374H26.5616H26.4864H26.4111H26.3358H26.2601H26.1848H26.1019H26.0266H25.9514H25.8756H25.8003H25.725H25.6498H25.5741H25.4988H25.4235V35.4808V35.4028V35.3248V35.2472V35.1692V35.0913V35.0133V34.9354V34.8573V34.7793V34.7013V34.6233V34.5453V34.4673V34.3893V34.3113V34.2334V34.1553V34.0851V34.0071V33.9291V33.8512V33.7732V33.6951V33.6172V33.5391V33.4611V33.3831V33.3052V33.2272V33.1492V33.0712V32.9932V32.9152V32.8371V32.7592V32.6812V32.6032V32.5253V32.4472V32.3693V32.2917V32.2137V32.1357V32.0576V31.9797V31.9017V31.8237V31.7458V31.6677V31.5897V31.5117V31.4337V31.3557V31.2855V31.2076V31.1296V31.0515V30.9736V30.8955V30.8176V30.7395V30.6616V30.5836V30.5056V30.4276V30.3495V30.2716V30.1936V30.1156V30.0376V29.9596V29.8816H25.4988H25.5741H25.6498H25.725H25.8003H25.8756H25.9514H26.0266H26.1019H26.1772H26.2529H26.3283H26.4035H26.4788H26.5469H26.6222H26.6975H26.7729H26.8485H26.9238H26.9991H27.0744H27.1501H27.2254H27.3006H27.376H27.4517H27.527H27.6023H27.6775H27.7533H27.8287H27.9038H27.9791H28.0544H28.1302H28.2055H28.2807H28.356H28.4318H28.507H28.5823H28.6576H28.7258H28.8011H28.8763H28.9517H29.0274H29.1026H29.1779H29.2532H29.3289H29.4042H29.4795H29.5548H29.6305H29.7058H29.7811V29.9596V30.0298V30.1078V30.1858V30.2638V30.334V30.412V30.49V30.5602V30.6382V30.7161V30.7864V30.8644V30.9423V31.0204V31.0906V31.1686H29.7058H29.6305H29.5548H29.4795H29.4042H29.3289H29.2608H29.1855H29.1102H29.0349H28.9592H28.8839H28.8086H28.7333H28.6576H28.5823H28.507H28.4318H28.356H28.2883H28.213H28.1377H28.062H27.9868H27.9114H27.8362H27.7604H27.6851H27.6099H27.5346H27.4588H27.3835H27.3158H27.2406H27.1649H27.0895H27.0143H26.9389H26.8632V31.2466V31.3245V31.4025V31.4805V31.5585V31.6287V31.7067V31.7847V31.8627V31.9407V32.0187V32.0967H26.9389H27.0143H27.0895H27.1649H27.2406H27.3158H27.3911H27.4664H27.5346H27.6099H27.6851H27.7604H27.8362H27.9114H27.9868H28.062H28.1377H28.213H28.2883H28.3636H28.4393H28.5146H28.5899H28.6653H28.7409H28.8162H28.8839H28.9592H29.0349H29.1102H29.1855H29.2608H29.3365H29.4118H29.4871V32.1747V32.2449V32.3225V32.4004V32.4706V32.5486V32.6266V32.6968V32.7749V32.8528V32.9308V33.001V33.0789V33.157V33.2272V33.3052H29.4118H29.3365H29.2608H29.1855H29.1102H29.0349H28.9592H28.8839H28.8162H28.7409H28.6653H28.5899H28.5146H28.4393H28.3636H28.2883H28.213H28.1377H28.062H27.9868H27.9114H27.8362H27.7604H27.6851H27.6099H27.5346H27.4664H27.3911H27.3158H27.2406H27.1649H27.0895H27.0143H26.9389H26.8632V33.3831V33.469V33.547V33.625V33.7108V33.7888V33.8668V33.9525V34.0305V34.1085V34.1943V34.2723H26.9389H27.0143H27.0895H27.1649H27.2406H27.3158H27.3911H27.4664H27.5421H27.625H27.7003H27.7755H27.8513H27.9266H28.0019H28.0772H28.1529H28.2282H28.3035H28.3787H28.454H28.5298H28.605H28.6804H28.7555H28.8314H28.9067H28.9819H29.0572H29.1405H29.2158H29.291H29.3664H29.4421H29.5174H29.5927H29.6679H29.7436H29.819V34.3503V34.4205V34.4985V34.5765V34.6545V34.7247V34.8027V34.8806V34.9509V35.0289V35.1068V35.1771V35.2546V35.3326V35.4105V35.4808V35.5589H29.7436ZM24.2349 35.5589H24.1597H24.0843H24.0011H23.9259H23.8505H23.7752H23.6995H23.6242H23.5413H23.4661H23.3907H23.315H23.2398H23.1645H23.0817H23.0059H22.9306H22.8553V35.4808V35.4028V35.3248V35.2468V35.1683V35.0904V35.0124V34.9343V34.8564V34.7784V34.7004V34.622V34.544V34.4659V34.388V34.3099V34.2315V34.1534V34.0755V33.9975V33.9195V33.8415V33.7631V33.6851V33.6071V33.529V33.4511V33.3731V33.2946V33.2165V33.1386V33.0606V32.9827V32.9047V32.8262V32.7482V32.6702V32.5922V32.5142V32.4357V32.3578V32.2798V32.2017L22.8175 32.2641L22.7725 32.3348L22.7346 32.3972L22.6896 32.4597L22.6518 32.5298L22.6062 32.5922L22.5689 32.6546L22.531 32.7253L22.486 32.7876L22.4481 32.85L22.4028 32.9125L22.3653 32.9831L22.3199 33.0455L22.2825 33.1079L22.2445 33.1781L22.1991 33.2409L22.1617 33.3034L22.1162 33.3735L22.0789 33.436L22.0335 33.4983L21.996 33.569L21.9581 33.6314L21.9127 33.6938L21.8753 33.764L21.8299 33.8268L21.7925 33.8892L21.747 33.9517L21.7091 34.0218L21.6717 34.0846L21.6263 34.1471L21.5889 34.2173L21.5434 34.2797L21.5056 34.342L21.4606 34.4128L21.4227 34.4751H21.3928L21.3475 34.4049L21.3095 34.342L21.2645 34.2718L21.2267 34.2095L21.1817 34.1393L21.1438 34.0764L21.0989 34.0062L21.0609 33.9438L21.0155 33.8736L20.9781 33.8113L20.9326 33.7405L20.8953 33.6782L20.8498 33.6079L20.8119 33.5456L20.767 33.4749L20.7291 33.4126L20.6841 33.3423L20.6387 33.28L20.6008 33.2093L20.5558 33.1469L20.518 33.0767L20.4729 33.0144L20.4351 32.9436L20.3901 32.8813L20.3522 32.811L20.3068 32.7487L20.2694 32.6785L20.2239 32.6156L20.1865 32.5454L20.1411 32.483L20.1032 32.4128L20.0583 32.3505L20.0203 32.2798L19.9753 32.2174V32.2953V32.3734V32.4514V32.5298V32.6078V32.6858V32.7638V32.8418V32.9202V32.9983V33.0685V33.1464V33.2245V33.3024V33.3809V33.4589V33.5369V33.6148V33.6929V33.7709V33.8493V33.9273V34.0054V34.0833V34.1613V34.2393V34.3178V34.3957V34.4738V34.5517V34.6297V34.7081V34.7784V34.8564V34.9343V35.0124V35.0904V35.1683V35.2468V35.3248V35.4028V35.4808V35.5589H19.9001H19.8244H19.749H19.6738H19.5985H19.5228H19.4475H19.3722H19.2969H19.2212H19.1459H19.0706H18.9953H18.9196H18.8443H18.769H18.6937H18.618H18.5427V35.4808V35.4028V35.3248V35.2472V35.1692V35.0913V35.0133V34.9354V34.8573V34.7793V34.7013V34.6233V34.5453V34.4673V34.3893V34.3113V34.2334V34.1553V34.0851V34.0071V33.9291V33.8512V33.7732V33.6951V33.6172V33.5391V33.4611V33.3831V33.3052V33.2272V33.1492V33.0712V32.9932V32.9152V32.8371V32.7592V32.6812V32.6032V32.5253V32.4472V32.3693V32.2917V32.2137V32.1357V32.0576V31.9797V31.9017V31.8237V31.7458V31.6677V31.5897V31.5117V31.4337V31.3557V31.2855V31.2076V31.1296V31.0515V30.9736V30.8955V30.8176V30.7395V30.6616V30.5836V30.5056V30.4276V30.3495V30.2716V30.1936V30.1156V30.0376V29.9596V29.8816H18.618H18.6937H18.7615H18.8367H18.912H18.9877H19.0554H19.1307H19.2065H19.2817H19.3495H19.4247H19.5005H19.5758H19.6434H19.7187H19.7945H19.8698H19.9375H20.0127H20.0885L20.1259 29.944L20.1638 30.0142L20.2087 30.0761L20.2466 30.1463L20.2845 30.2087L20.3219 30.279L20.3598 30.3408L20.4049 30.4111L20.4426 30.4735L20.4805 30.5359L20.518 30.6056L20.5558 30.668L20.6008 30.7382L20.6387 30.8006L20.6765 30.8703L20.7139 30.9327L20.7594 30.9951L20.7973 31.0649L20.8346 31.1272L20.8725 31.1974L20.91 31.2599L20.9554 31.3296L20.9933 31.392L21.0306 31.4621L21.0685 31.5241L21.106 31.5865L21.1514 31.6567L21.1893 31.7191L21.2267 31.7893L21.2645 31.8513L21.3019 31.9215L21.3475 31.9839L21.3853 32.0536L21.4227 32.116L21.4606 32.0536L21.4984 31.9839L21.5434 31.9215L21.5812 31.8513L21.6187 31.7893L21.6565 31.7191L21.7016 31.6567L21.7394 31.5865L21.7773 31.5241L21.8147 31.4621L21.8601 31.392L21.8975 31.3296L21.9355 31.2599L21.9732 31.1974L22.0182 31.1272L22.0561 31.0649L22.094 30.9951L22.1314 30.9327L22.1694 30.8703L22.2143 30.8006L22.2521 30.7382L22.29 30.668L22.3275 30.6056L22.3729 30.5359L22.4104 30.4735L22.4481 30.4111L22.486 30.3408L22.531 30.279L22.5689 30.2087L22.6062 30.1463L22.6442 30.0761L22.6896 30.0142L22.727 29.944L22.7649 29.8816H22.8401H22.9155H22.9836H23.0589H23.1342H23.2095H23.2776H23.353H23.4282H23.5035H23.5717H23.6469H23.7222H23.7975H23.8656H23.941H24.0162H24.0915H24.1597H24.2349H24.3102V29.9596V30.0376V30.1156V30.1936V30.2716V30.3495V30.4276V30.5056V30.5836V30.6616V30.7395V30.8176V30.8955V30.9736V31.0515V31.1296V31.2076V31.2855V31.3557V31.4337V31.5117V31.5897V31.6677V31.7458V31.8237V31.9017V31.9797V32.0576V32.1357V32.2137V32.2917V32.3693V32.4472V32.5253V32.6032V32.6812V32.7592V32.8371V32.9152V32.9932V33.0712V33.1492V33.2272V33.3052V33.3831V33.4611V33.5391V33.6172V33.6951V33.7732V33.8512V33.9291V34.0071V34.0851V34.1553V34.2334V34.3113V34.3893V34.4673V34.5453V34.6233V34.7013V34.7793V34.8573V34.9354V35.0133V35.0913V35.1692V35.2472V35.3248V35.4028V35.4808V35.5589H24.2349ZM15.4872 33.2194L15.4645 33.1488L15.4347 33.0707L15.4044 33.0005L15.3816 32.9299L15.3518 32.8597L15.3216 32.7816L15.2988 32.711L15.2684 32.6408L15.2387 32.5707L15.2159 32.5L15.1856 32.422L15.1634 32.3518L15.133 32.2811L15.1027 32.2109L15.0801 32.1407L15.0502 32.0623L15.0199 31.9921L14.9972 31.9219L14.9669 31.8513L14.9371 31.7733L14.9143 31.7026L14.884 31.6324L14.8542 31.7026L14.8316 31.7733L14.8012 31.8513L14.7709 31.9219L14.7486 31.9921L14.7184 32.0623L14.688 32.1407L14.6582 32.2109L14.6354 32.2811L14.6052 32.3518L14.5749 32.422L14.5526 32.5L14.5223 32.5707L14.492 32.6408L14.4694 32.711L14.4395 32.7816L14.4091 32.8597L14.3789 32.9299L14.3567 33.0005L14.3263 33.0707L14.296 33.1488L14.2733 33.2194L14.2435 33.2896H14.3187H14.394H14.4694H14.545H14.6203H14.6956H14.7709H14.8467H14.9143H14.9896H15.0654H15.1406H15.2159H15.2913H15.3665H15.4422H15.5175L15.4872 33.2194ZM17.8549 35.5589H17.7793H17.7114H17.6362H17.5605H17.4852H17.4099H17.3422H17.2664H17.1912H17.1159H17.0406H16.9649H16.8971H16.8219H16.7465H16.6708H16.5956H16.5278H16.4526H16.3769L16.347 35.4886L16.3242 35.4184L16.294 35.3482L16.2637 35.2702L16.2414 35.2004L16.2111 35.1303L16.1808 35.0601L16.1585 34.9899L16.1283 34.9197L16.098 34.8495L16.0753 34.7793L16.0454 34.7013L16.0151 34.6311L15.9924 34.5609L15.962 34.4907H15.8868H15.8115H15.7362H15.661H15.5928H15.5175H15.4422H15.3665H15.2913H15.2159H15.1406H15.0654H14.9896H14.9143H14.8467H14.7709H14.6956H14.6203H14.545H14.4694H14.394H14.3187H14.2435H14.1682H14.1H14.0248H13.9494H13.8737H13.7984L13.7686 34.5609L13.7459 34.6311L13.7155 34.7013L13.6853 34.7793L13.663 34.8495L13.6328 34.9197L13.6024 34.9899L13.5797 35.0601L13.5499 35.1303L13.5196 35.2004L13.4968 35.2702L13.4669 35.3482L13.4367 35.4184L13.414 35.4886L13.3837 35.5589H13.3084H13.2331H13.1579H13.0821H13.0068H12.924H12.8487H12.7734H12.6977H12.6224H12.5471H12.4718H12.396H12.3208H12.2456H12.1627H12.0869H12.0117H11.9363H11.8611L11.8909 35.4886L11.9212 35.4184L11.9515 35.3482L11.9814 35.2702L12.0041 35.2004L12.0344 35.1303L12.0646 35.0601L12.0945 34.9899L12.1248 34.9197L12.1551 34.8417L12.1849 34.7715L12.2153 34.7013L12.2379 34.6311L12.2682 34.5609L12.298 34.4907L12.3284 34.4128L12.3586 34.3426L12.3885 34.2723L12.4188 34.2021L12.4491 34.1319L12.4718 34.0617L12.5016 33.9837L12.5319 33.9136L12.5623 33.8434L12.5921 33.7732L12.6224 33.703L12.6527 33.6327L12.6825 33.5547L12.7053 33.4846L12.7356 33.4144L12.7658 33.3442L12.7957 33.274L12.826 33.2038L12.8562 33.1258L12.8861 33.0556L12.9164 32.9854L12.9391 32.9152L12.9694 32.8451L12.9992 32.7749L13.0296 32.6968L13.0599 32.6266L13.0897 32.5564L13.1199 32.4862L13.1503 32.4161L13.173 32.3458L13.2029 32.2761L13.2331 32.1981L13.2634 32.1279L13.2933 32.0576L13.3235 31.9874L13.3538 31.9173L13.3837 31.8471L13.4064 31.7691L13.4367 31.699L13.4669 31.6287L13.4968 31.5585L13.5272 31.4883L13.5574 31.4181L13.5873 31.3401L13.6176 31.27L13.6403 31.1998L13.6705 31.1296L13.7004 31.0593L13.7307 30.9891L13.761 30.9112L13.7908 30.841L13.8211 30.7708L13.8515 30.7006L13.8737 30.6304L13.904 30.5602L13.9343 30.4822L13.9646 30.412L13.9945 30.3418L14.0248 30.2716L14.055 30.2014L14.0848 30.1313L14.1077 30.0532L14.1379 29.983L14.1682 29.9128L14.198 29.8426H14.2733H14.3415H14.4167H14.492H14.5678H14.6354H14.7107H14.786H14.8618H14.9296H15.0047H15.0801H15.1558H15.2235H15.2988H15.374H15.4498H15.5175H15.5928L15.6231 29.9128L15.6534 29.983L15.6833 30.0532L15.7135 30.1313L15.7362 30.2014L15.7661 30.2716L15.7964 30.3418L15.8266 30.412L15.857 30.4822L15.8868 30.5602L15.9171 30.6304L15.9474 30.7006L15.9696 30.7708L16 30.841L16.0303 30.9112L16.0606 30.9891L16.0904 31.0593L16.1207 31.1296L16.151 31.1998L16.1808 31.27L16.2035 31.3401L16.2338 31.4181L16.2637 31.4883L16.294 31.5585L16.3242 31.6287L16.3546 31.699L16.3844 31.7691L16.4146 31.8471L16.4374 31.9173L16.4673 31.9874L16.4975 32.0576L16.5278 32.1279L16.5581 32.1981L16.588 32.2761L16.6183 32.3458L16.6485 32.4161L16.6708 32.4862L16.7011 32.5564L16.7314 32.6266L16.7613 32.6968L16.7915 32.7749L16.8219 32.8451L16.8522 32.9152L16.882 32.9854L16.9047 33.0556L16.935 33.1258L16.9649 33.2038L16.9951 33.274L17.0254 33.3442L17.0557 33.4144L17.0856 33.4846L17.1159 33.5547L17.1385 33.6327L17.1684 33.703L17.1987 33.7732L17.229 33.8434L17.2588 33.9136L17.2892 33.9837L17.3195 34.0617L17.3498 34.1319L17.372 34.2021L17.4023 34.2723L17.4327 34.3426L17.4625 34.4128L17.4927 34.4907L17.5231 34.5609L17.5533 34.6311L17.5831 34.7013L17.6059 34.7715L17.6362 34.8417L17.6661 34.9197L17.6963 34.9899L17.7265 35.0601L17.7564 35.1303L17.7867 35.2004L17.817 35.2702L17.8398 35.3482L17.8696 35.4184L17.8999 35.4886L17.9301 35.5589H17.8549ZM11.2499 34.8338L11.1894 34.8806L11.1367 34.9197L11.0762 34.9665L11.016 35.0055L10.9559 35.0523L10.8953 35.0913L10.8352 35.1303L10.767 35.1692L10.6993 35.2083L10.6315 35.2472L10.5634 35.278L10.4957 35.317L10.4204 35.3482L10.3528 35.3794L10.277 35.4105L10.2093 35.4418L10.1415 35.4652L10.0734 35.4886L10.0057 35.5121L9.9304 35.5354L9.86274 35.5589L9.78697 35.5744L9.71923 35.59L9.64397 35.6056L9.56828 35.6212L9.49293 35.629L9.41006 35.6368L9.3348 35.6447L9.25193 35.6524L9.17617 35.6602L9.09338 35.668H9.01052H8.92757H8.84479H8.76902L8.69375 35.6602L8.61089 35.6524L8.53562 35.6447L8.46036 35.6368L8.38459 35.629L8.30933 35.6134L8.23398 35.5978L8.16632 35.5822L8.09063 35.5666L8.02289 35.5432L7.94762 35.5276L7.87946 35.5042L7.81171 35.473L7.74396 35.4496L7.66879 35.4184L7.60062 35.3872L7.53287 35.3561L7.46521 35.3248L7.39696 35.2859L7.3369 35.2472L7.26915 35.2083L7.20859 35.1692L7.14845 35.1303L7.08788 35.0834L7.02774 35.0367L6.96751 34.9899L6.91455 34.9431L6.862 34.8963L6.80896 34.8417L6.75642 34.7949L6.70337 34.7403L6.65083 34.6857L6.60538 34.6311L6.56036 34.5688L6.51492 34.5141L6.47707 34.4517L6.43205 34.3893L6.39429 34.327L6.35679 34.2645L6.31894 34.1943L6.2811 34.1319L6.25128 34.0617L6.22096 33.9915L6.19072 33.9213L6.16081 33.8512L6.13809 33.7888L6.10777 33.7185L6.09265 33.6483L6.07035 33.5782L6.05523 33.5002L6.0325 33.43L6.01738 33.352L6.00978 33.2818L5.99458 33.2038L5.98714 33.1336L5.97945 33.0556L5.97236 32.9776L5.96484 32.8996V32.8138V32.7358V32.7202V32.6422L5.97236 32.5564V32.4785L5.97945 32.4004L5.98714 32.3146L6.00226 32.2371L6.00978 32.1591L6.0249 32.0889L6.04762 32.0109L6.06283 31.9329L6.08504 31.8627L6.10777 31.7847L6.13049 31.7145L6.16081 31.6365L6.19072 31.5664L6.22096 31.4962L6.25128 31.426L6.2811 31.3557L6.31894 31.2855L6.35679 31.2232L6.39429 31.1607L6.43205 31.0983L6.46998 31.0359L6.51492 30.9736L6.56036 30.9112L6.60538 30.8488L6.65083 30.7941L6.70337 30.7395L6.74881 30.6849L6.80144 30.6304L6.8544 30.5757L6.90694 30.529L6.96751 30.4744L7.02013 30.4276L7.08028 30.3808L7.14084 30.3418L7.20099 30.295L7.26164 30.256L7.3217 30.217L7.38944 30.178L7.45761 30.139L7.52527 30.1L7.59302 30.0688L7.6611 30.0376L7.73645 29.9986L7.79659 29.9753L7.87185 29.9518L7.9401 29.9206L8.00777 29.905L8.07543 29.8816L8.15111 29.866L8.21886 29.8426L8.29412 29.827L8.36947 29.8192L8.44516 29.8036L8.5205 29.7958L8.59568 29.788L8.67103 29.7802L8.7468 29.7724H8.82967H8.90493H8.98771H9.07058L9.15395 29.7802L9.23682 29.788H9.31208L9.38734 29.7958L9.47021 29.8115L9.53838 29.8192L9.61364 29.8349L9.68899 29.8504L9.75707 29.866L9.82473 29.8816L9.89256 29.8972L9.96073 29.9206L10.0284 29.9362L10.0885 29.9596L10.1567 29.983L10.2244 30.0142L10.2921 30.0454L10.3603 30.0766L10.428 30.1156L10.4957 30.1468L10.5563 30.1858L10.624 30.2248L10.6841 30.2638L10.7523 30.3028L10.8124 30.3495L10.8726 30.3886L10.9332 30.4354L10.9933 30.4822L11.0539 30.5368L11.114 30.5836L11.0686 30.646L11.016 30.7006L10.9706 30.7629L10.918 30.8253L10.8726 30.8878L10.8276 30.9423L10.7745 31.0047L10.7296 31.0671L10.6841 31.1218L10.6315 31.1842L10.5862 31.2466L10.5335 31.3089L10.4881 31.3636L10.4431 31.426L10.3902 31.4883L10.3451 31.5507L10.2921 31.6053L10.2471 31.6677L10.1865 31.6209L10.1264 31.5664L10.0658 31.5273L10.0057 31.4805L9.94553 31.4415L9.88496 31.4025L9.82473 31.3636L9.75707 31.3245L9.6965 31.2934L9.63636 31.2621L9.5758 31.2387L9.50805 31.2153L9.44039 31.1919L9.37222 31.1764L9.29696 31.1607L9.2217 31.1451L9.14635 31.1374L9.06348 31.1296L8.98019 31.1218H8.89733H8.82206L8.7468 31.1296L8.67863 31.1374L8.60337 31.153L8.53562 31.1686L8.46746 31.1919L8.3998 31.2153L8.33205 31.2466L8.2643 31.2777L8.20374 31.3167L8.14368 31.3557L8.08303 31.3948L8.03049 31.4415L7.97744 31.4883L7.9249 31.5351L7.87946 31.5897L7.82691 31.6443L7.78147 31.7067L7.74396 31.7613L7.70612 31.8237L7.66879 31.8939L7.63086 31.9563L7.60062 32.0265L7.57789 32.0967L7.54799 32.1669L7.52527 32.2449L7.51015 32.3225L7.49503 32.3926L7.47983 32.4785L7.47231 32.5564L7.46521 32.6344V32.7202V32.7358V32.8138L7.47231 32.8918L7.47983 32.962L7.48743 33.04L7.50255 33.1101L7.51775 33.1804L7.53287 33.2506L7.55559 33.3208L7.57789 33.3831L7.60822 33.4611L7.63846 33.5314L7.67588 33.6016L7.71372 33.664L7.75157 33.7264L7.79659 33.7888L7.84204 33.8434L7.89457 33.898L7.9401 33.9525L7.99256 33.9994L8.05321 34.0462L8.11336 34.093L8.17341 34.1319L8.23398 34.1709L8.30181 34.2021L8.36947 34.2334L8.43755 34.2645L8.5129 34.2879L8.58817 34.3113L8.66393 34.327L8.7392 34.3426L8.81446 34.3503L8.89733 34.3581H8.98019H9.07058L9.15395 34.3503L9.23682 34.3426L9.31208 34.3347L9.38734 34.3191L9.46311 34.3035L9.53838 34.2802L9.60604 34.2645L9.67387 34.2334L9.73443 34.2021L9.80209 34.1709L9.85506 34.1398L9.91529 34.1007V34.0228V33.9448V33.8668V33.7888V33.703V33.625V33.547V33.469V33.391H9.83994H9.77185H9.6965H9.62124H9.54598H9.47781H9.40246H9.3272H9.25193H9.18385H9.1085H9.03324H8.95789H8.88981H8.81446V33.313V33.2428V33.1648V33.0868V33.0088V32.9386V32.8606V32.7826V32.7047V32.6344V32.5564V32.4785V32.4004V32.3302V32.2527H8.88981H8.9655H9.04084H9.11602H9.19137H9.26663H9.3424H9.41767H9.49293H9.56828H9.64397H9.71923H9.79449H9.86976H9.94553H10.0209H10.0961H10.1714H10.2471H10.3224H10.3977H10.473H10.5486H10.624H10.6993H10.7745H10.8503H10.9256H11.0009H11.0762H11.1519H11.2271H11.3025V32.3302V32.4082V32.4862V32.5564V32.6344V32.7124V32.7903V32.8684V32.9464V33.0165V33.0946V33.1726V33.2506V33.3286V33.4065V33.4846V33.5547V33.6327V33.7108V33.7888V33.8668V33.9448V34.0228V34.093V34.1709V34.2489V34.327V34.4049V34.4829V34.5532V34.6311V34.7091V34.7871L11.2499 34.8338Z" fill="black"/>
        <path d="M8.82165 17.0381H12.0892V14.4349H8.82165V9.12058H12.2193V6.51743H6.04688V25.3047H12.271V22.7015H8.82165V17.0381Z" fill="black"/>
        <path d="M32.2263 17.6011V21.8417C32.2263 22.5933 31.889 22.942 31.1892 22.942H30.6702C29.9442 22.942 29.6069 22.5933 29.6069 21.8417V9.97854C29.6069 9.22706 29.9442 8.87837 30.6702 8.87837H31.1371C31.8373 8.87837 32.1746 9.22706 32.1746 9.97854V13.6559H34.8974V9.81751C34.8974 7.48275 33.8081 6.35543 31.5523 6.35543H30.2034C27.9476 6.35543 26.832 7.50937 26.832 9.84457V21.9757C26.832 24.311 27.9476 25.4648 30.2034 25.4648H31.5781C33.8345 25.4648 34.9494 24.311 34.9494 21.9757V17.6011H32.2263Z" fill="black"/>
        <path d="M22.5938 25.3047H25.369V6.51734H22.5938V25.3047Z" fill="black"/>
        <path d="M18.5665 14.8643C18.5665 15.6158 18.2297 15.965 17.5294 15.965H16.3881V9.04028H17.5294C18.2297 9.04028 18.5665 9.38905 18.5665 10.1405V14.8643ZM17.97 6.51734H13.6133V25.3047H16.3881V18.4874H17.97C20.2263 18.4874 21.3413 17.3335 21.3413 14.9988V10.0065C21.3413 7.67128 20.2263 6.51734 17.97 6.51734Z" fill="black"/>
        <path fill-rule="evenodd" clip-rule="evenodd" d="M12.5938 42.2891H28.4788L20.3708 45.043L12.5938 42.2891Z" fill="black"/>
      </g>
    </g>
    <defs>
      <clipPath id="clip0_22_194">
        <rect width="41" height="49" fill="#000" transform="translate(0 0.00390625)"/>
      </clipPath>
    </defs>

</svg>
