<svg xmlns="http://www.w3.org/2000/svg" viewBox="0 0 100 100">

    <g clip-path="url(#clip0_22_214)">
      <mask id="mask0_22_214" maskUnits="userSpaceOnUse" x="-205" y="-87" width="308" height="204">
        <path d="M-204.734 -86.1078H102.096V116.176H-204.734V-86.1078Z" fill="currentColor"/>
      </mask>
      <g mask="url(#mask0_22_214)">
        <path fill-rule="evenodd" clip-rule="evenodd" d="M15.1955 31.3148H9.27281H9.26289C8.79744 31.3148 8.424 31.6885 8.424 32.1488C8.424 32.1488 8.42581 32.1488 8.42581 32.1542H8.424V36.3404H8.42581L8.424 36.3439C8.424 36.8024 8.79744 37.1798 9.26289 37.1798H9.27281H9.88619H15.1955V39.9727H7.79258V39.9655C6.58116 39.9655 5.60156 38.9968 5.60156 37.8024V30.6841C5.60156 29.496 6.58116 28.5272 7.79258 28.5272H15.1955V31.3148Z" fill="currentColor"/>
        <path fill-rule="evenodd" clip-rule="evenodd" d="M17.3363 23.5413C17.3363 24.7589 16.3414 25.7383 15.1155 25.7383H5.59375V22.9079H13.6128H13.6218C14.0944 22.9079 14.4733 22.5261 14.4733 22.0614V22.0561V12.7122V12.706C14.4733 12.2394 14.0944 11.8612 13.6218 11.8612H13.6128H9.31641H9.30739C8.83563 11.8612 8.45588 12.2394 8.45588 12.706V12.7122V16.9582V16.9635C8.45588 17.431 8.83563 17.8101 9.30739 17.8101H9.31641H12.754V20.6404H7.81364C6.58508 20.6404 5.59375 19.6592 5.59375 18.4452V11.2252C5.59375 10.0121 6.58508 9.02909 7.81364 9.02909H15.1155C16.3414 9.02909 17.3363 10.0121 17.3363 11.2252V23.5413Z" fill="currentColor"/>
        <path fill-rule="evenodd" clip-rule="evenodd" d="M45.3956 39.9655H42.574V31.3148H40.6004H40.5914C40.125 31.3148 39.7516 31.6885 39.7516 32.1488V32.1542V39.9655H36.93V31.3148H34.9519H34.9465C34.4792 31.3148 34.1058 31.6885 34.1058 32.1488V32.1542V39.9727H31.2852V30.6841C31.2852 29.496 32.2621 28.5272 33.4735 28.5272H45.3956V39.9655Z" fill="currentColor"/>
        <path fill-rule="evenodd" clip-rule="evenodd" d="M45.4027 23.5413C45.4027 24.7589 44.4069 25.7383 43.1828 25.7383H33.6602V22.9079H41.6828H41.6882C42.1627 22.9079 42.5433 22.5261 42.5433 22.0614V22.0561V12.7122V12.706C42.5433 12.2394 42.1627 11.8612 41.6882 11.8612H41.6828H37.3828H37.3747C36.9075 11.8612 36.5259 12.2394 36.5259 12.706V12.7122V16.9582V16.9635C36.5259 17.431 36.9075 17.8101 37.3747 17.8101H37.3828H40.8195V20.6404H35.8818C34.6533 20.6404 33.6602 19.6592 33.6602 18.4452V11.2252C33.6602 10.0121 34.6533 9.02909 35.8818 9.02909H43.1828C44.4069 9.02909 45.4027 10.0121 45.4027 11.2252V23.5413Z" fill="currentColor"/>
        <path fill-rule="evenodd" clip-rule="evenodd" d="M28.5012 12.7124V16.9575V16.9629C28.5012 17.4303 28.1305 17.8103 27.6569 17.8103H27.647H23.3507H23.3444C22.8708 17.8103 22.4919 17.4303 22.4919 16.9629V16.9575V12.7124V12.7053C22.4919 12.2388 22.8708 11.8614 23.3444 11.8614H23.3507H27.647H27.6569C28.1305 11.8614 28.5012 12.2388 28.5012 12.7053V12.7124ZM29.1516 9.02929H21.847C20.6202 9.02929 19.6289 10.0123 19.6289 11.2254V18.4454C19.6289 19.6585 20.6202 20.6406 21.847 20.6406H29.1516C30.3747 20.6406 31.3706 19.6585 31.3706 18.4454V11.2254C31.3706 10.0123 30.3747 9.02929 29.1516 9.02929Z" fill="currentColor"/>
        <path fill-rule="evenodd" clip-rule="evenodd" d="M26.2028 32.1535V36.3397C26.2028 36.8 25.8293 37.1755 25.3657 37.1755C25.3612 37.1755 25.3603 37.1711 25.3558 37.1711V37.1755H21.1235V37.1711C21.1235 37.1711 21.119 37.1755 21.1145 37.1755C20.649 37.1755 20.2756 36.8 20.2756 36.3397V32.1535V32.1481C20.2756 31.6879 20.649 31.3141 21.1145 31.3141H21.1235H25.3558H25.3657C25.8293 31.3141 26.2028 31.6879 26.2028 32.1481V32.1535ZM26.8369 28.5266H19.6423C18.4309 28.5266 17.4531 29.4953 17.4531 30.6834V37.8017C17.4531 38.9961 18.4309 39.9648 19.6423 39.9648H26.8369C28.0438 39.9648 29.0234 38.9961 29.0234 37.8017V30.6834C29.0234 29.4953 28.0438 28.5266 26.8369 28.5266Z" fill="currentColor"/>
        <path d="M49.9154 44.8272C49.9154 45.5462 49.6223 46.192 49.146 46.6639C48.6697 47.134 48.0158 47.423 47.2905 47.423H3.70914C2.983 47.423 2.32993 47.134 1.85366 46.6639C1.37739 46.192 1.08604 45.5462 1.08424 44.8272V4.17107C1.08604 3.453 1.37739 2.80808 1.85366 2.3362C2.32993 1.86611 2.983 1.5771 3.70914 1.57621H47.2905C48.0158 1.5771 48.6697 1.86611 49.146 2.3362C49.6223 2.80808 49.9154 3.453 49.9154 4.17107V44.8272ZM49.9118 1.57799C49.2425 0.914333 48.3134 0.504009 47.2905 0.504009H3.70914C2.68624 0.504009 1.75715 0.914333 1.08784 1.57799C0.416737 2.23986 0 3.16042 0 4.17107V44.8272C0 45.8388 0.416737 46.7593 1.08784 47.4212C1.75715 48.084 2.68624 48.4961 3.70914 48.4961H47.2905C48.3134 48.4961 49.2425 48.084 49.9118 47.4212C50.5829 46.7593 50.9997 45.8388 50.9997 44.8272V4.17107C50.9997 3.16042 50.5829 2.23986 49.9118 1.57799Z" fill="currentColor"/>
      </g>
    </g>
    <defs>
      <clipPath id="clip0_22_214">
        <rect width="51" height="48" fill="currentColor" transform="translate(0 0.503906)"/>
      </clipPath>
    </defs>
  
</svg>