<svg xmlns="http://www.w3.org/2000/svg" viewBox="0 0 100 100">

    <g clip-path="url(#clip0_22_145)">
      <path d="M12.8963 8.94507H17.5937L24.0918 19.4502L24.0884 8.94507H28.7496V24.0093H24.0953L17.5627 13.5042V24.0093H12.8945L12.8963 8.94507Z" fill="currentColor"/>
      <path d="M54.0886 10.4958H58.6255V12.5227H61.0804V14.0131H58.6255L58.6289 24.011H54.0886L54.0903 14.0131H51.625V12.5261L54.092 12.5244L54.0886 10.4958Z" fill="currentColor"/>
      <path d="M31.3438 13.9919L35.8772 13.9937V24.0106H31.3438V13.9919Z" fill="currentColor"/>
      <path d="M31.332 8.94116H35.8759V12.0202H31.332V8.94116Z" fill="currentColor"/>
      <path d="M112.615 18.9214C112.615 18.9214 112.614 20.4359 112.614 21.0431C112.614 22.6405 111.669 23.2994 110.761 23.2994C109.851 23.2994 108.904 22.6405 108.904 21.0431C108.904 20.4359 108.905 18.8835 108.905 18.8835C108.905 18.8835 108.909 17.4017 108.909 16.7945C108.909 15.2041 109.858 14.5503 110.761 14.5503C111.666 14.5503 112.614 15.2041 112.614 16.7945C112.614 17.4017 112.612 18.5247 112.617 18.9266L112.615 18.9214ZM110.794 13.3083C107.134 13.3083 104.168 15.8268 104.168 18.9335C104.168 22.0402 107.136 24.5586 110.794 24.5586C114.454 24.5586 117.42 22.0402 117.42 18.9335C117.42 15.8268 114.454 13.3083 110.794 13.3083Z" fill="currentColor"/>
      <path d="M98.217 8.94507H102.692V24.0093H98.2101C98.2101 24.0093 98.2083 23.5228 98.2083 23.4297C96.4733 24.5181 94.5156 24.5164 92.9912 23.8057C92.5821 23.616 89.8906 22.3257 89.8906 18.8395C89.8906 16.1951 92.387 13.3075 95.655 13.5939C96.7305 13.6887 97.4953 14.0803 98.2204 14.4874C98.217 12.169 98.217 8.94507 98.217 8.94507ZM98.2498 18.9499C98.2498 18.9499 98.2498 17.6941 98.2498 17.1594C98.2498 15.6104 97.1794 15.2154 96.475 15.2154C95.7534 15.2154 94.6969 15.6104 94.6969 17.1594C94.6969 17.6734 94.6986 18.9447 94.6986 18.9447C94.6986 18.9447 94.6969 20.1936 94.6969 20.7266C94.6969 22.2739 95.7534 22.6793 96.4733 22.6793C97.1794 22.6793 98.2515 22.2739 98.2515 20.7266C98.2515 20.0832 98.2498 18.9499 98.2498 18.9499Z" fill="currentColor"/>
      <path d="M46.4924 13.5286C48.1878 13.4803 51.6267 14.5895 51.6025 18.5552C51.5991 19.259 51.6008 24.0061 51.6008 24.0061H47.0967C47.0967 24.0061 47.0967 18.0532 47.0967 17.427C47.0967 16.5542 46.2611 15.583 45.025 15.583C43.7907 15.583 42.8722 16.5542 42.8722 17.427C42.8722 17.8548 42.8774 24.0061 42.8774 24.0061H38.3767L38.375 13.9892L42.8791 13.9857C42.8791 13.9857 42.8739 14.7913 42.8791 15.0397C43.7458 14.2134 44.9939 13.5717 46.4924 13.5286Z" fill="currentColor"/>
      <path d="M83.3345 13.5286C85.0298 13.4803 88.4687 14.5895 88.4446 18.5552C88.4411 19.259 88.4428 24.0061 88.4428 24.0061H83.9387C83.9387 24.0061 83.9387 18.0532 83.9387 17.427C83.9387 16.5542 83.1031 15.583 81.867 15.583C80.6327 15.583 79.7142 16.5542 79.7142 17.427C79.7142 17.8548 79.7194 24.0061 79.7194 24.0061H75.2188L75.2222 13.9892L79.7211 13.9857C79.7211 13.9857 79.716 14.7913 79.7211 15.0397C80.5878 14.2134 81.8377 13.5717 83.3345 13.5286Z" fill="currentColor"/>
      <path d="M65.3057 17.4857C65.2988 16.6077 65.3178 16.0212 65.6061 15.521C65.96 14.9034 66.6109 14.6102 67.2013 14.6067H67.1995C67.79 14.6102 68.4408 14.9034 68.7947 15.521C69.083 16.0229 69.0951 16.6094 69.0882 17.4875L65.3057 17.4857ZM69.0727 20.5062C69.0727 20.5062 69.0761 20.551 69.0761 21.1133C69.0761 22.9453 67.8694 23.3524 67.1995 23.3524C66.5297 23.3524 65.3023 22.9453 65.3023 21.1133C65.3023 20.5648 65.3057 19.0451 65.3057 19.0451C65.3057 19.0451 73.8461 19.0486 73.8461 19.0434C73.8461 15.9367 70.8439 13.363 67.1564 13.363C63.4688 13.363 60.4805 15.8815 60.4805 18.9882C60.4805 22.0949 63.4688 24.6116 67.1564 24.6116C70.2155 24.6116 72.7999 22.8676 73.5889 20.5027L69.0727 20.5062Z" fill="currentColor"/>
      <path d="M118.127 10.0662C118.861 10.0662 119.225 10.3146 119.225 10.8062C119.225 11.1443 119.015 11.3996 118.664 11.4876L119.239 12.6347H118.543L118.051 11.5824H117.746V12.6347H117.119V10.0662H118.127ZM118.07 9.06226C116.789 9.06226 115.75 10.1007 115.75 11.3806C115.75 12.6606 116.789 13.699 118.07 13.699C119.351 13.699 120.391 12.6606 120.391 11.3806C120.391 10.1007 119.351 9.06226 118.07 9.06226ZM119.947 11.3823C119.947 12.4173 119.106 13.2574 118.07 13.2574C117.034 13.2574 116.194 12.4173 116.194 11.3823C116.194 10.3474 117.034 9.5073 118.07 9.5073C119.106 9.5073 119.947 10.3456 119.947 11.3823ZM117.746 11.2064H118.051C118.409 11.2064 118.581 11.0977 118.581 10.8424C118.581 10.5751 118.397 10.4595 118.02 10.4595H117.746V11.2064Z" fill="currentColor"/>
      <path d="M17.0031 32.5037C6.81058 32.5003 0 25.283 0 16.5322C0 7.78138 6.82611 0.481289 16.9876 0.503714H113.012C123.174 0.481289 130 7.78138 130 16.5322C130 25.283 123.189 32.5003 112.997 32.5037H17.0031ZM17.0342 4.44011C8.9651 4.45563 4.01211 9.84445 4.01211 16.5115C4.01211 23.1768 8.93402 28.6104 17.0342 28.5811H112.966C121.066 28.6087 125.99 23.1768 125.99 16.5115C125.99 9.84618 121.037 4.45736 112.968 4.44183L17.0342 4.44011Z" fill="currentColor"/>
    </g>
    <defs>
      <clipPath id="clip0_22_145">
        <rect width="130" height="32" fill="currentColor" transform="translate(0 0.503906)"/>
      </clipPath>
    </defs>
  
</svg>