<svg width="0" height="0" class="hidden">
  <symbol xmlns="http://www.w3.org/2000/svg" fill="none" viewBox="0 0 130 33" id="nintendo">
    <g clip-path="url(#clip0_22_145)">
      <path d="M12.8963 8.94507H17.5937L24.0918 19.4502L24.0884 8.94507H28.7496V24.0093H24.0953L17.5627 13.5042V24.0093H12.8945L12.8963 8.94507Z" fill="currentColor"/>
      <path d="M54.0886 10.4958H58.6255V12.5227H61.0804V14.0131H58.6255L58.6289 24.011H54.0886L54.0903 14.0131H51.625V12.5261L54.092 12.5244L54.0886 10.4958Z" fill="currentColor"/>
      <path d="M31.3438 13.9919L35.8772 13.9937V24.0106H31.3438V13.9919Z" fill="currentColor"/>
      <path d="M31.332 8.94116H35.8759V12.0202H31.332V8.94116Z" fill="currentColor"/>
      <path d="M112.615 18.9214C112.615 18.9214 112.614 20.4359 112.614 21.0431C112.614 22.6405 111.669 23.2994 110.761 23.2994C109.851 23.2994 108.904 22.6405 108.904 21.0431C108.904 20.4359 108.905 18.8835 108.905 18.8835C108.905 18.8835 108.909 17.4017 108.909 16.7945C108.909 15.2041 109.858 14.5503 110.761 14.5503C111.666 14.5503 112.614 15.2041 112.614 16.7945C112.614 17.4017 112.612 18.5247 112.617 18.9266L112.615 18.9214ZM110.794 13.3083C107.134 13.3083 104.168 15.8268 104.168 18.9335C104.168 22.0402 107.136 24.5586 110.794 24.5586C114.454 24.5586 117.42 22.0402 117.42 18.9335C117.42 15.8268 114.454 13.3083 110.794 13.3083Z" fill="currentColor"/>
      <path d="M98.217 8.94507H102.692V24.0093H98.2101C98.2101 24.0093 98.2083 23.5228 98.2083 23.4297C96.4733 24.5181 94.5156 24.5164 92.9912 23.8057C92.5821 23.616 89.8906 22.3257 89.8906 18.8395C89.8906 16.1951 92.387 13.3075 95.655 13.5939C96.7305 13.6887 97.4953 14.0803 98.2204 14.4874C98.217 12.169 98.217 8.94507 98.217 8.94507ZM98.2498 18.9499C98.2498 18.9499 98.2498 17.6941 98.2498 17.1594C98.2498 15.6104 97.1794 15.2154 96.475 15.2154C95.7534 15.2154 94.6969 15.6104 94.6969 17.1594C94.6969 17.6734 94.6986 18.9447 94.6986 18.9447C94.6986 18.9447 94.6969 20.1936 94.6969 20.7266C94.6969 22.2739 95.7534 22.6793 96.4733 22.6793C97.1794 22.6793 98.2515 22.2739 98.2515 20.7266C98.2515 20.0832 98.2498 18.9499 98.2498 18.9499Z" fill="currentColor"/>
      <path d="M46.4924 13.5286C48.1878 13.4803 51.6267 14.5895 51.6025 18.5552C51.5991 19.259 51.6008 24.0061 51.6008 24.0061H47.0967C47.0967 24.0061 47.0967 18.0532 47.0967 17.427C47.0967 16.5542 46.2611 15.583 45.025 15.583C43.7907 15.583 42.8722 16.5542 42.8722 17.427C42.8722 17.8548 42.8774 24.0061 42.8774 24.0061H38.3767L38.375 13.9892L42.8791 13.9857C42.8791 13.9857 42.8739 14.7913 42.8791 15.0397C43.7458 14.2134 44.9939 13.5717 46.4924 13.5286Z" fill="currentColor"/>
      <path d="M83.3345 13.5286C85.0298 13.4803 88.4687 14.5895 88.4446 18.5552C88.4411 19.259 88.4428 24.0061 88.4428 24.0061H83.9387C83.9387 24.0061 83.9387 18.0532 83.9387 17.427C83.9387 16.5542 83.1031 15.583 81.867 15.583C80.6327 15.583 79.7142 16.5542 79.7142 17.427C79.7142 17.8548 79.7194 24.0061 79.7194 24.0061H75.2188L75.2222 13.9892L79.7211 13.9857C79.7211 13.9857 79.716 14.7913 79.7211 15.0397C80.5878 14.2134 81.8377 13.5717 83.3345 13.5286Z" fill="currentColor"/>
      <path d="M65.3057 17.4857C65.2988 16.6077 65.3178 16.0212 65.6061 15.521C65.96 14.9034 66.6109 14.6102 67.2013 14.6067H67.1995C67.79 14.6102 68.4408 14.9034 68.7947 15.521C69.083 16.0229 69.0951 16.6094 69.0882 17.4875L65.3057 17.4857ZM69.0727 20.5062C69.0727 20.5062 69.0761 20.551 69.0761 21.1133C69.0761 22.9453 67.8694 23.3524 67.1995 23.3524C66.5297 23.3524 65.3023 22.9453 65.3023 21.1133C65.3023 20.5648 65.3057 19.0451 65.3057 19.0451C65.3057 19.0451 73.8461 19.0486 73.8461 19.0434C73.8461 15.9367 70.8439 13.363 67.1564 13.363C63.4688 13.363 60.4805 15.8815 60.4805 18.9882C60.4805 22.0949 63.4688 24.6116 67.1564 24.6116C70.2155 24.6116 72.7999 22.8676 73.5889 20.5027L69.0727 20.5062Z" fill="currentColor"/>
      <path d="M118.127 10.0662C118.861 10.0662 119.225 10.3146 119.225 10.8062C119.225 11.1443 119.015 11.3996 118.664 11.4876L119.239 12.6347H118.543L118.051 11.5824H117.746V12.6347H117.119V10.0662H118.127ZM118.07 9.06226C116.789 9.06226 115.75 10.1007 115.75 11.3806C115.75 12.6606 116.789 13.699 118.07 13.699C119.351 13.699 120.391 12.6606 120.391 11.3806C120.391 10.1007 119.351 9.06226 118.07 9.06226ZM119.947 11.3823C119.947 12.4173 119.106 13.2574 118.07 13.2574C117.034 13.2574 116.194 12.4173 116.194 11.3823C116.194 10.3474 117.034 9.5073 118.07 9.5073C119.106 9.5073 119.947 10.3456 119.947 11.3823ZM117.746 11.2064H118.051C118.409 11.2064 118.581 11.0977 118.581 10.8424C118.581 10.5751 118.397 10.4595 118.02 10.4595H117.746V11.2064Z" fill="currentColor"/>
      <path d="M17.0031 32.5037C6.81058 32.5003 0 25.283 0 16.5322C0 7.78138 6.82611 0.481289 16.9876 0.503714H113.012C123.174 0.481289 130 7.78138 130 16.5322C130 25.283 123.189 32.5003 112.997 32.5037H17.0031ZM17.0342 4.44011C8.9651 4.45563 4.01211 9.84445 4.01211 16.5115C4.01211 23.1768 8.93402 28.6104 17.0342 28.5811H112.966C121.066 28.6087 125.99 23.1768 125.99 16.5115C125.99 9.84618 121.037 4.45736 112.968 4.44183L17.0342 4.44011Z" fill="currentColor"/>
    </g>
    <defs>
      <clipPath id="clip0_22_145">
        <rect width="130" height="32" fill="currentColor" transform="translate(0 0.503906)"/>
      </clipPath>
    </defs>
  </symbol>
  <symbol xmlns="http://www.w3.org/2000/svg" fill="none" viewBox="0 0 109 33" id="xbox">
    <g clip-path="url(#clip0_22_138)">
      <path d="M108.947 26.4369L101.438 16.5641L108.299 7.60156H105.722L100.141 14.9135L94.5608 7.60156H91.9997L98.8451 16.5796L91.3516 26.4523H93.9284L100.141 18.2764L106.37 26.4523H108.947" fill="currentColor"/>
      <path d="M57.7869 26.4369L50.2934 16.5641L57.1387 7.60156H54.5777L48.9971 14.9135L43.4165 7.60156H40.8396L47.7007 16.5796L40.1914 26.4523H42.7683L48.9971 18.2764L55.21 26.4523H57.7869" fill="currentColor"/>
      <path d="M66.7842 24.4623H61.0455V17.6131H66.7842C68.9659 17.6131 71.5586 18.1839 71.5586 20.8835C71.5586 23.9995 68.5548 24.4623 66.7842 24.4623ZM61.0455 9.56068H66.7842C68.3335 9.56068 70.942 9.93091 70.942 12.5533C70.942 14.5279 69.4243 15.7157 66.7842 15.7157H61.0455V9.56068ZM72.0487 17.2737C71.6376 16.9344 71.2108 16.6721 70.7681 16.487C72.1751 15.7466 73.1079 14.3428 73.1079 12.723C73.1079 11.5198 72.6494 7.60156 66.7684 7.60156H58.8481V15.7311H56.208C55.8602 16.1631 55.0855 17.1966 54.7852 17.6131H58.8481V26.4369H66.7684C71.0685 26.4369 73.7402 24.3235 73.7402 20.9297C73.756 19.4488 73.1711 18.1839 72.0487 17.2737Z" fill="currentColor"/>
      <path d="M84.0461 24.8656C79.8567 24.8656 76.932 21.6416 76.932 17.0137C76.932 12.3859 79.8567 9.16185 84.0461 9.16185C88.2197 9.16185 91.1286 12.3859 91.1286 17.0137C91.1286 21.6262 88.2197 24.8656 84.0461 24.8656ZM84.0461 7.17188C78.5445 7.17188 74.7188 11.2135 74.7188 17.0137C74.7188 22.814 78.5445 26.8556 84.0461 26.8556C89.516 26.8556 93.3418 22.814 93.3418 17.0137C93.3418 11.2135 89.516 7.17188 84.0461 7.17188Z" fill="currentColor"/>
      <path d="M14.8384 32.4856C12.3106 32.2504 9.74994 31.3628 7.54728 29.9585C5.70259 28.7822 5.28617 28.301 5.28617 27.3351C5.28617 25.3997 7.46692 22.0064 11.1928 18.1426C13.3115 15.947 16.2593 13.3735 16.5771 13.4412C17.1981 13.5767 22.155 18.303 24.0106 20.5236C26.9475 24.0452 28.2991 26.9252 27.6123 28.2084C27.09 29.185 23.8572 31.0919 21.4829 31.8226C19.525 32.4286 16.9533 32.6852 14.8384 32.4856ZM2.79858 25.3248C1.26804 23.0294 0.493639 20.766 0.117396 17.4975C-0.00680092 16.4175 0.0370332 15.8008 0.398665 13.5838C0.847964 10.8214 2.45522 7.62775 4.39122 5.66023C5.21676 4.8226 5.28982 4.80122 6.29435 5.1327C7.5144 5.53547 8.81481 6.41231 10.8348 8.19805L12.0147 9.23884L11.3718 10.0123C8.38013 13.5981 5.22772 18.6808 4.04055 21.8246C3.394 23.5319 3.13464 25.25 3.41226 25.9628C3.59856 26.444 3.42687 26.2658 2.79858 25.3248ZM29.6835 25.7133C29.8333 24.9933 29.6433 23.6674 29.194 22.3307C28.226 19.4365 24.9786 14.0472 21.9979 10.3866L21.0591 9.23528L22.0746 8.3228C23.4006 7.13231 24.3211 6.41944 25.3147 5.81706C26.1001 5.33943 27.2178 4.91884 27.7 4.91884C27.9959 4.91884 29.0406 5.97745 29.8844 7.13587C31.1921 8.92518 32.1528 11.0994 32.6387 13.3592C32.9528 14.8206 32.9784 17.9466 32.6898 19.4008C32.4524 20.5949 31.9483 22.1454 31.4588 23.2004C31.0898 23.9882 30.1766 25.5173 29.7748 26.0163C29.5703 26.2658 29.5703 26.2658 29.6835 25.7133ZM15.1087 4.36993C13.7315 3.68557 11.6092 2.95488 10.4367 2.75527C10.0239 2.68755 9.32621 2.64834 8.87691 2.66973C7.90891 2.71606 7.95274 2.66973 9.5052 1.95329C10.7947 1.35804 11.8722 1.00874 13.3334 0.709329C14.9772 0.370715 18.0638 0.367151 19.682 0.702201C21.4281 1.0622 23.4846 1.81072 24.6426 2.50577L24.986 2.7125L24.1969 2.67329C22.6262 2.59488 20.3395 3.21507 17.8812 4.38419C17.1396 4.73706 16.4967 5.01864 16.4493 5.00795C16.4054 5.00082 15.799 4.71211 15.1087 4.36993Z" fill="currentColor"/>
    </g>
    <defs>
      <clipPath id="clip0_22_138">
        <rect width="109" height="32" fill="currentColor" transform="translate(0 0.503906)"/>
      </clipPath>
    </defs>
  </symbol>
  <symbol xmlns="http://www.w3.org/2000/svg" fill="none" viewBox="0 0 41 49" id="epic">
    <g clip-path="url(#clip0_22_194)">
      <mask id="mask0_22_194" maskUnits="userSpaceOnUse" x="-18" y="-10" width="77" height="69">
        <path d="M-17.6172 -9.91106H58.4065V58.8945H-17.6172V-9.91106Z" fill="currentColor"/>
      </mask>
      <g mask="url(#mask0_22_194)">
        <path fill-rule="evenodd" clip-rule="evenodd" d="M37.2767 0.00387955H3.7233C1.00368 0.00387955 0 1.03759 0 3.83987V37.6538C0 37.9709 0.0124167 38.2655 0.0396163 38.5384C0.101533 39.1501 0.113191 39.7428 0.665545 40.4177C0.719521 40.4838 1.28345 40.916 1.28345 40.916C1.58678 41.0692 1.7939 41.182 2.13601 41.3238L18.6581 48.4531C19.5159 48.8581 19.8745 49.0159 20.4975 49.0032V49.0033C20.4983 49.0033 20.4991 49.0033 20.4999 49.0033C20.5008 49.0033 20.5016 49.0033 20.5024 49.0033V49.0032C21.1254 49.0159 21.484 48.8581 22.3418 48.4531L38.8639 41.3238C39.2061 41.182 39.4131 41.0692 39.7165 40.916C39.7165 40.916 40.2805 40.4838 40.3344 40.4177C40.8867 39.7428 40.8984 39.1501 40.9603 38.5384C40.9875 38.2655 41 37.9709 41 37.6538V3.83987C41 1.03759 39.9962 0.00387955 37.2767 0.00387955Z" fill="currentColor"/>
        <path d="M35.031 33.9994L35.0234 34.0774L35.0158 34.1631L35.0006 34.2411L34.978 34.3191L34.9633 34.3893L34.9405 34.4673L34.9103 34.5375L34.8799 34.6L34.8501 34.6701L34.8123 34.7325L34.7744 34.7949L34.7294 34.8573L34.6915 34.9197L34.6465 34.9742L34.5935 35.0289L34.5485 35.0757L34.488 35.1303L34.4354 35.1771L34.3748 35.2239L34.3147 35.2624L34.2545 35.3092L34.1863 35.3482L34.1186 35.3794L34.0509 35.4184L33.9752 35.4496L33.8999 35.4808L33.8246 35.5042L33.7494 35.5276L33.6812 35.551L33.6059 35.5666L33.5382 35.5822L33.4705 35.5978L33.3948 35.6134L33.3194 35.6212L33.2518 35.629L33.176 35.6368L33.0932 35.6447L33.0179 35.6524H32.9426H32.8597H32.7764H32.7012L32.6258 35.6447H32.543L32.4677 35.6368L32.392 35.629L32.3091 35.6212L32.2339 35.6056L32.1586 35.5978L32.0829 35.5822L32.0075 35.5666L31.9322 35.551L31.857 35.5354L31.7813 35.5121L31.7135 35.4964L31.6383 35.473L31.5629 35.4496L31.4949 35.4184L31.4196 35.395L31.3518 35.3717L31.2765 35.3404L31.2084 35.3092L31.1407 35.278L31.0729 35.2395L31.0048 35.2083L30.9371 35.1692L30.8769 35.1303L30.8088 35.0913L30.7486 35.0523L30.6881 35.0133L30.6279 34.9665L30.5678 34.9197L30.5072 34.8729L30.447 34.8261L30.394 34.7793L30.3339 34.7247L30.3793 34.6624L30.4319 34.6077L30.4773 34.5453L30.5299 34.4829L30.5754 34.4283L30.6203 34.366L30.6734 34.3035L30.7183 34.2489L30.7714 34.1866L30.8164 34.1319L30.8693 34.0696L30.9144 34.0071L30.9598 33.9525L31.0124 33.8902L31.0578 33.8277L31.1103 33.7732L31.1558 33.7108L31.2159 33.7576L31.2837 33.8044L31.3442 33.8512L31.412 33.898L31.4725 33.937L31.5403 33.9837L31.6004 34.0228L31.6686 34.0539L31.7287 34.093L31.7964 34.1242L31.8646 34.1553L31.9322 34.1866L32.0001 34.21L32.0682 34.2411L32.1434 34.2645L32.2188 34.2879L32.2864 34.3113L32.3622 34.327L32.4375 34.3426L32.5127 34.3581L32.5956 34.366L32.6713 34.3815H32.7466L32.8294 34.3893H32.9048H32.9951L33.078 34.3815L33.1538 34.366L33.2214 34.3503L33.2892 34.3347L33.3497 34.3113L33.4024 34.2802L33.4629 34.2334L33.5079 34.1787L33.5382 34.1163L33.561 34.0462L33.5684 33.9681V33.9525L33.561 33.8589L33.5307 33.7809L33.4928 33.7264L33.4402 33.6795L33.3796 33.6327L33.3194 33.6016L33.2518 33.5704L33.176 33.5391L33.0856 33.5002L33.033 33.4846L32.9729 33.469L32.9048 33.4455L32.837 33.43L32.7617 33.4065L32.686 33.391L32.6032 33.3676L32.5278 33.352L32.445 33.3286L32.3697 33.313L32.2939 33.2896L32.2188 33.274L32.1434 33.2506L32.0752 33.2272L32.0001 33.2116L31.9322 33.1882L31.8646 33.1648L31.7964 33.1414L31.7135 33.1101L31.6383 33.0789L31.5629 33.0478L31.4872 33.0165L31.4196 32.9776L31.3442 32.9386L31.2837 32.8996L31.2159 32.8606L31.1558 32.8138L31.0952 32.7749L31.0427 32.728L30.9897 32.6734L30.9371 32.6188L30.8916 32.5641L30.8467 32.5096L30.8088 32.4551L30.7714 32.3926L30.7335 32.3225L30.7032 32.2684L30.6805 32.2059L30.6583 32.1357L30.6355 32.0733L30.6203 31.9953L30.6052 31.9251L30.5976 31.8471L30.5901 31.7691L30.5825 31.6834V31.5975V31.5819V31.5039L30.5901 31.426L30.5976 31.3557L30.6052 31.2777L30.6203 31.2076L30.6355 31.1374L30.6583 31.0671L30.6734 30.997L30.7032 30.9268L30.7335 30.8566L30.7638 30.7864L30.8013 30.7161L30.839 30.646L30.884 30.5836L30.9296 30.5212L30.9821 30.4588L31.0351 30.4043L31.0877 30.3418L31.1483 30.2872L31.2008 30.2482L31.2614 30.2014L31.3216 30.1546L31.3817 30.1156L31.4498 30.0766L31.5176 30.0454L31.5852 30.0064L31.6534 29.9753L31.7287 29.9518L31.8039 29.9206L31.8721 29.8972L31.9322 29.8816L32.0001 29.866L32.0682 29.8504L32.1434 29.8349L32.2112 29.8192L32.2864 29.8115L32.3622 29.8036L32.4375 29.7958L32.5127 29.788H32.588H32.6713H32.7542H32.837L32.9199 29.7958L33.0027 29.8036H33.078L33.1613 29.8115L33.2366 29.827L33.3194 29.8349L33.3948 29.8504L33.4629 29.866L33.5382 29.8816L33.6135 29.8972L33.6812 29.9128L33.7569 29.9362L33.8246 29.9596L33.8924 29.9753L33.9681 30.0064L34.0358 30.0298L34.1035 30.061L34.1712 30.0922L34.2469 30.1234L34.3147 30.1624L34.3748 30.1936L34.443 30.2326L34.5107 30.2716L34.5709 30.3106L34.6389 30.3575L34.6992 30.3963L34.7597 30.4432L34.8199 30.49L34.8799 30.5368L34.835 30.5992L34.7971 30.6616L34.7521 30.724L34.7067 30.7864L34.6617 30.8566L34.6238 30.9189L34.5784 30.9814L34.5333 31.0438L34.4956 31.1062L34.4505 31.1686L34.4051 31.231L34.3672 31.2934L34.3223 31.3636L34.2767 31.426L34.2318 31.4883L34.1939 31.5507L34.1489 31.6131L34.0884 31.5664L34.0207 31.5273L33.9605 31.4883L33.8999 31.4415L33.8322 31.4104L33.7716 31.3713L33.7039 31.3401L33.6438 31.3089L33.5756 31.2777L33.5155 31.2466L33.4478 31.2232L33.3872 31.1919L33.3043 31.1686L33.229 31.1451L33.1538 31.1218L33.078 31.1062L33.0027 31.0906L32.9275 31.0749L32.8522 31.0671L32.7764 31.0593L32.7088 31.0515H32.6334H32.543L32.4602 31.0671L32.3844 31.0828L32.3168 31.0983L32.2566 31.1296L32.2036 31.1607L32.1358 31.2232L32.0904 31.2934L32.0606 31.3636L32.0529 31.4415V31.4572L32.0606 31.5585L32.098 31.6443L32.1283 31.6911L32.1808 31.7458L32.249 31.7847L32.3091 31.8237L32.3844 31.8549L32.4677 31.8862L32.5582 31.9173L32.6183 31.9329L32.6785 31.9563L32.7466 31.9719L32.8143 31.9953L32.8895 32.0109L32.9729 32.0343L33.0558 32.0576L33.1386 32.0811L33.2214 32.0967L33.2967 32.1201L33.3796 32.1435L33.4553 32.1591L33.5307 32.1825L33.6059 32.2059L33.6736 32.2293L33.7494 32.2527L33.8171 32.2761L33.8848 32.2995L33.9681 32.3302L34.0433 32.3693L34.1186 32.4004L34.1939 32.4394L34.2621 32.4785L34.3299 32.5174L34.3899 32.5564L34.4505 32.6032L34.5107 32.6422L34.5709 32.6968L34.6314 32.7514L34.684 32.8138L34.7369 32.8684L34.7819 32.9308L34.8274 33.001L34.8648 33.0633L34.9027 33.1336L34.933 33.196L34.9557 33.2661L34.978 33.3363L34.9931 33.4065L35.0082 33.4846L35.0234 33.5626L35.031 33.6406L35.0386 33.7264V33.8121V33.8277V33.9136L35.031 33.9994ZM29.7436 35.5589H29.6679H29.5927H29.5174H29.4421H29.3664H29.291H29.2158H29.1405H29.0572H28.9819H28.9067H28.8314H28.7555H28.6804H28.605H28.5298H28.454H28.3787H28.3035H28.2282H28.1529H28.0772H28.0019H27.9266H27.8513H27.7755H27.7003H27.625H27.5421H27.4664H27.3911H27.3158H27.2406H27.1649H27.0895H27.0143H26.9389H26.8632H26.788H26.7127H26.6374H26.5616H26.4864H26.4111H26.3358H26.2601H26.1848H26.1019H26.0266H25.9514H25.8756H25.8003H25.725H25.6498H25.5741H25.4988H25.4235V35.4808V35.4028V35.3248V35.2472V35.1692V35.0913V35.0133V34.9354V34.8573V34.7793V34.7013V34.6233V34.5453V34.4673V34.3893V34.3113V34.2334V34.1553V34.0851V34.0071V33.9291V33.8512V33.7732V33.6951V33.6172V33.5391V33.4611V33.3831V33.3052V33.2272V33.1492V33.0712V32.9932V32.9152V32.8371V32.7592V32.6812V32.6032V32.5253V32.4472V32.3693V32.2917V32.2137V32.1357V32.0576V31.9797V31.9017V31.8237V31.7458V31.6677V31.5897V31.5117V31.4337V31.3557V31.2855V31.2076V31.1296V31.0515V30.9736V30.8955V30.8176V30.7395V30.6616V30.5836V30.5056V30.4276V30.3495V30.2716V30.1936V30.1156V30.0376V29.9596V29.8816H25.4988H25.5741H25.6498H25.725H25.8003H25.8756H25.9514H26.0266H26.1019H26.1772H26.2529H26.3283H26.4035H26.4788H26.5469H26.6222H26.6975H26.7729H26.8485H26.9238H26.9991H27.0744H27.1501H27.2254H27.3006H27.376H27.4517H27.527H27.6023H27.6775H27.7533H27.8287H27.9038H27.9791H28.0544H28.1302H28.2055H28.2807H28.356H28.4318H28.507H28.5823H28.6576H28.7258H28.8011H28.8763H28.9517H29.0274H29.1026H29.1779H29.2532H29.3289H29.4042H29.4795H29.5548H29.6305H29.7058H29.7811V29.9596V30.0298V30.1078V30.1858V30.2638V30.334V30.412V30.49V30.5602V30.6382V30.7161V30.7864V30.8644V30.9423V31.0204V31.0906V31.1686H29.7058H29.6305H29.5548H29.4795H29.4042H29.3289H29.2608H29.1855H29.1102H29.0349H28.9592H28.8839H28.8086H28.7333H28.6576H28.5823H28.507H28.4318H28.356H28.2883H28.213H28.1377H28.062H27.9868H27.9114H27.8362H27.7604H27.6851H27.6099H27.5346H27.4588H27.3835H27.3158H27.2406H27.1649H27.0895H27.0143H26.9389H26.8632V31.2466V31.3245V31.4025V31.4805V31.5585V31.6287V31.7067V31.7847V31.8627V31.9407V32.0187V32.0967H26.9389H27.0143H27.0895H27.1649H27.2406H27.3158H27.3911H27.4664H27.5346H27.6099H27.6851H27.7604H27.8362H27.9114H27.9868H28.062H28.1377H28.213H28.2883H28.3636H28.4393H28.5146H28.5899H28.6653H28.7409H28.8162H28.8839H28.9592H29.0349H29.1102H29.1855H29.2608H29.3365H29.4118H29.4871V32.1747V32.2449V32.3225V32.4004V32.4706V32.5486V32.6266V32.6968V32.7749V32.8528V32.9308V33.001V33.0789V33.157V33.2272V33.3052H29.4118H29.3365H29.2608H29.1855H29.1102H29.0349H28.9592H28.8839H28.8162H28.7409H28.6653H28.5899H28.5146H28.4393H28.3636H28.2883H28.213H28.1377H28.062H27.9868H27.9114H27.8362H27.7604H27.6851H27.6099H27.5346H27.4664H27.3911H27.3158H27.2406H27.1649H27.0895H27.0143H26.9389H26.8632V33.3831V33.469V33.547V33.625V33.7108V33.7888V33.8668V33.9525V34.0305V34.1085V34.1943V34.2723H26.9389H27.0143H27.0895H27.1649H27.2406H27.3158H27.3911H27.4664H27.5421H27.625H27.7003H27.7755H27.8513H27.9266H28.0019H28.0772H28.1529H28.2282H28.3035H28.3787H28.454H28.5298H28.605H28.6804H28.7555H28.8314H28.9067H28.9819H29.0572H29.1405H29.2158H29.291H29.3664H29.4421H29.5174H29.5927H29.6679H29.7436H29.819V34.3503V34.4205V34.4985V34.5765V34.6545V34.7247V34.8027V34.8806V34.9509V35.0289V35.1068V35.1771V35.2546V35.3326V35.4105V35.4808V35.5589H29.7436ZM24.2349 35.5589H24.1597H24.0843H24.0011H23.9259H23.8505H23.7752H23.6995H23.6242H23.5413H23.4661H23.3907H23.315H23.2398H23.1645H23.0817H23.0059H22.9306H22.8553V35.4808V35.4028V35.3248V35.2468V35.1683V35.0904V35.0124V34.9343V34.8564V34.7784V34.7004V34.622V34.544V34.4659V34.388V34.3099V34.2315V34.1534V34.0755V33.9975V33.9195V33.8415V33.7631V33.6851V33.6071V33.529V33.4511V33.3731V33.2946V33.2165V33.1386V33.0606V32.9827V32.9047V32.8262V32.7482V32.6702V32.5922V32.5142V32.4357V32.3578V32.2798V32.2017L22.8175 32.2641L22.7725 32.3348L22.7346 32.3972L22.6896 32.4597L22.6518 32.5298L22.6062 32.5922L22.5689 32.6546L22.531 32.7253L22.486 32.7876L22.4481 32.85L22.4028 32.9125L22.3653 32.9831L22.3199 33.0455L22.2825 33.1079L22.2445 33.1781L22.1991 33.2409L22.1617 33.3034L22.1162 33.3735L22.0789 33.436L22.0335 33.4983L21.996 33.569L21.9581 33.6314L21.9127 33.6938L21.8753 33.764L21.8299 33.8268L21.7925 33.8892L21.747 33.9517L21.7091 34.0218L21.6717 34.0846L21.6263 34.1471L21.5889 34.2173L21.5434 34.2797L21.5056 34.342L21.4606 34.4128L21.4227 34.4751H21.3928L21.3475 34.4049L21.3095 34.342L21.2645 34.2718L21.2267 34.2095L21.1817 34.1393L21.1438 34.0764L21.0989 34.0062L21.0609 33.9438L21.0155 33.8736L20.9781 33.8113L20.9326 33.7405L20.8953 33.6782L20.8498 33.6079L20.8119 33.5456L20.767 33.4749L20.7291 33.4126L20.6841 33.3423L20.6387 33.28L20.6008 33.2093L20.5558 33.1469L20.518 33.0767L20.4729 33.0144L20.4351 32.9436L20.3901 32.8813L20.3522 32.811L20.3068 32.7487L20.2694 32.6785L20.2239 32.6156L20.1865 32.5454L20.1411 32.483L20.1032 32.4128L20.0583 32.3505L20.0203 32.2798L19.9753 32.2174V32.2953V32.3734V32.4514V32.5298V32.6078V32.6858V32.7638V32.8418V32.9202V32.9983V33.0685V33.1464V33.2245V33.3024V33.3809V33.4589V33.5369V33.6148V33.6929V33.7709V33.8493V33.9273V34.0054V34.0833V34.1613V34.2393V34.3178V34.3957V34.4738V34.5517V34.6297V34.7081V34.7784V34.8564V34.9343V35.0124V35.0904V35.1683V35.2468V35.3248V35.4028V35.4808V35.5589H19.9001H19.8244H19.749H19.6738H19.5985H19.5228H19.4475H19.3722H19.2969H19.2212H19.1459H19.0706H18.9953H18.9196H18.8443H18.769H18.6937H18.618H18.5427V35.4808V35.4028V35.3248V35.2472V35.1692V35.0913V35.0133V34.9354V34.8573V34.7793V34.7013V34.6233V34.5453V34.4673V34.3893V34.3113V34.2334V34.1553V34.0851V34.0071V33.9291V33.8512V33.7732V33.6951V33.6172V33.5391V33.4611V33.3831V33.3052V33.2272V33.1492V33.0712V32.9932V32.9152V32.8371V32.7592V32.6812V32.6032V32.5253V32.4472V32.3693V32.2917V32.2137V32.1357V32.0576V31.9797V31.9017V31.8237V31.7458V31.6677V31.5897V31.5117V31.4337V31.3557V31.2855V31.2076V31.1296V31.0515V30.9736V30.8955V30.8176V30.7395V30.6616V30.5836V30.5056V30.4276V30.3495V30.2716V30.1936V30.1156V30.0376V29.9596V29.8816H18.618H18.6937H18.7615H18.8367H18.912H18.9877H19.0554H19.1307H19.2065H19.2817H19.3495H19.4247H19.5005H19.5758H19.6434H19.7187H19.7945H19.8698H19.9375H20.0127H20.0885L20.1259 29.944L20.1638 30.0142L20.2087 30.0761L20.2466 30.1463L20.2845 30.2087L20.3219 30.279L20.3598 30.3408L20.4049 30.4111L20.4426 30.4735L20.4805 30.5359L20.518 30.6056L20.5558 30.668L20.6008 30.7382L20.6387 30.8006L20.6765 30.8703L20.7139 30.9327L20.7594 30.9951L20.7973 31.0649L20.8346 31.1272L20.8725 31.1974L20.91 31.2599L20.9554 31.3296L20.9933 31.392L21.0306 31.4621L21.0685 31.5241L21.106 31.5865L21.1514 31.6567L21.1893 31.7191L21.2267 31.7893L21.2645 31.8513L21.3019 31.9215L21.3475 31.9839L21.3853 32.0536L21.4227 32.116L21.4606 32.0536L21.4984 31.9839L21.5434 31.9215L21.5812 31.8513L21.6187 31.7893L21.6565 31.7191L21.7016 31.6567L21.7394 31.5865L21.7773 31.5241L21.8147 31.4621L21.8601 31.392L21.8975 31.3296L21.9355 31.2599L21.9732 31.1974L22.0182 31.1272L22.0561 31.0649L22.094 30.9951L22.1314 30.9327L22.1694 30.8703L22.2143 30.8006L22.2521 30.7382L22.29 30.668L22.3275 30.6056L22.3729 30.5359L22.4104 30.4735L22.4481 30.4111L22.486 30.3408L22.531 30.279L22.5689 30.2087L22.6062 30.1463L22.6442 30.0761L22.6896 30.0142L22.727 29.944L22.7649 29.8816H22.8401H22.9155H22.9836H23.0589H23.1342H23.2095H23.2776H23.353H23.4282H23.5035H23.5717H23.6469H23.7222H23.7975H23.8656H23.941H24.0162H24.0915H24.1597H24.2349H24.3102V29.9596V30.0376V30.1156V30.1936V30.2716V30.3495V30.4276V30.5056V30.5836V30.6616V30.7395V30.8176V30.8955V30.9736V31.0515V31.1296V31.2076V31.2855V31.3557V31.4337V31.5117V31.5897V31.6677V31.7458V31.8237V31.9017V31.9797V32.0576V32.1357V32.2137V32.2917V32.3693V32.4472V32.5253V32.6032V32.6812V32.7592V32.8371V32.9152V32.9932V33.0712V33.1492V33.2272V33.3052V33.3831V33.4611V33.5391V33.6172V33.6951V33.7732V33.8512V33.9291V34.0071V34.0851V34.1553V34.2334V34.3113V34.3893V34.4673V34.5453V34.6233V34.7013V34.7793V34.8573V34.9354V35.0133V35.0913V35.1692V35.2472V35.3248V35.4028V35.4808V35.5589H24.2349ZM15.4872 33.2194L15.4645 33.1488L15.4347 33.0707L15.4044 33.0005L15.3816 32.9299L15.3518 32.8597L15.3216 32.7816L15.2988 32.711L15.2684 32.6408L15.2387 32.5707L15.2159 32.5L15.1856 32.422L15.1634 32.3518L15.133 32.2811L15.1027 32.2109L15.0801 32.1407L15.0502 32.0623L15.0199 31.9921L14.9972 31.9219L14.9669 31.8513L14.9371 31.7733L14.9143 31.7026L14.884 31.6324L14.8542 31.7026L14.8316 31.7733L14.8012 31.8513L14.7709 31.9219L14.7486 31.9921L14.7184 32.0623L14.688 32.1407L14.6582 32.2109L14.6354 32.2811L14.6052 32.3518L14.5749 32.422L14.5526 32.5L14.5223 32.5707L14.492 32.6408L14.4694 32.711L14.4395 32.7816L14.4091 32.8597L14.3789 32.9299L14.3567 33.0005L14.3263 33.0707L14.296 33.1488L14.2733 33.2194L14.2435 33.2896H14.3187H14.394H14.4694H14.545H14.6203H14.6956H14.7709H14.8467H14.9143H14.9896H15.0654H15.1406H15.2159H15.2913H15.3665H15.4422H15.5175L15.4872 33.2194ZM17.8549 35.5589H17.7793H17.7114H17.6362H17.5605H17.4852H17.4099H17.3422H17.2664H17.1912H17.1159H17.0406H16.9649H16.8971H16.8219H16.7465H16.6708H16.5956H16.5278H16.4526H16.3769L16.347 35.4886L16.3242 35.4184L16.294 35.3482L16.2637 35.2702L16.2414 35.2004L16.2111 35.1303L16.1808 35.0601L16.1585 34.9899L16.1283 34.9197L16.098 34.8495L16.0753 34.7793L16.0454 34.7013L16.0151 34.6311L15.9924 34.5609L15.962 34.4907H15.8868H15.8115H15.7362H15.661H15.5928H15.5175H15.4422H15.3665H15.2913H15.2159H15.1406H15.0654H14.9896H14.9143H14.8467H14.7709H14.6956H14.6203H14.545H14.4694H14.394H14.3187H14.2435H14.1682H14.1H14.0248H13.9494H13.8737H13.7984L13.7686 34.5609L13.7459 34.6311L13.7155 34.7013L13.6853 34.7793L13.663 34.8495L13.6328 34.9197L13.6024 34.9899L13.5797 35.0601L13.5499 35.1303L13.5196 35.2004L13.4968 35.2702L13.4669 35.3482L13.4367 35.4184L13.414 35.4886L13.3837 35.5589H13.3084H13.2331H13.1579H13.0821H13.0068H12.924H12.8487H12.7734H12.6977H12.6224H12.5471H12.4718H12.396H12.3208H12.2456H12.1627H12.0869H12.0117H11.9363H11.8611L11.8909 35.4886L11.9212 35.4184L11.9515 35.3482L11.9814 35.2702L12.0041 35.2004L12.0344 35.1303L12.0646 35.0601L12.0945 34.9899L12.1248 34.9197L12.1551 34.8417L12.1849 34.7715L12.2153 34.7013L12.2379 34.6311L12.2682 34.5609L12.298 34.4907L12.3284 34.4128L12.3586 34.3426L12.3885 34.2723L12.4188 34.2021L12.4491 34.1319L12.4718 34.0617L12.5016 33.9837L12.5319 33.9136L12.5623 33.8434L12.5921 33.7732L12.6224 33.703L12.6527 33.6327L12.6825 33.5547L12.7053 33.4846L12.7356 33.4144L12.7658 33.3442L12.7957 33.274L12.826 33.2038L12.8562 33.1258L12.8861 33.0556L12.9164 32.9854L12.9391 32.9152L12.9694 32.8451L12.9992 32.7749L13.0296 32.6968L13.0599 32.6266L13.0897 32.5564L13.1199 32.4862L13.1503 32.4161L13.173 32.3458L13.2029 32.2761L13.2331 32.1981L13.2634 32.1279L13.2933 32.0576L13.3235 31.9874L13.3538 31.9173L13.3837 31.8471L13.4064 31.7691L13.4367 31.699L13.4669 31.6287L13.4968 31.5585L13.5272 31.4883L13.5574 31.4181L13.5873 31.3401L13.6176 31.27L13.6403 31.1998L13.6705 31.1296L13.7004 31.0593L13.7307 30.9891L13.761 30.9112L13.7908 30.841L13.8211 30.7708L13.8515 30.7006L13.8737 30.6304L13.904 30.5602L13.9343 30.4822L13.9646 30.412L13.9945 30.3418L14.0248 30.2716L14.055 30.2014L14.0848 30.1313L14.1077 30.0532L14.1379 29.983L14.1682 29.9128L14.198 29.8426H14.2733H14.3415H14.4167H14.492H14.5678H14.6354H14.7107H14.786H14.8618H14.9296H15.0047H15.0801H15.1558H15.2235H15.2988H15.374H15.4498H15.5175H15.5928L15.6231 29.9128L15.6534 29.983L15.6833 30.0532L15.7135 30.1313L15.7362 30.2014L15.7661 30.2716L15.7964 30.3418L15.8266 30.412L15.857 30.4822L15.8868 30.5602L15.9171 30.6304L15.9474 30.7006L15.9696 30.7708L16 30.841L16.0303 30.9112L16.0606 30.9891L16.0904 31.0593L16.1207 31.1296L16.151 31.1998L16.1808 31.27L16.2035 31.3401L16.2338 31.4181L16.2637 31.4883L16.294 31.5585L16.3242 31.6287L16.3546 31.699L16.3844 31.7691L16.4146 31.8471L16.4374 31.9173L16.4673 31.9874L16.4975 32.0576L16.5278 32.1279L16.5581 32.1981L16.588 32.2761L16.6183 32.3458L16.6485 32.4161L16.6708 32.4862L16.7011 32.5564L16.7314 32.6266L16.7613 32.6968L16.7915 32.7749L16.8219 32.8451L16.8522 32.9152L16.882 32.9854L16.9047 33.0556L16.935 33.1258L16.9649 33.2038L16.9951 33.274L17.0254 33.3442L17.0557 33.4144L17.0856 33.4846L17.1159 33.5547L17.1385 33.6327L17.1684 33.703L17.1987 33.7732L17.229 33.8434L17.2588 33.9136L17.2892 33.9837L17.3195 34.0617L17.3498 34.1319L17.372 34.2021L17.4023 34.2723L17.4327 34.3426L17.4625 34.4128L17.4927 34.4907L17.5231 34.5609L17.5533 34.6311L17.5831 34.7013L17.6059 34.7715L17.6362 34.8417L17.6661 34.9197L17.6963 34.9899L17.7265 35.0601L17.7564 35.1303L17.7867 35.2004L17.817 35.2702L17.8398 35.3482L17.8696 35.4184L17.8999 35.4886L17.9301 35.5589H17.8549ZM11.2499 34.8338L11.1894 34.8806L11.1367 34.9197L11.0762 34.9665L11.016 35.0055L10.9559 35.0523L10.8953 35.0913L10.8352 35.1303L10.767 35.1692L10.6993 35.2083L10.6315 35.2472L10.5634 35.278L10.4957 35.317L10.4204 35.3482L10.3528 35.3794L10.277 35.4105L10.2093 35.4418L10.1415 35.4652L10.0734 35.4886L10.0057 35.5121L9.9304 35.5354L9.86274 35.5589L9.78697 35.5744L9.71923 35.59L9.64397 35.6056L9.56828 35.6212L9.49293 35.629L9.41006 35.6368L9.3348 35.6447L9.25193 35.6524L9.17617 35.6602L9.09338 35.668H9.01052H8.92757H8.84479H8.76902L8.69375 35.6602L8.61089 35.6524L8.53562 35.6447L8.46036 35.6368L8.38459 35.629L8.30933 35.6134L8.23398 35.5978L8.16632 35.5822L8.09063 35.5666L8.02289 35.5432L7.94762 35.5276L7.87946 35.5042L7.81171 35.473L7.74396 35.4496L7.66879 35.4184L7.60062 35.3872L7.53287 35.3561L7.46521 35.3248L7.39696 35.2859L7.3369 35.2472L7.26915 35.2083L7.20859 35.1692L7.14845 35.1303L7.08788 35.0834L7.02774 35.0367L6.96751 34.9899L6.91455 34.9431L6.862 34.8963L6.80896 34.8417L6.75642 34.7949L6.70337 34.7403L6.65083 34.6857L6.60538 34.6311L6.56036 34.5688L6.51492 34.5141L6.47707 34.4517L6.43205 34.3893L6.39429 34.327L6.35679 34.2645L6.31894 34.1943L6.2811 34.1319L6.25128 34.0617L6.22096 33.9915L6.19072 33.9213L6.16081 33.8512L6.13809 33.7888L6.10777 33.7185L6.09265 33.6483L6.07035 33.5782L6.05523 33.5002L6.0325 33.43L6.01738 33.352L6.00978 33.2818L5.99458 33.2038L5.98714 33.1336L5.97945 33.0556L5.97236 32.9776L5.96484 32.8996V32.8138V32.7358V32.7202V32.6422L5.97236 32.5564V32.4785L5.97945 32.4004L5.98714 32.3146L6.00226 32.2371L6.00978 32.1591L6.0249 32.0889L6.04762 32.0109L6.06283 31.9329L6.08504 31.8627L6.10777 31.7847L6.13049 31.7145L6.16081 31.6365L6.19072 31.5664L6.22096 31.4962L6.25128 31.426L6.2811 31.3557L6.31894 31.2855L6.35679 31.2232L6.39429 31.1607L6.43205 31.0983L6.46998 31.0359L6.51492 30.9736L6.56036 30.9112L6.60538 30.8488L6.65083 30.7941L6.70337 30.7395L6.74881 30.6849L6.80144 30.6304L6.8544 30.5757L6.90694 30.529L6.96751 30.4744L7.02013 30.4276L7.08028 30.3808L7.14084 30.3418L7.20099 30.295L7.26164 30.256L7.3217 30.217L7.38944 30.178L7.45761 30.139L7.52527 30.1L7.59302 30.0688L7.6611 30.0376L7.73645 29.9986L7.79659 29.9753L7.87185 29.9518L7.9401 29.9206L8.00777 29.905L8.07543 29.8816L8.15111 29.866L8.21886 29.8426L8.29412 29.827L8.36947 29.8192L8.44516 29.8036L8.5205 29.7958L8.59568 29.788L8.67103 29.7802L8.7468 29.7724H8.82967H8.90493H8.98771H9.07058L9.15395 29.7802L9.23682 29.788H9.31208L9.38734 29.7958L9.47021 29.8115L9.53838 29.8192L9.61364 29.8349L9.68899 29.8504L9.75707 29.866L9.82473 29.8816L9.89256 29.8972L9.96073 29.9206L10.0284 29.9362L10.0885 29.9596L10.1567 29.983L10.2244 30.0142L10.2921 30.0454L10.3603 30.0766L10.428 30.1156L10.4957 30.1468L10.5563 30.1858L10.624 30.2248L10.6841 30.2638L10.7523 30.3028L10.8124 30.3495L10.8726 30.3886L10.9332 30.4354L10.9933 30.4822L11.0539 30.5368L11.114 30.5836L11.0686 30.646L11.016 30.7006L10.9706 30.7629L10.918 30.8253L10.8726 30.8878L10.8276 30.9423L10.7745 31.0047L10.7296 31.0671L10.6841 31.1218L10.6315 31.1842L10.5862 31.2466L10.5335 31.3089L10.4881 31.3636L10.4431 31.426L10.3902 31.4883L10.3451 31.5507L10.2921 31.6053L10.2471 31.6677L10.1865 31.6209L10.1264 31.5664L10.0658 31.5273L10.0057 31.4805L9.94553 31.4415L9.88496 31.4025L9.82473 31.3636L9.75707 31.3245L9.6965 31.2934L9.63636 31.2621L9.5758 31.2387L9.50805 31.2153L9.44039 31.1919L9.37222 31.1764L9.29696 31.1607L9.2217 31.1451L9.14635 31.1374L9.06348 31.1296L8.98019 31.1218H8.89733H8.82206L8.7468 31.1296L8.67863 31.1374L8.60337 31.153L8.53562 31.1686L8.46746 31.1919L8.3998 31.2153L8.33205 31.2466L8.2643 31.2777L8.20374 31.3167L8.14368 31.3557L8.08303 31.3948L8.03049 31.4415L7.97744 31.4883L7.9249 31.5351L7.87946 31.5897L7.82691 31.6443L7.78147 31.7067L7.74396 31.7613L7.70612 31.8237L7.66879 31.8939L7.63086 31.9563L7.60062 32.0265L7.57789 32.0967L7.54799 32.1669L7.52527 32.2449L7.51015 32.3225L7.49503 32.3926L7.47983 32.4785L7.47231 32.5564L7.46521 32.6344V32.7202V32.7358V32.8138L7.47231 32.8918L7.47983 32.962L7.48743 33.04L7.50255 33.1101L7.51775 33.1804L7.53287 33.2506L7.55559 33.3208L7.57789 33.3831L7.60822 33.4611L7.63846 33.5314L7.67588 33.6016L7.71372 33.664L7.75157 33.7264L7.79659 33.7888L7.84204 33.8434L7.89457 33.898L7.9401 33.9525L7.99256 33.9994L8.05321 34.0462L8.11336 34.093L8.17341 34.1319L8.23398 34.1709L8.30181 34.2021L8.36947 34.2334L8.43755 34.2645L8.5129 34.2879L8.58817 34.3113L8.66393 34.327L8.7392 34.3426L8.81446 34.3503L8.89733 34.3581H8.98019H9.07058L9.15395 34.3503L9.23682 34.3426L9.31208 34.3347L9.38734 34.3191L9.46311 34.3035L9.53838 34.2802L9.60604 34.2645L9.67387 34.2334L9.73443 34.2021L9.80209 34.1709L9.85506 34.1398L9.91529 34.1007V34.0228V33.9448V33.8668V33.7888V33.703V33.625V33.547V33.469V33.391H9.83994H9.77185H9.6965H9.62124H9.54598H9.47781H9.40246H9.3272H9.25193H9.18385H9.1085H9.03324H8.95789H8.88981H8.81446V33.313V33.2428V33.1648V33.0868V33.0088V32.9386V32.8606V32.7826V32.7047V32.6344V32.5564V32.4785V32.4004V32.3302V32.2527H8.88981H8.9655H9.04084H9.11602H9.19137H9.26663H9.3424H9.41767H9.49293H9.56828H9.64397H9.71923H9.79449H9.86976H9.94553H10.0209H10.0961H10.1714H10.2471H10.3224H10.3977H10.473H10.5486H10.624H10.6993H10.7745H10.8503H10.9256H11.0009H11.0762H11.1519H11.2271H11.3025V32.3302V32.4082V32.4862V32.5564V32.6344V32.7124V32.7903V32.8684V32.9464V33.0165V33.0946V33.1726V33.2506V33.3286V33.4065V33.4846V33.5547V33.6327V33.7108V33.7888V33.8668V33.9448V34.0228V34.093V34.1709V34.2489V34.327V34.4049V34.4829V34.5532V34.6311V34.7091V34.7871L11.2499 34.8338Z" fill="black"/>
        <path d="M8.82165 17.0381H12.0892V14.4349H8.82165V9.12058H12.2193V6.51743H6.04688V25.3047H12.271V22.7015H8.82165V17.0381Z" fill="black"/>
        <path d="M32.2263 17.6011V21.8417C32.2263 22.5933 31.889 22.942 31.1892 22.942H30.6702C29.9442 22.942 29.6069 22.5933 29.6069 21.8417V9.97854C29.6069 9.22706 29.9442 8.87837 30.6702 8.87837H31.1371C31.8373 8.87837 32.1746 9.22706 32.1746 9.97854V13.6559H34.8974V9.81751C34.8974 7.48275 33.8081 6.35543 31.5523 6.35543H30.2034C27.9476 6.35543 26.832 7.50937 26.832 9.84457V21.9757C26.832 24.311 27.9476 25.4648 30.2034 25.4648H31.5781C33.8345 25.4648 34.9494 24.311 34.9494 21.9757V17.6011H32.2263Z" fill="black"/>
        <path d="M22.5938 25.3047H25.369V6.51734H22.5938V25.3047Z" fill="black"/>
        <path d="M18.5665 14.8643C18.5665 15.6158 18.2297 15.965 17.5294 15.965H16.3881V9.04028H17.5294C18.2297 9.04028 18.5665 9.38905 18.5665 10.1405V14.8643ZM17.97 6.51734H13.6133V25.3047H16.3881V18.4874H17.97C20.2263 18.4874 21.3413 17.3335 21.3413 14.9988V10.0065C21.3413 7.67128 20.2263 6.51734 17.97 6.51734Z" fill="black"/>
        <path fill-rule="evenodd" clip-rule="evenodd" d="M12.5938 42.2891H28.4788L20.3708 45.043L12.5938 42.2891Z" fill="black"/>
      </g>
    </g>
    <defs>
      <clipPath id="clip0_22_194">
        <rect width="41" height="49" fill="currentColor" transform="translate(0 0.00390625)"/>
      </clipPath>
    </defs>
  </symbol>
  <symbol xmlns="http://www.w3.org/2000/svg" fill="none" viewBox="0 0 52 49" id="rockstar">
    <g clip-path="url(#clip0_22_235)">
      <path d="M51.6394 48.1649C51.3987 48.4063 51.1339 48.5271 50.7968 48.5271C50.4598 48.5271 50.195 48.4063 49.9542 48.1649C49.7135 47.9234 49.6172 47.6578 49.6172 47.3198C49.6172 46.9818 49.7376 46.7162 49.9542 46.4747C50.195 46.2333 50.4598 46.1367 50.7968 46.1367C51.1339 46.1367 51.3987 46.2574 51.6394 46.4747C51.8801 46.7162 52.0005 46.9818 52.0005 47.3198C52.0005 47.6337 51.8801 47.9234 51.6394 48.1649ZM50.0746 46.5955C49.882 46.7886 49.7857 47.0301 49.7857 47.3198C49.7857 47.6096 49.882 47.851 50.0746 48.0442C50.2672 48.2373 50.5079 48.358 50.7968 48.358C51.0857 48.358 51.3264 48.2615 51.519 48.0442C51.7116 47.851 51.8079 47.6096 51.8079 47.3198C51.8079 47.0301 51.7116 46.7886 51.519 46.5955C51.3264 46.4023 51.0857 46.3057 50.7968 46.3057C50.532 46.2816 50.2913 46.3782 50.0746 46.5955ZM50.7968 46.6438C50.9653 46.6438 51.0857 46.6679 51.1579 46.6921C51.3024 46.7403 51.3505 46.8611 51.3505 47.0301C51.3505 47.1508 51.3024 47.2232 51.2301 47.2957C51.182 47.3198 51.1098 47.344 51.0376 47.3681C51.1339 47.3923 51.2061 47.4164 51.2542 47.4888C51.3024 47.5613 51.3264 47.6337 51.3264 47.682V47.9717H51.1098V47.8027C51.1098 47.6578 51.0616 47.5613 50.9894 47.513C50.9413 47.4888 50.845 47.4647 50.7246 47.4647H50.5561V47.9717H50.3153V46.6679H50.7968V46.6438ZM51.0376 46.8611C50.9894 46.8369 50.8931 46.8128 50.7487 46.8128H50.5561V47.2715H50.7727C50.869 47.2715 50.9413 47.2715 50.9894 47.2474C51.0857 47.2232 51.1339 47.1508 51.1339 47.0542C51.1339 46.9576 51.0857 46.9094 51.0376 46.8611Z" fill="black"/>
      <path d="M42.9481 0.503906H9.22037C4.14074 0.503906 0 4.5361 0 9.46165V39.522C0 44.52 3.9963 48.4556 9.12407 48.4556H42.8759C48.0037 48.4556 52 44.52 52 39.522V9.46165C52 4.43952 48.0278 0.503906 42.9481 0.503906ZM50.9648 39.522C50.9648 43.9647 47.4019 47.4174 42.8519 47.4174H9.12407C4.57407 47.4415 1.03519 43.9647 1.03519 39.522V9.46165C1.03519 5.019 4.62222 1.51799 9.22037 1.51799H42.9722C47.4741 1.51799 50.9889 4.99485 50.9889 9.46165V39.522H50.9648Z" fill="#040301"/>
      <path d="M50.9648 39.5236C50.9648 43.9662 47.4018 47.4189 42.8518 47.4189H9.12405C4.57405 47.4431 1.03516 43.9662 1.03516 39.5236V9.46319C1.03516 5.02054 4.62219 1.51953 9.22034 1.51953H42.9722C47.474 1.51953 50.9889 4.99639 50.9889 9.46319V39.5236H50.9648Z" fill="#FFAB00"/>
      <path d="M41.6463 29.9856H37.3371L36.5908 25.2773L33.8223 29.9373H29.4648L32.113 32.7381L29.9463 37.4464L34.713 34.5973L38.4445 37.4946L37.7463 32.7381" fill="currentColor"/>
      <path d="M44.6576 29.0438H38.1336L37.0984 22.5247L33.2947 28.9955H32.5725C32.1391 28.247 31.9706 27.1605 31.9706 26.4845C31.9706 25.3738 32.0428 24.2873 32.0428 22.8627C32.0428 20.9794 31.4891 19.9895 30.0206 19.6273V19.579C33.1262 19.1444 34.5465 17.068 34.5465 14.1706C34.5465 10.0418 31.8021 9.14844 28.215 9.14844H18.5613L14.4688 28.5609H19.5965L21.0891 21.4865H24.5076C26.3373 21.4865 27.0836 22.3798 27.0836 24.0941C27.0836 25.3979 26.9391 26.4362 26.9391 27.4261C26.9391 27.7883 27.0113 28.6575 27.2762 28.9955L30.9836 32.9311L27.7817 39.8124L34.6187 35.7319L39.7225 39.6675L38.7836 33.1726L44.6576 29.0438ZM26.0484 17.8647H21.9558L22.9428 13.1806H26.7465C28.0947 13.1806 29.515 13.5428 29.515 15.1847C29.515 17.2853 27.9021 17.8647 26.0484 17.8647ZM34.715 34.5971L29.9484 37.4462L32.1391 32.7621L29.491 29.9613H33.8484L36.5928 25.3014L37.3391 30.0096H41.6725L37.7725 32.738L38.4706 37.5187L34.715 34.5971Z" fill="#040301"/>
    </g>
    <defs>
      <clipPath id="clip0_22_235">
        <rect width="52" height="48" fill="currentColor" transform="translate(0 0.503906)"/>
      </clipPath>
    </defs>
  </symbol>
  <symbol xmlns="http://www.w3.org/2000/svg" fill="none" viewBox="0 0 51 49" id="gogcom">
    <g clip-path="url(#clip0_22_214)">
      <mask id="mask0_22_214" maskUnits="userSpaceOnUse" x="-205" y="-87" width="308" height="204">
        <path d="M-204.734 -86.1078H102.096V116.176H-204.734V-86.1078Z" fill="currentColor"/>
      </mask>
      <g mask="url(#mask0_22_214)">
        <path fill-rule="evenodd" clip-rule="evenodd" d="M15.1955 31.3148H9.27281H9.26289C8.79744 31.3148 8.424 31.6885 8.424 32.1488C8.424 32.1488 8.42581 32.1488 8.42581 32.1542H8.424V36.3404H8.42581L8.424 36.3439C8.424 36.8024 8.79744 37.1798 9.26289 37.1798H9.27281H9.88619H15.1955V39.9727H7.79258V39.9655C6.58116 39.9655 5.60156 38.9968 5.60156 37.8024V30.6841C5.60156 29.496 6.58116 28.5272 7.79258 28.5272H15.1955V31.3148Z" fill="currentColor"/>
        <path fill-rule="evenodd" clip-rule="evenodd" d="M17.3363 23.5413C17.3363 24.7589 16.3414 25.7383 15.1155 25.7383H5.59375V22.9079H13.6128H13.6218C14.0944 22.9079 14.4733 22.5261 14.4733 22.0614V22.0561V12.7122V12.706C14.4733 12.2394 14.0944 11.8612 13.6218 11.8612H13.6128H9.31641H9.30739C8.83563 11.8612 8.45588 12.2394 8.45588 12.706V12.7122V16.9582V16.9635C8.45588 17.431 8.83563 17.8101 9.30739 17.8101H9.31641H12.754V20.6404H7.81364C6.58508 20.6404 5.59375 19.6592 5.59375 18.4452V11.2252C5.59375 10.0121 6.58508 9.02909 7.81364 9.02909H15.1155C16.3414 9.02909 17.3363 10.0121 17.3363 11.2252V23.5413Z" fill="currentColor"/>
        <path fill-rule="evenodd" clip-rule="evenodd" d="M45.3956 39.9655H42.574V31.3148H40.6004H40.5914C40.125 31.3148 39.7516 31.6885 39.7516 32.1488V32.1542V39.9655H36.93V31.3148H34.9519H34.9465C34.4792 31.3148 34.1058 31.6885 34.1058 32.1488V32.1542V39.9727H31.2852V30.6841C31.2852 29.496 32.2621 28.5272 33.4735 28.5272H45.3956V39.9655Z" fill="currentColor"/>
        <path fill-rule="evenodd" clip-rule="evenodd" d="M45.4027 23.5413C45.4027 24.7589 44.4069 25.7383 43.1828 25.7383H33.6602V22.9079H41.6828H41.6882C42.1627 22.9079 42.5433 22.5261 42.5433 22.0614V22.0561V12.7122V12.706C42.5433 12.2394 42.1627 11.8612 41.6882 11.8612H41.6828H37.3828H37.3747C36.9075 11.8612 36.5259 12.2394 36.5259 12.706V12.7122V16.9582V16.9635C36.5259 17.431 36.9075 17.8101 37.3747 17.8101H37.3828H40.8195V20.6404H35.8818C34.6533 20.6404 33.6602 19.6592 33.6602 18.4452V11.2252C33.6602 10.0121 34.6533 9.02909 35.8818 9.02909H43.1828C44.4069 9.02909 45.4027 10.0121 45.4027 11.2252V23.5413Z" fill="currentColor"/>
        <path fill-rule="evenodd" clip-rule="evenodd" d="M28.5012 12.7124V16.9575V16.9629C28.5012 17.4303 28.1305 17.8103 27.6569 17.8103H27.647H23.3507H23.3444C22.8708 17.8103 22.4919 17.4303 22.4919 16.9629V16.9575V12.7124V12.7053C22.4919 12.2388 22.8708 11.8614 23.3444 11.8614H23.3507H27.647H27.6569C28.1305 11.8614 28.5012 12.2388 28.5012 12.7053V12.7124ZM29.1516 9.02929H21.847C20.6202 9.02929 19.6289 10.0123 19.6289 11.2254V18.4454C19.6289 19.6585 20.6202 20.6406 21.847 20.6406H29.1516C30.3747 20.6406 31.3706 19.6585 31.3706 18.4454V11.2254C31.3706 10.0123 30.3747 9.02929 29.1516 9.02929Z" fill="currentColor"/>
        <path fill-rule="evenodd" clip-rule="evenodd" d="M26.2028 32.1535V36.3397C26.2028 36.8 25.8293 37.1755 25.3657 37.1755C25.3612 37.1755 25.3603 37.1711 25.3558 37.1711V37.1755H21.1235V37.1711C21.1235 37.1711 21.119 37.1755 21.1145 37.1755C20.649 37.1755 20.2756 36.8 20.2756 36.3397V32.1535V32.1481C20.2756 31.6879 20.649 31.3141 21.1145 31.3141H21.1235H25.3558H25.3657C25.8293 31.3141 26.2028 31.6879 26.2028 32.1481V32.1535ZM26.8369 28.5266H19.6423C18.4309 28.5266 17.4531 29.4953 17.4531 30.6834V37.8017C17.4531 38.9961 18.4309 39.9648 19.6423 39.9648H26.8369C28.0438 39.9648 29.0234 38.9961 29.0234 37.8017V30.6834C29.0234 29.4953 28.0438 28.5266 26.8369 28.5266Z" fill="currentColor"/>
        <path d="M49.9154 44.8272C49.9154 45.5462 49.6223 46.192 49.146 46.6639C48.6697 47.134 48.0158 47.423 47.2905 47.423H3.70914C2.983 47.423 2.32993 47.134 1.85366 46.6639C1.37739 46.192 1.08604 45.5462 1.08424 44.8272V4.17107C1.08604 3.453 1.37739 2.80808 1.85366 2.3362C2.32993 1.86611 2.983 1.5771 3.70914 1.57621H47.2905C48.0158 1.5771 48.6697 1.86611 49.146 2.3362C49.6223 2.80808 49.9154 3.453 49.9154 4.17107V44.8272ZM49.9118 1.57799C49.2425 0.914333 48.3134 0.504009 47.2905 0.504009H3.70914C2.68624 0.504009 1.75715 0.914333 1.08784 1.57799C0.416737 2.23986 0 3.16042 0 4.17107V44.8272C0 45.8388 0.416737 46.7593 1.08784 47.4212C1.75715 48.084 2.68624 48.4961 3.70914 48.4961H47.2905C48.3134 48.4961 49.2425 48.084 49.9118 47.4212C50.5829 46.7593 50.9997 45.8388 50.9997 44.8272V4.17107C50.9997 3.16042 50.5829 2.23986 49.9118 1.57799Z" fill="currentColor"/>
      </g>
    </g>
    <defs>
      <clipPath id="clip0_22_214">
        <rect width="51" height="48" fill="currentColor" transform="translate(0 0.503906)"/>
      </clipPath>
    </defs>
  </symbol>
  <symbol xmlns="http://www.w3.org/2000/svg" fill="none" viewBox="0 0 178 33" id="psn">
    <g clip-path="url(#clip0_22_158)">
      <path d="M14.6484 0.503746V28.4922L21.0378 30.5V7.03203C21.0378 5.92619 21.5349 5.19195 22.3322 5.44446C23.3746 5.73123 23.5772 6.74992 23.5772 7.84345V17.2162C27.5543 19.1255 30.6854 17.2152 30.6854 12.1777C30.6854 7.03004 28.8496 4.73684 23.4481 2.89309C21.3175 2.18946 17.369 1.00211 14.6484 0.503746Z" fill="currentColor"/>
      <path d="M22.25 26.408L32.5117 22.7854C33.6726 22.3586 33.85 21.7787 32.9105 21.474C31.9563 21.1636 30.253 21.2524 29.0797 21.6702L22.25 24.0599V20.247L22.6411 20.1189C22.6411 20.1189 24.618 19.4243 27.3986 19.1252C30.1739 18.8235 33.5773 19.1645 36.2523 20.1645C39.2657 21.114 39.6034 22.499 38.841 23.4628C38.0676 24.4166 36.1923 25.1066 36.1923 25.1066L22.25 30.0742" fill="currentColor"/>
      <path d="M2.94014 26.024C-0.149378 25.1703 -0.664577 23.3665 0.744843 22.3245C2.04492 21.373 4.259 20.6568 4.259 20.6568L13.4115 17.4201V21.1039L6.83131 23.4433C5.66574 23.8569 5.49099 24.4387 6.42982 24.7431C7.38542 25.0599 9.08128 24.9747 10.2475 24.5479L13.4115 23.4164V26.705C13.2076 26.7389 12.9808 26.7732 12.7739 26.8081C9.61929 27.3275 6.25842 27.1142 2.94014 26.024Z" fill="currentColor"/>
      <path d="M37.2114 28.5921C37.2114 28.6852 37.1889 28.7461 37.141 28.7767C37.0856 28.814 37.0132 28.8326 36.9219 28.8326H36.4631V28.3682H36.9488C37.0175 28.3682 37.0689 28.3798 37.1101 28.3958C37.1772 28.4284 37.2114 28.4939 37.2114 28.5921ZM37.5431 29.657C37.52 29.6504 37.5039 29.6277 37.4905 29.5895C37.4844 29.5599 37.4801 29.5179 37.4787 29.4641L37.4714 29.2535C37.468 29.156 37.4492 29.0801 37.408 29.0349C37.3875 28.9993 37.3509 28.9767 37.3161 28.952C37.3617 28.9108 37.4036 28.8685 37.4392 28.8223C37.4801 28.7568 37.5039 28.6679 37.5039 28.5731C37.5039 28.3798 37.42 28.2424 37.2567 28.1662C37.1752 28.132 37.0689 28.1097 36.9424 28.1097H36.1676V29.7628H36.4631V29.0898H36.9136C36.9974 29.0898 37.0538 29.1004 37.095 29.1141C37.1507 29.1493 37.1809 29.2026 37.1846 29.294L37.199 29.5519C37.2034 29.6178 37.2077 29.657 37.2114 29.687L37.2336 29.7438L37.2396 29.7628H37.5639V29.6687M35.5605 28.9737C35.5605 28.636 35.6879 28.3263 35.9207 28.0967C36.1592 27.8622 36.4775 27.7358 36.8082 27.7358C37.1393 27.7358 37.4496 27.8622 37.6823 28.0967C37.9171 28.3263 38.0439 28.636 38.0439 28.9737C38.0439 29.6504 37.4891 30.1996 36.8082 30.1996C36.4775 30.1996 36.1592 30.0745 35.9207 29.843C35.6879 29.6094 35.5605 29.303 35.5605 28.9737ZM36.8082 30.4531C37.2077 30.4531 37.5787 30.2968 37.8614 30.02C38.1408 29.7382 38.2985 29.3702 38.2985 28.9737C38.2985 28.5735 38.1408 28.1992 37.8614 27.9227C37.5787 27.6399 37.2077 27.4886 36.8082 27.4886C35.9791 27.4886 35.3086 28.1523 35.3086 28.9737C35.3086 29.3702 35.4632 29.7382 35.7426 30.02C36.0257 30.2968 36.4088 30.4531 36.8082 30.4531Z" fill="currentColor"/>
      <path d="M59.9959 7.8502L52.28 7.84687C52.2481 7.84687 52.2227 7.87182 52.2227 7.90077V25.7999C52.2227 25.8285 52.2481 25.8555 52.28 25.8555H55.4071L55.4621 25.7999L55.4658 9.84365L55.4842 9.81703L59.0648 9.81038C60.3686 9.81038 61.0847 11.1135 61.0847 13.4749C61.0847 15.8376 60.3686 17.1438 59.0648 17.1438L56.9098 17.1414C56.8776 17.1414 56.8558 17.1657 56.8558 17.1963V19.0534C56.8558 19.0896 56.8776 19.1116 56.9098 19.1116H59.9959C61.0847 19.1116 62.151 18.6112 62.9204 17.7513C63.8321 16.7306 64.3121 15.2571 64.3121 13.4912C64.3121 10.0692 62.6269 7.8502 59.9959 7.8502Z" fill="currentColor"/>
      <path d="M69.4284 7.84687H66.2993C66.2638 7.84687 66.2383 7.87182 66.2383 7.90076V25.7999C66.2383 25.8289 66.2638 25.8555 66.2993 25.8555H69.4284L69.4858 25.7999V7.90076L69.4284 7.84687Z" fill="currentColor"/>
      <path d="M83.0752 12.2041C83.0752 12.1724 83.0471 12.1485 83.0162 12.1485H77.4439C72.4472 12.1485 71.8086 15.7864 71.8086 18.9835L71.8123 21.7485C71.8123 24.1278 73.3042 25.8555 75.3553 25.8555H78.3955L78.4505 25.8002V23.9452C78.4505 23.9149 78.4247 23.888 78.3955 23.888L76.224 23.8916C75.7236 23.8813 75.0501 23.6714 75.0501 21.9654V18.9802C75.0477 16.9964 75.2339 15.7282 75.6491 15.0066C76.0989 14.2101 76.807 14.1034 77.4439 14.1034H79.819L79.8391 14.1313L79.8361 25.8002C79.8361 25.8285 79.8603 25.8555 79.8935 25.8555H83.0169C83.0477 25.8555 83.0752 25.8285 83.0752 25.8002" fill="currentColor"/>
      <path d="M105.584 15.3376L104.043 15.2212C102.888 15.1224 102.028 14.4876 102.028 12.6096C102.028 10.4169 103.02 9.81704 104.343 9.81704H108.608L108.665 9.76247V7.9011L108.608 7.84754H108.519L103.899 7.84854C100.988 7.84854 98.918 9.54423 98.918 12.9237V13.0707C98.918 15.7372 100.572 17.6618 103.038 17.8487L104.571 17.9615C105.741 18.0493 106.47 19.087 106.47 20.6616V21.1044C106.47 22.0888 106.221 23.89 104.093 23.89H99.6616C99.6317 23.89 99.6059 23.9156 99.6059 23.9472V25.7999L99.6616 25.8555H105.163C106.858 25.8555 109.697 25.1751 109.697 20.5987C109.697 18.9406 109.317 17.6338 108.547 16.6893C107.891 15.8782 106.919 15.4394 105.584 15.3376Z" fill="currentColor"/>
      <path d="M131.21 12.2041C131.21 12.1724 131.183 12.1485 131.153 12.1485H125.569C120.583 12.1485 119.938 15.7864 119.938 18.9835L119.942 21.7485C119.942 24.1278 121.432 25.8555 123.494 25.8555H126.526L126.582 25.8002V23.9452C126.582 23.9149 126.556 23.888 126.526 23.888L124.353 23.8916C123.854 23.8813 123.187 23.6714 123.185 21.9654V18.9802C123.185 16.9964 123.373 15.7282 123.779 15.0066C124.229 14.2101 124.942 14.1034 125.568 14.1034H127.954L127.977 14.1313L127.971 25.8002C127.971 25.8285 127.997 25.8555 128.028 25.8555H131.156C131.187 25.8555 131.21 25.8285 131.21 25.8002" fill="currentColor"/>
      <path d="M118.637 12.1485H115.243L115.225 12.1279V9.87226C115.225 9.84232 115.202 9.81703 115.17 9.81703H112.044C112.012 9.81703 111.984 9.84232 111.984 9.87226V21.7498C111.984 24.1288 113.48 25.8555 115.538 25.8555H117.777C117.81 25.8555 117.834 25.8285 117.834 25.7999V23.9469C117.834 23.9166 117.81 23.888 117.777 23.888H116.403C116.051 23.8826 115.225 23.865 115.221 22.1121V14.116L115.241 14.098C116.28 14.1034 118.637 14.098 118.637 14.098L118.692 14.0471V12.2041C118.692 12.1728 118.666 12.1485 118.637 12.1485Z" fill="currentColor"/>
      <path d="M140.468 12.1485H137.093L137.07 12.1279V9.87226L137.018 9.81703H133.886C133.855 9.81703 133.828 9.84232 133.828 9.87226V21.7498C133.828 24.1288 135.321 25.8555 137.378 25.8555H139.616C139.65 25.8555 139.672 25.8285 139.672 25.7999V23.9469C139.672 23.9166 139.65 23.888 139.616 23.888H138.242C137.889 23.8826 137.07 23.865 137.07 22.1121V14.116L137.089 14.098C138.12 14.1034 140.468 14.098 140.468 14.098L140.524 14.0471V12.2041C140.524 12.1728 140.496 12.1485 140.468 12.1485Z" fill="currentColor"/>
      <path d="M145.64 12.1485H142.514C142.485 12.1485 142.457 12.1728 142.457 12.2041V25.7999L142.514 25.8555H145.64C145.674 25.8555 145.697 25.8285 145.697 25.7999V12.2041C145.697 12.1728 145.674 12.1485 145.64 12.1485Z" fill="currentColor"/>
      <path d="M145.64 7.84663H142.514L142.457 7.90052V10.4998C142.457 10.5314 142.485 10.5547 142.514 10.5547H145.64C145.674 10.5547 145.697 10.5314 145.697 10.4998V7.90052C145.697 7.87158 145.674 7.84663 145.64 7.84663Z" fill="currentColor"/>
      <path d="M167.268 12.1485H161.689C161.66 12.1485 161.634 12.1728 161.634 12.2041L161.633 25.7999L161.685 25.8555H164.817L164.87 25.7999L164.865 14.1276L164.887 14.105L167.266 14.1034C167.909 14.1034 168.615 14.2062 169.066 14.9441C169.479 15.6108 169.666 16.7828 169.666 18.6222C169.669 18.7017 169.664 25.7999 169.664 25.7999C169.664 25.8285 169.689 25.8555 169.72 25.8555H172.838C172.872 25.8555 172.896 25.8285 172.896 25.7999V18.9815C172.896 15.7861 172.253 12.1485 167.268 12.1485Z" fill="currentColor"/>
      <path d="M155.652 22.9856C155.16 23.7893 154.379 23.8968 153.67 23.8968C152.969 23.8968 152.185 23.7893 151.688 22.9856C151.239 22.2623 151.032 20.9951 151.032 18.997V18.981C151.032 16.6229 151.324 15.2832 151.979 14.6451C152.37 14.2579 152.878 14.1009 153.67 14.1009C154.475 14.1009 154.977 14.2579 155.368 14.6451C156.017 15.2832 156.31 16.6286 156.31 18.997C156.31 20.9978 156.102 22.266 155.652 22.9856ZM153.67 12.1463C148.449 12.1463 147.781 15.8012 147.781 18.997C147.781 22.1964 148.449 25.8633 153.67 25.8633C158.893 25.8633 159.558 22.1964 159.558 18.997C159.558 15.8012 158.893 12.1463 153.67 12.1463Z" fill="currentColor"/>
      <path d="M84.837 12.1472L84.8008 12.2011L89.4389 25.6725C89.4466 25.7028 89.4466 25.7494 89.4369 25.779L86.8254 32.449C86.8143 32.4806 86.8287 32.5039 86.8596 32.5039H89.5791C89.6127 32.5039 89.6479 32.4806 89.659 32.449L97.8009 12.2011C97.8123 12.1688 97.7978 12.1472 97.766 12.1472H94.7989C94.7667 12.1472 94.7328 12.1715 94.7227 12.2011L91.2757 21.0535H91.2371L88.1939 12.2011C88.1868 12.1688 88.1519 12.1472 88.1207 12.1472" fill="currentColor"/>
      <path d="M176.914 23.9978C176.914 24.0876 176.888 24.1461 176.84 24.1811C176.787 24.219 176.714 24.235 176.624 24.235H176.166V23.7722H176.65C176.719 23.7722 176.772 23.7828 176.811 23.8008C176.877 23.8331 176.914 23.8976 176.914 23.9978ZM177.243 25.062C177.221 25.0537 177.204 25.0311 177.191 24.9935C177.186 24.9655 177.182 24.9196 177.181 24.8681L177.173 24.6601C177.169 24.5583 177.151 24.4821 177.108 24.4406C177.087 24.404 177.052 24.379 177.018 24.3534C177.061 24.3135 177.105 24.2726 177.14 24.2253C177.182 24.1598 177.204 24.0746 177.204 23.9798C177.204 23.7828 177.121 23.6464 176.958 23.5709C176.874 23.537 176.772 23.5144 176.644 23.5144H175.871V25.1668H176.166V24.4928H176.615C176.698 24.4928 176.757 24.5044 176.795 24.5177C176.85 24.553 176.881 24.6072 176.886 24.6977L176.901 24.9569C176.904 25.0208 176.908 25.062 176.914 25.088L176.933 25.1469L176.94 25.1668H177.264V25.071M175.262 24.3777C175.262 24.039 175.389 23.7316 175.624 23.4987C175.862 23.2668 176.179 23.1398 176.508 23.1398C176.84 23.1398 177.149 23.2668 177.382 23.4987C177.618 23.7316 177.746 24.039 177.746 24.3777C177.746 25.0544 177.19 25.604 176.508 25.604C176.179 25.604 175.862 25.4785 175.624 25.247C175.389 25.0151 175.262 24.7064 175.262 24.3777ZM176.508 25.8555C176.908 25.8555 177.281 25.6991 177.565 25.4243C177.841 25.1439 177.998 24.7726 177.998 24.3777C177.998 23.9775 177.841 23.6025 177.565 23.3261C177.281 23.0449 176.908 22.8926 176.508 22.8926C175.683 22.8926 175.012 23.5553 175.012 24.3777C175.012 24.7726 175.165 25.1439 175.445 25.4243C175.728 25.6991 176.11 25.8555 176.508 25.8555Z" fill="currentColor"/>
    </g>
    <defs>
      <clipPath id="clip0_22_158">
        <rect width="178" height="32" fill="currentColor" transform="translate(0 0.503906)"/>
      </clipPath>
    </defs>
  </symbol>
  <symbol xmlns="http://www.w3.org/2000/svg" fill="none" viewBox="0 0 105 33" id="steam">
    <g clip-path="url(#clip0_22_127)">
      <path fill-rule="evenodd" clip-rule="evenodd" d="M16.0221 0.855469C7.76375 0.855469 0.998354 7.19301 0.355469 15.247L8.78157 18.7143C9.49553 18.2283 10.358 17.9436 11.2859 17.9436C11.3691 17.9436 11.4519 17.9472 11.534 17.951L15.2811 12.5455V12.4691C15.2811 9.21544 17.9405 6.56838 21.21 6.56838C24.4791 6.56838 27.1385 9.21544 27.1385 12.4691C27.1385 15.7228 24.4791 18.3702 21.21 18.3702C21.1648 18.3702 21.1201 18.3702 21.0753 18.3666L15.7311 22.1618C15.7346 22.2308 15.7364 22.3012 15.7364 22.3712C15.7364 24.8138 13.7402 26.8002 11.2863 26.8002C9.13233 26.8002 7.33126 25.2701 6.92328 23.2438L0.89707 20.7658C2.76282 27.3332 8.82528 32.1481 16.0221 32.1481C24.7048 32.1481 31.7431 25.1428 31.7431 16.5023C31.7431 7.86043 24.7044 0.855469 16.0221 0.855469ZM10.2048 24.5981L8.27368 23.8041C8.61591 24.5132 9.20797 25.1071 9.99408 25.4332C11.6935 26.1378 13.6527 25.3352 14.361 23.6424C14.704 22.824 14.7061 21.9203 14.366 21.0997C14.0266 20.2788 13.3862 19.6386 12.5628 19.2969C11.7458 18.9584 10.8705 18.9708 10.1014 19.2598L12.0962 20.0807C13.3496 20.6007 13.9424 22.0331 13.42 23.2806C12.8986 24.5285 11.4583 25.1184 10.2048 24.5981ZM21.2082 8.53516C23.3867 8.53516 25.1587 10.299 25.1587 12.4668C25.1587 14.6347 23.3867 16.3982 21.2082 16.3982C19.0301 16.3982 17.2578 14.635 17.2578 12.4668C17.2578 10.299 19.0301 8.53516 21.2082 8.53516ZM21.215 9.50676C19.576 9.50676 18.2472 10.8289 18.2472 12.4601C18.2472 14.091 19.576 15.4135 21.215 15.4135C22.854 15.4135 24.1828 14.0914 24.1828 12.4601C24.1828 10.8289 22.854 9.50676 21.215 9.50676ZM48.5327 11.5607L47.4793 13.4035C46.668 12.8393 45.5684 12.4998 44.6085 12.4998C43.5115 12.4998 42.8327 12.9518 42.8327 13.7614C42.8327 14.593 43.6946 14.8851 45.0442 15.3425L45.0443 15.3425L45.0448 15.3427C45.2913 15.4262 45.554 15.5152 45.8307 15.6141C47.7572 16.2921 48.8646 17.089 48.8646 18.8451C48.8646 21.2478 46.9661 22.5971 44.2375 22.5971C42.9077 22.5971 41.3035 22.2554 40.0703 21.5088L40.8386 19.4658C41.8405 19.9925 43.0388 20.3048 44.1071 20.3048C45.5471 20.3048 46.2316 19.776 46.2316 18.9944C46.2316 18.1662 45.3369 17.8744 43.867 17.3949L43.8662 17.3947C43.7488 17.3564 43.6276 17.3168 43.5029 17.2757C41.5828 16.6377 40.2523 15.8005 40.2523 13.8569C40.2523 11.6651 42.016 10.4062 44.5538 10.4062C46.3225 10.4062 47.7441 10.964 48.5327 11.5607ZM54.2875 12.7266V22.3963H56.7677V12.7266H60.3571V10.6094H50.6875V12.7266H54.2875ZM70.3275 15.3761V17.4934H65.5811V20.2596H71.0881V22.3963H63.1016V10.6094H71.0881V12.7202H65.5811V15.3761H70.3275ZM75.8422 22.3963L76.6261 20.1075L81.2564 20.1072L82.0574 22.396H84.7452L80.1792 10.6094H77.6827L73.2422 22.3963H75.8422ZM77.2996 18.1403L78.9169 13.4209L80.5677 18.1403H77.2996ZM92.833 22.0529L89.6445 15.2269V22.3963H87.2695V10.6094H89.6392L93.6195 19.1179L97.4583 10.6094H99.8486V22.3963H97.474V15.1653L94.2329 22.0529H92.833ZM103.006 13.7411C103.882 13.7411 104.644 13.1098 104.644 12.0968C104.644 11.0841 103.882 10.457 103.006 10.457C102.128 10.457 101.363 11.0841 101.363 12.0968C101.363 13.1098 102.128 13.7411 103.006 13.7411ZM103.006 13.4765C102.252 13.4765 101.639 12.9442 101.639 12.0968C101.639 11.2532 102.254 10.7227 103.006 10.7227C103.757 10.7227 104.368 11.2468 104.368 12.0968C104.368 12.9442 103.757 13.4765 103.006 13.4765ZM103.596 11.724C103.596 11.4824 103.454 11.2589 103.029 11.2589H102.462V12.8795H102.721V12.2503H103.052L103.373 12.8795H103.685L103.304 12.1696C103.465 12.0939 103.596 11.9454 103.596 11.724ZM103.013 12.0129H102.724H102.723V11.5047H103.012C103.232 11.5047 103.311 11.6002 103.311 11.7487C103.311 11.8959 103.2 12.0129 103.013 12.0129Z" fill="currentColor"/>
    </g>
    <defs>
      <clipPath id="clip0_22_127">
        <rect width="105" height="32" fill="currentColor" transform="translate(0 0.503906)"/>
      </clipPath>
    </defs>
  </symbol>
  <symbol xmlns="http://www.w3.org/2000/svg" fill="none" viewBox="0 0 98 33" id="ea-play">
    <g clip-path="url(#clip0_22_125)">
      <path fill-rule="evenodd" clip-rule="evenodd" d="M38.7298 4.08333V25.605H42.9745V17.7648H48.2036C52.4171 17.7648 55.5544 14.8445 55.5544 10.8783C55.5544 6.9426 52.5401 4.08333 48.3573 4.08333H38.7298ZM47.8962 14.1374H42.9745V7.86521H47.8962C49.9259 7.86521 51.3409 9.15648 51.3409 11.0014C51.3409 12.8459 49.9259 14.1374 47.8962 14.1374ZM61.4597 2.85395L57.5538 4.08333V25.605H61.4597V2.85395ZM70.9634 25.8205C72.8708 25.8205 74.5934 25.1134 75.8852 23.9139V25.605H79.7911V10.2636H75.8852V11.954C74.6546 10.7245 72.9626 10.0174 71.1178 10.0174C67.1194 10.0174 63.4895 13.3377 63.4895 17.9186C63.4895 22.4995 67.0575 25.8205 70.9634 25.8205ZM71.6404 22.3152C69.2724 22.3152 67.3649 20.5011 67.3649 17.9186C67.3649 15.3361 69.2724 13.522 71.6404 13.522C74.0395 13.522 75.9157 15.3361 75.9157 17.9186C75.9157 20.5011 74.0395 22.3152 71.6404 22.3152ZM98 10.2636H93.9091L89.5411 19.3023L85.0815 10.2636H80.7141L87.2963 23.6678L82.8979 32.3999H87.1426L98 10.2636ZM22.4182 19.2259L21.1641 17.2247H17.5026L18.7587 15.22H19.9154L18.5173 12.9885L14.6169 19.2259H4.21106L6.71643 15.22H4.87681L6.12745 13.2154H14.171L12.9197 15.22H9.08329L7.82922 17.2247H13.5042L18.5173 9.20513L24.7822 19.2259H22.4182ZM8.6338 9.20513H16.8846L15.6305 11.2107H7.38054L8.6338 9.20513ZM14.3521 0.503906C6.42602 0.503906 0 6.92758 0 14.8508C0 22.7759 6.42602 29.1968 14.3521 29.1968C22.278 29.1968 28.705 22.7759 28.705 14.8508C28.705 6.92758 22.278 0.503906 14.3521 0.503906Z" fill="currentColor"/>
    </g>
    <defs>
      <clipPath id="clip0_22_125">
        <rect width="98" height="32" fill="currentColor" transform="translate(0 0.503906)"/>
      </clipPath>
    </defs>
  </symbol>
</svg>