<svg xmlns="http://www.w3.org/2000/svg" viewBox="0 0 100 100">

    <g clip-path="url(#clip0_22_158)">
      <path d="M14.6484 0.503746V28.4922L21.0378 30.5V7.03203C21.0378 5.92619 21.5349 5.19195 22.3322 5.44446C23.3746 5.73123 23.5772 6.74992 23.5772 7.84345V17.2162C27.5543 19.1255 30.6854 17.2152 30.6854 12.1777C30.6854 7.03004 28.8496 4.73684 23.4481 2.89309C21.3175 2.18946 17.369 1.00211 14.6484 0.503746Z" fill="currentColor"/>
      <path d="M22.25 26.408L32.5117 22.7854C33.6726 22.3586 33.85 21.7787 32.9105 21.474C31.9563 21.1636 30.253 21.2524 29.0797 21.6702L22.25 24.0599V20.247L22.6411 20.1189C22.6411 20.1189 24.618 19.4243 27.3986 19.1252C30.1739 18.8235 33.5773 19.1645 36.2523 20.1645C39.2657 21.114 39.6034 22.499 38.841 23.4628C38.0676 24.4166 36.1923 25.1066 36.1923 25.1066L22.25 30.0742" fill="currentColor"/>
      <path d="M2.94014 26.024C-0.149378 25.1703 -0.664577 23.3665 0.744843 22.3245C2.04492 21.373 4.259 20.6568 4.259 20.6568L13.4115 17.4201V21.1039L6.83131 23.4433C5.66574 23.8569 5.49099 24.4387 6.42982 24.7431C7.38542 25.0599 9.08128 24.9747 10.2475 24.5479L13.4115 23.4164V26.705C13.2076 26.7389 12.9808 26.7732 12.7739 26.8081C9.61929 27.3275 6.25842 27.1142 2.94014 26.024Z" fill="currentColor"/>
      <path d="M37.2114 28.5921C37.2114 28.6852 37.1889 28.7461 37.141 28.7767C37.0856 28.814 37.0132 28.8326 36.9219 28.8326H36.4631V28.3682H36.9488C37.0175 28.3682 37.0689 28.3798 37.1101 28.3958C37.1772 28.4284 37.2114 28.4939 37.2114 28.5921ZM37.5431 29.657C37.52 29.6504 37.5039 29.6277 37.4905 29.5895C37.4844 29.5599 37.4801 29.5179 37.4787 29.4641L37.4714 29.2535C37.468 29.156 37.4492 29.0801 37.408 29.0349C37.3875 28.9993 37.3509 28.9767 37.3161 28.952C37.3617 28.9108 37.4036 28.8685 37.4392 28.8223C37.4801 28.7568 37.5039 28.6679 37.5039 28.5731C37.5039 28.3798 37.42 28.2424 37.2567 28.1662C37.1752 28.132 37.0689 28.1097 36.9424 28.1097H36.1676V29.7628H36.4631V29.0898H36.9136C36.9974 29.0898 37.0538 29.1004 37.095 29.1141C37.1507 29.1493 37.1809 29.2026 37.1846 29.294L37.199 29.5519C37.2034 29.6178 37.2077 29.657 37.2114 29.687L37.2336 29.7438L37.2396 29.7628H37.5639V29.6687M35.5605 28.9737C35.5605 28.636 35.6879 28.3263 35.9207 28.0967C36.1592 27.8622 36.4775 27.7358 36.8082 27.7358C37.1393 27.7358 37.4496 27.8622 37.6823 28.0967C37.9171 28.3263 38.0439 28.636 38.0439 28.9737C38.0439 29.6504 37.4891 30.1996 36.8082 30.1996C36.4775 30.1996 36.1592 30.0745 35.9207 29.843C35.6879 29.6094 35.5605 29.303 35.5605 28.9737ZM36.8082 30.4531C37.2077 30.4531 37.5787 30.2968 37.8614 30.02C38.1408 29.7382 38.2985 29.3702 38.2985 28.9737C38.2985 28.5735 38.1408 28.1992 37.8614 27.9227C37.5787 27.6399 37.2077 27.4886 36.8082 27.4886C35.9791 27.4886 35.3086 28.1523 35.3086 28.9737C35.3086 29.3702 35.4632 29.7382 35.7426 30.02C36.0257 30.2968 36.4088 30.4531 36.8082 30.4531Z" fill="currentColor"/>
      <path d="M59.9959 7.8502L52.28 7.84687C52.2481 7.84687 52.2227 7.87182 52.2227 7.90077V25.7999C52.2227 25.8285 52.2481 25.8555 52.28 25.8555H55.4071L55.4621 25.7999L55.4658 9.84365L55.4842 9.81703L59.0648 9.81038C60.3686 9.81038 61.0847 11.1135 61.0847 13.4749C61.0847 15.8376 60.3686 17.1438 59.0648 17.1438L56.9098 17.1414C56.8776 17.1414 56.8558 17.1657 56.8558 17.1963V19.0534C56.8558 19.0896 56.8776 19.1116 56.9098 19.1116H59.9959C61.0847 19.1116 62.151 18.6112 62.9204 17.7513C63.8321 16.7306 64.3121 15.2571 64.3121 13.4912C64.3121 10.0692 62.6269 7.8502 59.9959 7.8502Z" fill="currentColor"/>
      <path d="M69.4284 7.84687H66.2993C66.2638 7.84687 66.2383 7.87182 66.2383 7.90076V25.7999C66.2383 25.8289 66.2638 25.8555 66.2993 25.8555H69.4284L69.4858 25.7999V7.90076L69.4284 7.84687Z" fill="currentColor"/>
      <path d="M83.0752 12.2041C83.0752 12.1724 83.0471 12.1485 83.0162 12.1485H77.4439C72.4472 12.1485 71.8086 15.7864 71.8086 18.9835L71.8123 21.7485C71.8123 24.1278 73.3042 25.8555 75.3553 25.8555H78.3955L78.4505 25.8002V23.9452C78.4505 23.9149 78.4247 23.888 78.3955 23.888L76.224 23.8916C75.7236 23.8813 75.0501 23.6714 75.0501 21.9654V18.9802C75.0477 16.9964 75.2339 15.7282 75.6491 15.0066C76.0989 14.2101 76.807 14.1034 77.4439 14.1034H79.819L79.8391 14.1313L79.8361 25.8002C79.8361 25.8285 79.8603 25.8555 79.8935 25.8555H83.0169C83.0477 25.8555 83.0752 25.8285 83.0752 25.8002" fill="currentColor"/>
      <path d="M105.584 15.3376L104.043 15.2212C102.888 15.1224 102.028 14.4876 102.028 12.6096C102.028 10.4169 103.02 9.81704 104.343 9.81704H108.608L108.665 9.76247V7.9011L108.608 7.84754H108.519L103.899 7.84854C100.988 7.84854 98.918 9.54423 98.918 12.9237V13.0707C98.918 15.7372 100.572 17.6618 103.038 17.8487L104.571 17.9615C105.741 18.0493 106.47 19.087 106.47 20.6616V21.1044C106.47 22.0888 106.221 23.89 104.093 23.89H99.6616C99.6317 23.89 99.6059 23.9156 99.6059 23.9472V25.7999L99.6616 25.8555H105.163C106.858 25.8555 109.697 25.1751 109.697 20.5987C109.697 18.9406 109.317 17.6338 108.547 16.6893C107.891 15.8782 106.919 15.4394 105.584 15.3376Z" fill="currentColor"/>
      <path d="M131.21 12.2041C131.21 12.1724 131.183 12.1485 131.153 12.1485H125.569C120.583 12.1485 119.938 15.7864 119.938 18.9835L119.942 21.7485C119.942 24.1278 121.432 25.8555 123.494 25.8555H126.526L126.582 25.8002V23.9452C126.582 23.9149 126.556 23.888 126.526 23.888L124.353 23.8916C123.854 23.8813 123.187 23.6714 123.185 21.9654V18.9802C123.185 16.9964 123.373 15.7282 123.779 15.0066C124.229 14.2101 124.942 14.1034 125.568 14.1034H127.954L127.977 14.1313L127.971 25.8002C127.971 25.8285 127.997 25.8555 128.028 25.8555H131.156C131.187 25.8555 131.21 25.8285 131.21 25.8002" fill="currentColor"/>
      <path d="M118.637 12.1485H115.243L115.225 12.1279V9.87226C115.225 9.84232 115.202 9.81703 115.17 9.81703H112.044C112.012 9.81703 111.984 9.84232 111.984 9.87226V21.7498C111.984 24.1288 113.48 25.8555 115.538 25.8555H117.777C117.81 25.8555 117.834 25.8285 117.834 25.7999V23.9469C117.834 23.9166 117.81 23.888 117.777 23.888H116.403C116.051 23.8826 115.225 23.865 115.221 22.1121V14.116L115.241 14.098C116.28 14.1034 118.637 14.098 118.637 14.098L118.692 14.0471V12.2041C118.692 12.1728 118.666 12.1485 118.637 12.1485Z" fill="currentColor"/>
      <path d="M140.468 12.1485H137.093L137.07 12.1279V9.87226L137.018 9.81703H133.886C133.855 9.81703 133.828 9.84232 133.828 9.87226V21.7498C133.828 24.1288 135.321 25.8555 137.378 25.8555H139.616C139.65 25.8555 139.672 25.8285 139.672 25.7999V23.9469C139.672 23.9166 139.65 23.888 139.616 23.888H138.242C137.889 23.8826 137.07 23.865 137.07 22.1121V14.116L137.089 14.098C138.12 14.1034 140.468 14.098 140.468 14.098L140.524 14.0471V12.2041C140.524 12.1728 140.496 12.1485 140.468 12.1485Z" fill="currentColor"/>
      <path d="M145.64 12.1485H142.514C142.485 12.1485 142.457 12.1728 142.457 12.2041V25.7999L142.514 25.8555H145.64C145.674 25.8555 145.697 25.8285 145.697 25.7999V12.2041C145.697 12.1728 145.674 12.1485 145.64 12.1485Z" fill="currentColor"/>
      <path d="M145.64 7.84663H142.514L142.457 7.90052V10.4998C142.457 10.5314 142.485 10.5547 142.514 10.5547H145.64C145.674 10.5547 145.697 10.5314 145.697 10.4998V7.90052C145.697 7.87158 145.674 7.84663 145.64 7.84663Z" fill="currentColor"/>
      <path d="M167.268 12.1485H161.689C161.66 12.1485 161.634 12.1728 161.634 12.2041L161.633 25.7999L161.685 25.8555H164.817L164.87 25.7999L164.865 14.1276L164.887 14.105L167.266 14.1034C167.909 14.1034 168.615 14.2062 169.066 14.9441C169.479 15.6108 169.666 16.7828 169.666 18.6222C169.669 18.7017 169.664 25.7999 169.664 25.7999C169.664 25.8285 169.689 25.8555 169.72 25.8555H172.838C172.872 25.8555 172.896 25.8285 172.896 25.7999V18.9815C172.896 15.7861 172.253 12.1485 167.268 12.1485Z" fill="currentColor"/>
      <path d="M155.652 22.9856C155.16 23.7893 154.379 23.8968 153.67 23.8968C152.969 23.8968 152.185 23.7893 151.688 22.9856C151.239 22.2623 151.032 20.9951 151.032 18.997V18.981C151.032 16.6229 151.324 15.2832 151.979 14.6451C152.37 14.2579 152.878 14.1009 153.67 14.1009C154.475 14.1009 154.977 14.2579 155.368 14.6451C156.017 15.2832 156.31 16.6286 156.31 18.997C156.31 20.9978 156.102 22.266 155.652 22.9856ZM153.67 12.1463C148.449 12.1463 147.781 15.8012 147.781 18.997C147.781 22.1964 148.449 25.8633 153.67 25.8633C158.893 25.8633 159.558 22.1964 159.558 18.997C159.558 15.8012 158.893 12.1463 153.67 12.1463Z" fill="currentColor"/>
      <path d="M84.837 12.1472L84.8008 12.2011L89.4389 25.6725C89.4466 25.7028 89.4466 25.7494 89.4369 25.779L86.8254 32.449C86.8143 32.4806 86.8287 32.5039 86.8596 32.5039H89.5791C89.6127 32.5039 89.6479 32.4806 89.659 32.449L97.8009 12.2011C97.8123 12.1688 97.7978 12.1472 97.766 12.1472H94.7989C94.7667 12.1472 94.7328 12.1715 94.7227 12.2011L91.2757 21.0535H91.2371L88.1939 12.2011C88.1868 12.1688 88.1519 12.1472 88.1207 12.1472" fill="currentColor"/>
      <path d="M176.914 23.9978C176.914 24.0876 176.888 24.1461 176.84 24.1811C176.787 24.219 176.714 24.235 176.624 24.235H176.166V23.7722H176.65C176.719 23.7722 176.772 23.7828 176.811 23.8008C176.877 23.8331 176.914 23.8976 176.914 23.9978ZM177.243 25.062C177.221 25.0537 177.204 25.0311 177.191 24.9935C177.186 24.9655 177.182 24.9196 177.181 24.8681L177.173 24.6601C177.169 24.5583 177.151 24.4821 177.108 24.4406C177.087 24.404 177.052 24.379 177.018 24.3534C177.061 24.3135 177.105 24.2726 177.14 24.2253C177.182 24.1598 177.204 24.0746 177.204 23.9798C177.204 23.7828 177.121 23.6464 176.958 23.5709C176.874 23.537 176.772 23.5144 176.644 23.5144H175.871V25.1668H176.166V24.4928H176.615C176.698 24.4928 176.757 24.5044 176.795 24.5177C176.85 24.553 176.881 24.6072 176.886 24.6977L176.901 24.9569C176.904 25.0208 176.908 25.062 176.914 25.088L176.933 25.1469L176.94 25.1668H177.264V25.071M175.262 24.3777C175.262 24.039 175.389 23.7316 175.624 23.4987C175.862 23.2668 176.179 23.1398 176.508 23.1398C176.84 23.1398 177.149 23.2668 177.382 23.4987C177.618 23.7316 177.746 24.039 177.746 24.3777C177.746 25.0544 177.19 25.604 176.508 25.604C176.179 25.604 175.862 25.4785 175.624 25.247C175.389 25.0151 175.262 24.7064 175.262 24.3777ZM176.508 25.8555C176.908 25.8555 177.281 25.6991 177.565 25.4243C177.841 25.1439 177.998 24.7726 177.998 24.3777C177.998 23.9775 177.841 23.6025 177.565 23.3261C177.281 23.0449 176.908 22.8926 176.508 22.8926C175.683 22.8926 175.012 23.5553 175.012 24.3777C175.012 24.7726 175.165 25.1439 175.445 25.4243C175.728 25.6991 176.11 25.8555 176.508 25.8555Z" fill="currentColor"/>
    </g>
    <defs>
      <clipPath id="clip0_22_158">
        <rect width="178" height="32" fill="currentColor" transform="translate(0 0.503906)"/>
      </clipPath>
    </defs>
  
</svg>