<svg xmlns="http://www.w3.org/2000/svg" viewBox="0 0 100 100">

    <g clip-path="url(#clip0_22_235)">
      <path d="M51.6394 48.1649C51.3987 48.4063 51.1339 48.5271 50.7968 48.5271C50.4598 48.5271 50.195 48.4063 49.9542 48.1649C49.7135 47.9234 49.6172 47.6578 49.6172 47.3198C49.6172 46.9818 49.7376 46.7162 49.9542 46.4747C50.195 46.2333 50.4598 46.1367 50.7968 46.1367C51.1339 46.1367 51.3987 46.2574 51.6394 46.4747C51.8801 46.7162 52.0005 46.9818 52.0005 47.3198C52.0005 47.6337 51.8801 47.9234 51.6394 48.1649ZM50.0746 46.5955C49.882 46.7886 49.7857 47.0301 49.7857 47.3198C49.7857 47.6096 49.882 47.851 50.0746 48.0442C50.2672 48.2373 50.5079 48.358 50.7968 48.358C51.0857 48.358 51.3264 48.2615 51.519 48.0442C51.7116 47.851 51.8079 47.6096 51.8079 47.3198C51.8079 47.0301 51.7116 46.7886 51.519 46.5955C51.3264 46.4023 51.0857 46.3057 50.7968 46.3057C50.532 46.2816 50.2913 46.3782 50.0746 46.5955ZM50.7968 46.6438C50.9653 46.6438 51.0857 46.6679 51.1579 46.6921C51.3024 46.7403 51.3505 46.8611 51.3505 47.0301C51.3505 47.1508 51.3024 47.2232 51.2301 47.2957C51.182 47.3198 51.1098 47.344 51.0376 47.3681C51.1339 47.3923 51.2061 47.4164 51.2542 47.4888C51.3024 47.5613 51.3264 47.6337 51.3264 47.682V47.9717H51.1098V47.8027C51.1098 47.6578 51.0616 47.5613 50.9894 47.513C50.9413 47.4888 50.845 47.4647 50.7246 47.4647H50.5561V47.9717H50.3153V46.6679H50.7968V46.6438ZM51.0376 46.8611C50.9894 46.8369 50.8931 46.8128 50.7487 46.8128H50.5561V47.2715H50.7727C50.869 47.2715 50.9413 47.2715 50.9894 47.2474C51.0857 47.2232 51.1339 47.1508 51.1339 47.0542C51.1339 46.9576 51.0857 46.9094 51.0376 46.8611Z" fill="black"/>
      <path d="M42.9481 0.503906H9.22037C4.14074 0.503906 0 4.5361 0 9.46165V39.522C0 44.52 3.9963 48.4556 9.12407 48.4556H42.8759C48.0037 48.4556 52 44.52 52 39.522V9.46165C52 4.43952 48.0278 0.503906 42.9481 0.503906ZM50.9648 39.522C50.9648 43.9647 47.4019 47.4174 42.8519 47.4174H9.12407C4.57407 47.4415 1.03519 43.9647 1.03519 39.522V9.46165C1.03519 5.019 4.62222 1.51799 9.22037 1.51799H42.9722C47.4741 1.51799 50.9889 4.99485 50.9889 9.46165V39.522H50.9648Z" fill="#040301"/>
      <path d="M50.9648 39.5236C50.9648 43.9662 47.4018 47.4189 42.8518 47.4189H9.12405C4.57405 47.4431 1.03516 43.9662 1.03516 39.5236V9.46319C1.03516 5.02054 4.62219 1.51953 9.22034 1.51953H42.9722C47.474 1.51953 50.9889 4.99639 50.9889 9.46319V39.5236H50.9648Z" fill="#FFAB00"/>
      <path d="M41.6463 29.9856H37.3371L36.5908 25.2773L33.8223 29.9373H29.4648L32.113 32.7381L29.9463 37.4464L34.713 34.5973L38.4445 37.4946L37.7463 32.7381" fill="currentColor"/>
      <path d="M44.6576 29.0438H38.1336L37.0984 22.5247L33.2947 28.9955H32.5725C32.1391 28.247 31.9706 27.1605 31.9706 26.4845C31.9706 25.3738 32.0428 24.2873 32.0428 22.8627C32.0428 20.9794 31.4891 19.9895 30.0206 19.6273V19.579C33.1262 19.1444 34.5465 17.068 34.5465 14.1706C34.5465 10.0418 31.8021 9.14844 28.215 9.14844H18.5613L14.4688 28.5609H19.5965L21.0891 21.4865H24.5076C26.3373 21.4865 27.0836 22.3798 27.0836 24.0941C27.0836 25.3979 26.9391 26.4362 26.9391 27.4261C26.9391 27.7883 27.0113 28.6575 27.2762 28.9955L30.9836 32.9311L27.7817 39.8124L34.6187 35.7319L39.7225 39.6675L38.7836 33.1726L44.6576 29.0438ZM26.0484 17.8647H21.9558L22.9428 13.1806H26.7465C28.0947 13.1806 29.515 13.5428 29.515 15.1847C29.515 17.2853 27.9021 17.8647 26.0484 17.8647ZM34.715 34.5971L29.9484 37.4462L32.1391 32.7621L29.491 29.9613H33.8484L36.5928 25.3014L37.3391 30.0096H41.6725L37.7725 32.738L38.4706 37.5187L34.715 34.5971Z" fill="#040301"/>
    </g>
    <defs>
      <clipPath id="clip0_22_235">
        <rect width="52" height="48" fill="currentColor" transform="translate(0 0.503906)"/>
      </clipPath>
    </defs>
  
</svg>