<svg xmlns="http://www.w3.org/2000/svg" viewBox="0 0 100 100">

    <g clip-path="url(#clip0_22_127)">
      <path fill-rule="evenodd" clip-rule="evenodd" d="M16.0221 0.855469C7.76375 0.855469 0.998354 7.19301 0.355469 15.247L8.78157 18.7143C9.49553 18.2283 10.358 17.9436 11.2859 17.9436C11.3691 17.9436 11.4519 17.9472 11.534 17.951L15.2811 12.5455V12.4691C15.2811 9.21544 17.9405 6.56838 21.21 6.56838C24.4791 6.56838 27.1385 9.21544 27.1385 12.4691C27.1385 15.7228 24.4791 18.3702 21.21 18.3702C21.1648 18.3702 21.1201 18.3702 21.0753 18.3666L15.7311 22.1618C15.7346 22.2308 15.7364 22.3012 15.7364 22.3712C15.7364 24.8138 13.7402 26.8002 11.2863 26.8002C9.13233 26.8002 7.33126 25.2701 6.92328 23.2438L0.89707 20.7658C2.76282 27.3332 8.82528 32.1481 16.0221 32.1481C24.7048 32.1481 31.7431 25.1428 31.7431 16.5023C31.7431 7.86043 24.7044 0.855469 16.0221 0.855469ZM10.2048 24.5981L8.27368 23.8041C8.61591 24.5132 9.20797 25.1071 9.99408 25.4332C11.6935 26.1378 13.6527 25.3352 14.361 23.6424C14.704 22.824 14.7061 21.9203 14.366 21.0997C14.0266 20.2788 13.3862 19.6386 12.5628 19.2969C11.7458 18.9584 10.8705 18.9708 10.1014 19.2598L12.0962 20.0807C13.3496 20.6007 13.9424 22.0331 13.42 23.2806C12.8986 24.5285 11.4583 25.1184 10.2048 24.5981ZM21.2082 8.53516C23.3867 8.53516 25.1587 10.299 25.1587 12.4668C25.1587 14.6347 23.3867 16.3982 21.2082 16.3982C19.0301 16.3982 17.2578 14.635 17.2578 12.4668C17.2578 10.299 19.0301 8.53516 21.2082 8.53516ZM21.215 9.50676C19.576 9.50676 18.2472 10.8289 18.2472 12.4601C18.2472 14.091 19.576 15.4135 21.215 15.4135C22.854 15.4135 24.1828 14.0914 24.1828 12.4601C24.1828 10.8289 22.854 9.50676 21.215 9.50676ZM48.5327 11.5607L47.4793 13.4035C46.668 12.8393 45.5684 12.4998 44.6085 12.4998C43.5115 12.4998 42.8327 12.9518 42.8327 13.7614C42.8327 14.593 43.6946 14.8851 45.0442 15.3425L45.0443 15.3425L45.0448 15.3427C45.2913 15.4262 45.554 15.5152 45.8307 15.6141C47.7572 16.2921 48.8646 17.089 48.8646 18.8451C48.8646 21.2478 46.9661 22.5971 44.2375 22.5971C42.9077 22.5971 41.3035 22.2554 40.0703 21.5088L40.8386 19.4658C41.8405 19.9925 43.0388 20.3048 44.1071 20.3048C45.5471 20.3048 46.2316 19.776 46.2316 18.9944C46.2316 18.1662 45.3369 17.8744 43.867 17.3949L43.8662 17.3947C43.7488 17.3564 43.6276 17.3168 43.5029 17.2757C41.5828 16.6377 40.2523 15.8005 40.2523 13.8569C40.2523 11.6651 42.016 10.4062 44.5538 10.4062C46.3225 10.4062 47.7441 10.964 48.5327 11.5607ZM54.2875 12.7266V22.3963H56.7677V12.7266H60.3571V10.6094H50.6875V12.7266H54.2875ZM70.3275 15.3761V17.4934H65.5811V20.2596H71.0881V22.3963H63.1016V10.6094H71.0881V12.7202H65.5811V15.3761H70.3275ZM75.8422 22.3963L76.6261 20.1075L81.2564 20.1072L82.0574 22.396H84.7452L80.1792 10.6094H77.6827L73.2422 22.3963H75.8422ZM77.2996 18.1403L78.9169 13.4209L80.5677 18.1403H77.2996ZM92.833 22.0529L89.6445 15.2269V22.3963H87.2695V10.6094H89.6392L93.6195 19.1179L97.4583 10.6094H99.8486V22.3963H97.474V15.1653L94.2329 22.0529H92.833ZM103.006 13.7411C103.882 13.7411 104.644 13.1098 104.644 12.0968C104.644 11.0841 103.882 10.457 103.006 10.457C102.128 10.457 101.363 11.0841 101.363 12.0968C101.363 13.1098 102.128 13.7411 103.006 13.7411ZM103.006 13.4765C102.252 13.4765 101.639 12.9442 101.639 12.0968C101.639 11.2532 102.254 10.7227 103.006 10.7227C103.757 10.7227 104.368 11.2468 104.368 12.0968C104.368 12.9442 103.757 13.4765 103.006 13.4765ZM103.596 11.724C103.596 11.4824 103.454 11.2589 103.029 11.2589H102.462V12.8795H102.721V12.2503H103.052L103.373 12.8795H103.685L103.304 12.1696C103.465 12.0939 103.596 11.9454 103.596 11.724ZM103.013 12.0129H102.724H102.723V11.5047H103.012C103.232 11.5047 103.311 11.6002 103.311 11.7487C103.311 11.8959 103.2 12.0129 103.013 12.0129Z" fill="currentColor"/>
    </g>
    <defs>
      <clipPath id="clip0_22_127">
        <rect width="105" height="32" fill="currentColor" transform="translate(0 0.503906)"/>
      </clipPath>
    </defs>
  
</svg>