<svg xmlns="http://www.w3.org/2000/svg" viewBox="0 0 100 100">

    <g clip-path="url(#clip0_22_138)">
      <path d="M108.947 26.4369L101.438 16.5641L108.299 7.60156H105.722L100.141 14.9135L94.5608 7.60156H91.9997L98.8451 16.5796L91.3516 26.4523H93.9284L100.141 18.2764L106.37 26.4523H108.947" fill="currentColor"/>
      <path d="M57.7869 26.4369L50.2934 16.5641L57.1387 7.60156H54.5777L48.9971 14.9135L43.4165 7.60156H40.8396L47.7007 16.5796L40.1914 26.4523H42.7683L48.9971 18.2764L55.21 26.4523H57.7869" fill="currentColor"/>
      <path d="M66.7842 24.4623H61.0455V17.6131H66.7842C68.9659 17.6131 71.5586 18.1839 71.5586 20.8835C71.5586 23.9995 68.5548 24.4623 66.7842 24.4623ZM61.0455 9.56068H66.7842C68.3335 9.56068 70.942 9.93091 70.942 12.5533C70.942 14.5279 69.4243 15.7157 66.7842 15.7157H61.0455V9.56068ZM72.0487 17.2737C71.6376 16.9344 71.2108 16.6721 70.7681 16.487C72.1751 15.7466 73.1079 14.3428 73.1079 12.723C73.1079 11.5198 72.6494 7.60156 66.7684 7.60156H58.8481V15.7311H56.208C55.8602 16.1631 55.0855 17.1966 54.7852 17.6131H58.8481V26.4369H66.7684C71.0685 26.4369 73.7402 24.3235 73.7402 20.9297C73.756 19.4488 73.1711 18.1839 72.0487 17.2737Z" fill="currentColor"/>
      <path d="M84.0461 24.8656C79.8567 24.8656 76.932 21.6416 76.932 17.0137C76.932 12.3859 79.8567 9.16185 84.0461 9.16185C88.2197 9.16185 91.1286 12.3859 91.1286 17.0137C91.1286 21.6262 88.2197 24.8656 84.0461 24.8656ZM84.0461 7.17188C78.5445 7.17188 74.7188 11.2135 74.7188 17.0137C74.7188 22.814 78.5445 26.8556 84.0461 26.8556C89.516 26.8556 93.3418 22.814 93.3418 17.0137C93.3418 11.2135 89.516 7.17188 84.0461 7.17188Z" fill="currentColor"/>
      <path d="M14.8384 32.4856C12.3106 32.2504 9.74994 31.3628 7.54728 29.9585C5.70259 28.7822 5.28617 28.301 5.28617 27.3351C5.28617 25.3997 7.46692 22.0064 11.1928 18.1426C13.3115 15.947 16.2593 13.3735 16.5771 13.4412C17.1981 13.5767 22.155 18.303 24.0106 20.5236C26.9475 24.0452 28.2991 26.9252 27.6123 28.2084C27.09 29.185 23.8572 31.0919 21.4829 31.8226C19.525 32.4286 16.9533 32.6852 14.8384 32.4856ZM2.79858 25.3248C1.26804 23.0294 0.493639 20.766 0.117396 17.4975C-0.00680092 16.4175 0.0370332 15.8008 0.398665 13.5838C0.847964 10.8214 2.45522 7.62775 4.39122 5.66023C5.21676 4.8226 5.28982 4.80122 6.29435 5.1327C7.5144 5.53547 8.81481 6.41231 10.8348 8.19805L12.0147 9.23884L11.3718 10.0123C8.38013 13.5981 5.22772 18.6808 4.04055 21.8246C3.394 23.5319 3.13464 25.25 3.41226 25.9628C3.59856 26.444 3.42687 26.2658 2.79858 25.3248ZM29.6835 25.7133C29.8333 24.9933 29.6433 23.6674 29.194 22.3307C28.226 19.4365 24.9786 14.0472 21.9979 10.3866L21.0591 9.23528L22.0746 8.3228C23.4006 7.13231 24.3211 6.41944 25.3147 5.81706C26.1001 5.33943 27.2178 4.91884 27.7 4.91884C27.9959 4.91884 29.0406 5.97745 29.8844 7.13587C31.1921 8.92518 32.1528 11.0994 32.6387 13.3592C32.9528 14.8206 32.9784 17.9466 32.6898 19.4008C32.4524 20.5949 31.9483 22.1454 31.4588 23.2004C31.0898 23.9882 30.1766 25.5173 29.7748 26.0163C29.5703 26.2658 29.5703 26.2658 29.6835 25.7133ZM15.1087 4.36993C13.7315 3.68557 11.6092 2.95488 10.4367 2.75527C10.0239 2.68755 9.32621 2.64834 8.87691 2.66973C7.90891 2.71606 7.95274 2.66973 9.5052 1.95329C10.7947 1.35804 11.8722 1.00874 13.3334 0.709329C14.9772 0.370715 18.0638 0.367151 19.682 0.702201C21.4281 1.0622 23.4846 1.81072 24.6426 2.50577L24.986 2.7125L24.1969 2.67329C22.6262 2.59488 20.3395 3.21507 17.8812 4.38419C17.1396 4.73706 16.4967 5.01864 16.4493 5.00795C16.4054 5.00082 15.799 4.71211 15.1087 4.36993Z" fill="currentColor"/>
    </g>
    <defs>
      <clipPath id="clip0_22_138">
        <rect width="109" height="32" fill="currentColor" transform="translate(0 0.503906)"/>
      </clipPath>
    </defs>
  
</svg>